<?xml version="1.0" encoding="UTF-8"?><svg id="Layer_87" xmlns="http://www.w3.org/2000/svg" width="558.5" height="438" viewBox="0 0 558.5 438"><defs><style>.cls-1{fill:#fff;}</style></defs><path class="cls-1" d="m16.77,243.48c-5.55-3.06-8.94-9.62-7.92-15.93s6.09-11.36,12.22-12.64c.47-.1.27-.82-.2-.72-6.5,1.36-11.87,6.9-12.8,13.52s2.57,13.26,8.32,16.43c.42.23.8-.41.38-.65h0Z"/><path class="cls-1" d="m212.27,369c-27.13-60.19-21.92-132.81-57.25-188.57-7.65-12.07-17.52-23.37-30.61-29.08-13.09-5.71-29.9-4.61-39.91,5.59-7.97,8.12-10.36,20.4-9.16,31.71,1.22,11.3,5.57,21.99,9.52,32.65,2.02,5.49,2.88,13.48-2.63,15.42-3.63,1.26-7.4-1.37-10.14-4.08-22.11-21.78-26.8-59.33-10.14-85.52,16.66-26.19,53.21-37.83,81.68-25.47,27.23,11.81,43.01,40.71,51.33,69.2,8.32,28.49,11.3,58.64,23.09,85.88,5.3-48.34,23.43-95.2,52.03-134.53,6.26-8.61,13.26-17.07,22.6-22.19,13.54-7.42,30.43-6.69,44.89-1.28,18.52,6.91,34.14,21.25,42.59,39.12,8.46,17.87,9.65,39.04,3.26,57.74-1.94,5.67-4.67,11.3-9.32,15.07-4.65,3.77-11.54,5.26-16.72,2.26-6.2-3.59-7.79-12.05-6.36-19.09,1.45-7.02,5.14-13.38,7.1-20.27,4.59-16.17-1.71-34.88-15.15-44.99-13.44-10.12-33.14-10.97-47.42-2.08-19.09,11.91-25.35,36.26-30.37,58.19-12.91,56.45-28.06,112.4-45.42,167.65-1.96.29-4.04-.92-4.77-2.77"/><path class="cls-1" d="m491.5,394.49c-3.96,3.24-9.85,2.65-13.09-1.31l-45.75-55.9-42.18,58.88c-2.98,4.16-8.81,5.14-12.97,2.14-4.16-2.98-5.12-8.81-2.14-12.97l45.09-62.96-49.21-60.15c-3.24-3.96-2.65-9.87,1.31-13.09,1.73-1.41,3.81-2.1,5.87-2.1,2.71,0,5.38,1.16,7.22,3.41l46.03,56.25,42.2-58.92c3-4.16,8.83-5.12,12.99-2.14,2.53,1.82,3.88,4.69,3.88,7.61,0,1.88-.55,3.77-1.73,5.4l-45.13,63,48.93,59.78c3.24,3.96,2.65,9.87-1.31,13.09v-.02Z"/></svg>