<?xml version="1.0" encoding="UTF-8"?><svg id="Layer_83" xmlns="http://www.w3.org/2000/svg" width="558.5" height="438" viewBox="0 0 558.5 438"><defs><style>.cls-1{fill:#fff;}</style></defs><path class="cls-1" d="m207.3,331.72c-2.09-69.22,32.14-137.52,20.32-205.75-2.56-14.77-7.57-29.69-17.97-40.49-10.39-10.8-27.13-16.48-40.93-10.62-10.98,4.66-18.24,15.6-21.61,27.05-3.37,11.44-3.43,23.55-3.9,35.47-.24,6.12-2.64,14.22-8.75,13.88-4.03-.22-6.61-4.3-8.19-8.02-12.68-30-2.13-68.26,24.54-86.95,26.67-18.69,66.76-15.27,89.39,8.15,21.64,22.39,25.32,56.74,21.92,87.69-3.39,30.96-12.62,61.36-12.15,92.5,24.57-44.71,60.98-82.84,104.5-109.45,9.53-5.83,19.71-11.21,30.81-12.42,16.11-1.75,32.18,5.74,44.03,16.79,15.17,14.14,24.54,34.32,25.55,55.03,1.02,20.71-6.33,41.71-20.04,57.27-4.15,4.71-9.07,9.06-15.09,10.86-6.02,1.8-13.31.46-17.12-4.52-4.57-5.97-2.71-14.82,1.51-21.05,4.22-6.23,10.36-10.89,15.03-16.79,10.95-13.83,12.37-34.48,3.4-49.68-8.96-15.2-27.72-23.96-45.12-21.07-23.28,3.86-39.14,24.95-52.81,44.19-35.19,49.52-72.36,97.64-111.39,144.21-2.02-.51-3.55-2.52-3.5-4.6l-2.43-1.65Z"/><path class="cls-1" d="m210.51,331.72c-.82-28.56,4.47-56.75,10.1-84.62s11.7-55.63,12.6-84.01c.45-14.02-.42-28.17-3.24-41.94-2.62-12.83-7.35-25.49-15.9-35.58-7.93-9.35-19.69-15.73-32.04-16.25s-23.79,6.19-30.89,16.47c-7.92,11.47-9.92,25.6-10.64,39.2-.2,3.71-.31,7.42-.45,11.13-.1,2.55-.32,4.86-1.11,7.31-.6,1.84-1.55,3.65-2.98,4.38-.28.14-1.02.32-1.72.17-1.11-.22-1.96-1.04-2.67-1.88-1.6-1.9-2.53-4.41-3.37-6.72-.94-2.57-1.72-5.21-2.34-7.88-1.21-5.22-1.75-10.54-1.71-15.9.08-10.78,2.56-21.6,7.28-31.3s11.53-18.42,20.27-24.74,19.07-10.25,29.73-11.57c21.86-2.7,44.69,4.75,59.21,21.64,15.66,18.21,19.89,43.47,19.35,66.78-.68,29.16-9.11,57.44-12.13,86.35-.76,7.25-1.17,14.54-1.08,21.84.04,3.11,4.41,4.47,5.98,1.62,12.31-22.35,27.52-43.03,45.2-61.44s37.74-34.6,59.63-47.76c11.52-6.92,24.09-12.75,37.87-11.01,12.4,1.57,23.89,8.26,32.75,16.87,17.89,17.39,26.74,43.38,22.53,68.05-2.17,12.69-7.34,24.89-15.24,35.09-3.74,4.84-8.11,9.62-13.65,12.4-4.5,2.25-10.34,2.69-14.64-.28-4.58-3.16-4.64-9.12-3.06-13.93,1.99-6.05,6.83-10.56,11.19-14.97s8.63-9.26,11.41-15.04,4.22-11.4,4.73-17.49c1.02-12.15-2.66-24.42-10.48-33.79-7.31-8.76-18.18-14.79-29.45-16.51-11.92-1.82-23.74,1.07-33.93,7.41s-18.21,15.1-25.45,24.35c-8.5,10.86-16.24,22.31-24.34,33.47-8.8,12.12-17.73,24.15-26.77,36.09-18.17,24-36.83,47.64-55.94,70.89-4.69,5.7-9.4,11.39-14.15,17.04l3.12-.83c-.55-.17-.86-.51-1.09-1.04-.12-.29-.12-1.11-.18-1.31-.24-.88-.78-1.42-1.49-1.93-.79-.57-1.61-1.09-2.41-1.64-3.42-2.33-6.64,3.23-3.24,5.54l2.43,1.65-1.59-2.77c.11,3.63,2.39,6.62,5.86,7.69,1.01.31,2.42.01,3.12-.83,19.82-23.66,39.16-47.71,58.02-72.14s36.75-48.67,54.44-73.52c12.8-17.97,29.14-40.53,53.25-42.24,11.11-.79,22.46,3.14,30.78,10.55,8.77,7.81,13.4,18.94,13.22,30.65-.09,5.74-1.29,11.56-3.7,16.79-2.67,5.79-6.68,10.32-11.12,14.81-4.79,4.84-9.52,9.76-12.02,16.22-2.22,5.74-2.45,12.82,1.18,18.05s9.6,7.48,15.62,7.26c6.81-.26,12.84-3.78,17.77-8.28,9.7-8.87,16.72-21.03,20.87-33.41,8.4-25.05,4.2-53.17-11.02-74.75-7.6-10.78-17.73-20.05-29.79-25.57s-26.29-7-39.46-2.5-24.48,12.25-35.51,19.95-21.09,15.78-30.79,24.66c-19.28,17.63-36.25,37.83-50.31,59.85-3.42,5.36-6.66,10.82-9.72,16.39l5.98,1.62c-.39-30.88,8.52-60.77,12.01-91.26,2.81-24.55,1.52-50.94-9.96-73.3-5.48-10.68-13.43-20.05-23.41-26.77s-20.67-10.22-32.06-11.65c-22.81-2.88-46.57,4.83-62.13,22.02s-22.36,41.03-19.07,63.73c.8,5.5,2.23,10.91,4.34,16.05s6.01,11.61,12.67,10.97c5.85-.55,8.93-6.1,10.09-11.3.65-2.91.75-5.87.86-8.84.14-3.92.27-7.83.52-11.75.83-12.84,3.25-26.5,11.97-36.52,3.81-4.38,8.61-7.81,14.25-9.35s11.35-1.13,16.81.49c26.28,7.78,33.97,38.44,36.1,62.45,2.53,28.49-2.06,56.94-7.54,84.82-5.61,28.54-12.27,57.04-14.15,86.15-.45,7.04-.61,14.1-.41,21.15.12,4.12,6.54,4.14,6.42,0Z"/></svg>