<?xml version="1.0" encoding="UTF-8"?><svg id="Layer_15" xmlns="http://www.w3.org/2000/svg" width="2757.02" height="2493.56" viewBox="0 0 2757.02 2493.56"><defs><style>.cls-1,.cls-2,.cls-3,.cls-4,.cls-5,.cls-6,.cls-7,.cls-8,.cls-9,.cls-10,.cls-11,.cls-12,.cls-13,.cls-14,.cls-15,.cls-16{stroke-miterlimit:10;}.cls-1,.cls-5,.cls-6,.cls-7,.cls-8,.cls-9,.cls-10,.cls-11,.cls-12,.cls-13,.cls-14,.cls-15,.cls-16{stroke:#000;}.cls-17,.cls-8{fill:#fff;}.cls-18{fill:#fedae4;}.cls-19{fill:#ffaab5;}.cls-20{fill:#b53040;}.cls-21{fill:#b7c2e1;}.cls-22{fill:#a6c000;}.cls-23{fill:#bddfed;}.cls-24{fill:#d277c5;}.cls-25{fill:#4d50e6;}.cls-2{fill:#cbe61d;stroke:#a6c000;}.cls-2,.cls-3,.cls-4{stroke-width:10px;}.cls-3{fill:#ca4546;stroke:#b53040;}.cls-4{fill:#f40006;stroke:#ff7fce;}.cls-5{fill:#ffd6b4;stroke-width:2px;}.cls-6{fill:#feb41d;}.cls-7{fill:#90d057;}.cls-9{fill:#ffe894;}.cls-10{fill:#fd6414;}.cls-11{fill:#e21001;}.cls-12{fill:#ad6fff;}.cls-13{fill:#a6c2ff;}.cls-14{fill:#b392c2;}.cls-15{fill:#6fd7ff;}.cls-16{fill:none;}.cls-26{opacity:.5;}</style></defs><circle class="cls-3" cx="238.46" cy="219.96" r="165.5"/><path class="cls-20" d="m129.91,350.72c46.01,19.72,101.36,15.64,144.62-9.59s73.71-70.71,81.61-119.93c7.9-49.23-6.51-101.3-37.64-140.32,50.91,27.85,84.41,84.61,84.07,142.42-.35,57.81-34.53,114.26-85.77,141.65-51.24,27.39-117.41,24.58-166.03-7.05"/><path class="cls-20" d="m129.15,352.02c28.05,11.98,59.27,15.31,89.34,10.53,29.3-4.65,56.97-17.18,79.67-36.28,21.47-18.06,38.26-41.49,48.9-67.41,11.18-27.25,14.97-57.11,11.37-86.32-3.7-30.01-14.79-59.09-32.2-83.83-2.13-3.03-4.36-5.99-6.67-8.88l-1.82,2.36c14.55,7.99,27.71,18.33,39.04,30.44,11.27,12.05,20.69,25.8,27.94,40.62,7.26,14.84,12.29,30.8,14.72,47.15,2.42,16.27,2.12,32.92-.85,49.09-2.97,16.24-8.5,31.99-16.2,46.59-7.69,14.58-17.51,28.02-29.12,39.72-11.71,11.8-25.21,21.79-40.03,29.32-15.49,7.87-32.32,12.99-49.5,15.45-17.27,2.47-35.01,2.2-52.2-.75-17.09-2.93-33.75-8.49-49.04-16.7-3.75-2.01-7.41-4.19-10.99-6.5-1.62-1.05-3.13,1.54-1.51,2.59,14.83,9.62,31.31,16.64,48.46,20.92,17.19,4.29,35.07,5.89,52.74,4.73,17.74-1.16,35.32-5.04,51.78-11.78,15.83-6.48,30.47-15.54,43.4-26.74,12.7-11,23.68-23.98,32.56-38.24,8.86-14.23,15.65-29.81,19.92-46.03,4.26-16.21,6-33.1,4.86-49.83-1.14-16.82-5.04-33.43-11.32-49.07-6.28-15.61-14.85-30.23-25.39-43.34-10.54-13.1-23.08-24.61-37.13-33.86-3.45-2.27-6.99-4.4-10.61-6.38-1.58-.87-2.84,1.07-1.82,2.36,18.57,23.33,31.11,51.33,36.46,80.64,5.2,28.51,3.32,58.11-6.02,85.58-8.88,26.11-24.15,50.05-44.12,69.08-20.92,19.94-46.88,33.86-75.06,40.29-28.97,6.61-59.8,5.4-87.95-4.24-3.4-1.17-6.77-2.45-10.08-3.86-1.76-.75-3.29,1.83-1.51,2.59h0Z"/><ellipse class="cls-17" cx="125.92" cy="251.32" rx="31.21" ry="10.4" transform="translate(-148.95 310.17) rotate(-75.47)"/><ellipse class="cls-17" cx="173.41" cy="131.94" rx="46.34" ry="22.7" transform="translate(-42.51 161.26) rotate(-45)"/><path class="cls-17" d="m239.66,302.77c-13.3-29.51-10.75-65.12-28.07-92.46-3.75-5.92-8.59-11.46-15.01-14.26s-14.66-2.26-19.57,2.74c-3.91,3.98-5.08,10-4.49,15.55s2.73,10.78,4.67,16.01c.99,2.69,1.41,6.61-1.29,7.56-1.78.62-3.63-.67-4.97-2-10.84-10.68-13.14-29.09-4.97-41.93s26.09-18.55,40.05-12.49c13.35,5.79,21.09,19.96,25.17,33.93,4.08,13.97,5.54,28.75,11.32,42.11,2.6-23.7,11.49-46.68,25.51-65.96,3.07-4.22,6.5-8.37,11.08-10.88,6.64-3.64,14.92-3.28,22.01-.63,9.08,3.39,16.74,10.42,20.88,19.18,4.15,8.76,4.73,19.14,1.6,28.31-.95,2.78-2.29,5.54-4.57,7.39-2.28,1.85-5.66,2.58-8.2,1.11-3.04-1.76-3.82-5.91-3.12-9.36.71-3.44,2.52-6.56,3.48-9.94,2.25-7.93-.84-17.1-7.43-22.06-6.59-4.96-16.25-5.38-23.25-1.02-9.36,5.84-12.43,17.78-14.89,28.53-6.33,27.68-13.76,55.11-22.27,82.2-.96.14-1.98-.45-2.34-1.36"/><circle class="cls-2" cx="234.25" cy="754.2" r="170.73"/><path class="cls-22" d="m124.43,889.09c47.46,20.35,104.56,16.14,149.2-9.89,44.63-26.03,76.04-72.94,84.19-123.73,8.15-50.78-6.71-104.51-38.83-144.75,52.52,28.73,87.08,87.28,86.72,146.92-.36,59.64-35.62,117.87-88.49,146.13-52.86,28.26-121.12,25.36-171.28-7.28"/><path class="cls-22" d="m123.86,890.06c28.83,12.31,60.94,15.73,91.84,10.82,30.15-4.79,58.64-17.66,82.01-37.32,22.09-18.58,39.39-42.68,50.33-69.36,11.52-28.08,15.43-58.83,11.71-88.94-3.81-30.88-15.25-60.81-33.16-86.27-2.18-3.1-4.46-6.12-6.81-9.08l-1.36,1.77c15.04,8.26,28.65,18.95,40.36,31.47,11.65,12.46,21.39,26.67,28.89,41.99,7.51,15.35,12.71,31.84,15.23,48.74,2.51,16.86,2.2,34.11-.87,50.87-3.08,16.79-8.8,33.07-16.76,48.16-7.95,15.07-18.1,28.96-30.1,41.06-12.1,12.2-26.06,22.53-41.38,30.31-16.01,8.13-33.4,13.44-51.16,15.98-17.9,2.56-36.26,2.29-54.08-.77-17.67-3.03-34.89-8.79-50.7-17.27-3.87-2.08-7.65-4.32-11.33-6.71-1.22-.79-2.35,1.16-1.14,1.94,15.28,9.91,32.23,17.13,49.89,21.54,17.69,4.42,36.1,6.06,54.3,4.87,18.26-1.19,36.36-5.2,53.31-12.13,16.26-6.65,31.31-15.97,44.59-27.47,13.07-11.32,24.38-24.68,33.52-39.36,9.13-14.65,16.11-30.68,20.5-47.38,4.39-16.69,6.17-34.07,5-51.3-1.18-17.32-5.19-34.41-11.67-50.51-6.45-16.03-15.26-31.06-26.09-44.52-10.85-13.49-23.76-25.34-38.22-34.87-3.56-2.34-7.21-4.54-10.95-6.59-1.18-.65-2.13.8-1.36,1.77,19.2,24.13,32.19,53.06,37.73,83.38,5.38,29.49,3.45,60.1-6.21,88.51-9.19,27.01-24.97,51.76-45.62,71.45-21.63,20.62-48.48,35.02-77.62,41.67-29.95,6.84-61.84,5.6-90.96-4.38-3.55-1.21-7.05-2.56-10.49-4.03-1.32-.56-2.46,1.38-1.14,1.94h0Z"/><ellipse class="cls-17" cx="111.66" cy="734.67" rx="32.2" ry="10.73" transform="translate(-627.53 658.49) rotate(-75.47)"/><ellipse class="cls-17" cx="182.27" cy="648.26" rx="47.81" ry="23.41" transform="translate(-405.01 318.75) rotate(-45)"/><path class="cls-17" d="m203.27,834.23c-1.66,4.05-3.38,8.18-6.32,11.43s-7.38,5.48-11.67,4.61c-5.05-1.02-8.47-6.06-9.33-11.14s.28-10.26,1.25-15.32,1.75-10.37.23-15.29c-3.03-9.76-13.68-14.56-21.05-21.65-11.1-10.67-14.8-27.62-11.64-42.69,3.16-15.07,12.41-28.34,23.75-38.76,16.94-15.57,39.24-25.59,62.23-26.31s46.44,8.28,61.93,25.29c15.49,17.01,22.25,41.99,15.99,64.13-2.46,8.71-7.05,17.14-14.4,22.43-4.59,3.3-10.31,5.48-13.34,10.26-3.75,5.91-2.08,13.54-1.68,20.53.33,5.73-.35,11.67-3.1,16.71s-7.85,9.02-13.58,9.37-11.73-3.63-12.69-9.29c.77,5.82-3.67,12.1-9.53,12.5-5.86.39-11.26-6.23-9.02-11.66-2.32,4.49-5.8,8.54-10.39,10.65-4.59,2.11-10.38,1.96-14.36-1.15-3.98-3.11-5.41-9.38-2.48-13.5"/><path class="cls-17" d="m201.83,833.83c-1.67,4.05-3.42,8.34-6.6,11.47-2.81,2.76-7.01,4.6-10.9,3.14-3.47-1.3-5.7-4.86-6.61-8.3-1.27-4.82-.21-9.96.71-14.74s1.77-9.3,1.15-14c-.52-3.93-2.19-7.44-4.66-10.52-4.67-5.82-11.4-9.46-16.83-14.47-11.85-10.92-15.21-28.55-11.45-43.81,4.08-16.56,15.43-30.52,28.57-40.96,13.46-10.69,29.81-18.04,46.88-20.33,16.59-2.22,33.79.61,48.67,8.3,14.74,7.61,26.63,19.85,33.17,35.16,6.35,14.87,7.56,32.2,1.92,47.48-2.87,7.76-7.66,14.56-14.74,18.98-3.34,2.09-6.96,3.94-9.68,6.86-2.82,3.03-4.09,6.89-4.37,10.96-.29,4.31.44,8.6.66,12.9.24,4.52-.14,9.13-1.8,13.37-2.73,7.02-10.45,13.28-18.24,10.19-3.22-1.28-5.74-3.95-6.39-7.39-.31-1.64-3.14-1.29-2.95.4.57,4.89-2.83,10.77-8.19,11-4.86.21-9.21-5.11-7.41-9.77.61-1.59-1.96-2.65-2.74-1.16-3.31,6.3-9.24,12-16.88,11.25-3.36-.33-6.46-2.09-8.05-5.12-1.43-2.73-1.47-6.05.28-8.63,1.09-1.6-1.51-3.1-2.59-1.51-3.55,5.22-1.39,12.59,3.63,16,5.77,3.91,13.61,2.54,18.89-1.5,3.1-2.38,5.5-5.53,7.31-8.97-.91-.39-1.83-.77-2.74-1.16-2.45,6.36,3.44,13.58,9.98,13.57,7.03-.01,12.28-7.35,11.51-14.01-.98.13-1.96.27-2.95.4,1.52,8.04,10.81,12.09,18.16,9.62,8.72-2.94,13.17-11.66,14.04-20.33.47-4.65-.18-9.23-.49-13.87-.29-4.34-.25-8.96,2.28-12.7,2.33-3.45,6.29-5.41,9.74-7.53,3.67-2.26,6.93-4.96,9.62-8.34,10.71-13.52,12.64-32.78,9.07-49.19-3.68-16.91-13.44-31.97-27.2-42.42-13.89-10.56-31.35-16.26-48.75-16.6-18.13-.35-36.15,5.2-51.51,14.68-15.03,9.28-28.63,22.61-35.92,38.9-6.92,15.45-7.54,34.07,1.54,48.84,2.15,3.49,4.81,6.64,7.9,9.34,2.99,2.61,6.24,4.89,9.34,7.37s5.89,4.94,7.9,8.18c2.46,3.96,2.94,8.44,2.49,13.02-.93,9.33-5.31,19.72.61,28.32,2.29,3.33,5.83,5.7,9.96,5.71,4.29.01,8.36-2.39,11.11-5.56,2.97-3.43,4.72-7.63,6.42-11.78.73-1.78-2.17-2.56-2.89-.8h0Z"/><path class="cls-22" d="m185.49,750.23c-5.24-2.92-12.41-1.76-16.47,2.65-4.33,4.7-4.63,12.54-.82,17.67,3.81,5.13,11.23,7.14,17.19,4.81,5.96-2.33,10.02-8.69,9.84-15.08-.09-3.2-1.2-6.44-3.42-8.75s-5.59-3.58-8.73-2.91"/><path class="cls-22" d="m186.24,748.94c-5.91-3.18-13.87-2.06-18.41,3.01-4.51,5.04-5.06,13.13-1.34,18.78,3.67,5.57,10.86,8.13,17.3,6.69,6.74-1.51,11.82-7.69,12.76-14.41.57-4.06-.34-8.37-2.91-11.62s-6.81-4.99-10.96-4.21c-1.89.36-1.09,3.25.8,2.89,6.69-1.26,10.62,5.93,10.21,11.66-.38,5.4-4.17,10.69-9.36,12.42-5.02,1.67-10.93.15-14.42-3.85-3.47-3.97-3.78-10.24-1.09-14.69,3.19-5.28,10.56-6.95,15.9-4.08,1.7.91,3.22-1.68,1.51-2.59h0Z"/><path class="cls-22" d="m275.97,746.49c-6.52,5.44-9.91,14.39-8.63,22.78.39,2.57,1.28,5.21,3.27,6.88,2.05,1.72,4.89,2.09,7.56,2.24,5.45.3,11.58-.37,15.1-4.54,2.47-2.92,3.11-7.01,2.76-10.81-.49-5.33-2.91-10.63-7.17-13.86s-10.48-4.04-15.08-1.31"/><path class="cls-22" d="m274.91,745.43c-5.45,4.62-8.77,11.44-9.27,18.55-.25,3.5.12,7.39,1.78,10.53,1.9,3.58,5.51,4.91,9.34,5.28,6.6.64,14.71-.18,18.62-6.28,3.93-6.12,2.44-15.17-1.4-20.96-4.48-6.75-13.57-10.18-20.97-5.97-1.68.96-.17,3.55,1.51,2.59,5.4-3.08,12.13-.94,15.93,3.63,3.77,4.54,5.54,12.08,3.16,17.65-2.46,5.76-9.17,6.69-14.72,6.48-2.94-.11-6.39-.39-8.29-2.95-1.8-2.44-2.1-5.94-2.03-8.86.17-6.75,3.31-13.2,8.45-17.56,1.47-1.25-.66-3.36-2.12-2.12h0Z"/><path class="cls-22" d="m217.28,800.1c.97-2.91,2.12-5.74,3.49-8.48,1.12-2.24,2.26-5.11,5.27-4.51,2.6.52,5.49,1.8,7.64,3.35,1.98,1.43,3.72,3.87,3.29,6.43l2.74-.36c-1.5-2.48-3.07-5.05-5.34-6.9-2.31-1.88-5.24-2.89-8.23-2.69-5.88.39-10.38,5.05-10.91,10.85-.13,1.37,1.68,1.87,2.56,1.06,1.55-1.43,2.92-3.04,4.1-4.78.59-.87,1.12-1.78,1.58-2.72.41-.82.7-1.99,1.33-2.68.66-.72,1.66.31,2.23.76.9.71,1.78,1.45,2.63,2.23,1.75,1.59,3.37,3.31,4.88,5.14,1.23,1.49,3.34-.64,2.12-2.12-1.72-2.08-3.6-4.03-5.64-5.81-1.77-1.54-4.17-4.09-6.76-3.34-2.27.66-2.89,3.49-3.9,5.3-1.24,2.23-2.82,4.19-4.69,5.92l2.56,1.06c.41-4.42,4.2-7.88,8.62-7.87,5.1,0,7.9,4.2,10.27,8.13.61,1.02,2.52.97,2.74-.36.57-3.39-.88-6.67-3.46-8.88-1.36-1.17-2.91-2.06-4.55-2.78-1.6-.7-3.29-1.45-5.01-1.81s-3.47-.27-4.95.74c-1.33.9-2.2,2.29-2.95,3.68-1.83,3.41-3.33,7.01-4.55,10.68-.61,1.84,2.28,2.62,2.89.8h0Z"/><path d="m63.12,1245.05c-6.61-14.48-23.39-19.89-38.26-17.66-7.01,1.05-13.76,4.4-16.87,11.08-3.5,7.51-2.18,15.67-.66,23.5.7-1.23,1.4-2.46,2.1-3.69-.73.24-1.47.46-2.19.73-1.7.62-2.32,1.86-3.12,3.4-1.9,3.64-3.26,7.55-3.83,11.62-1.01,7.23.64,14.54,5.27,20.27,4.93,6.1,12.33,8.18,19.93,7.98,8.05-.21,16.2-1.66,23.95-3.8,9-2.48,17.68-6.14,25.78-10.77l-4.41-1.79c.78,2.24,1.68,3.56,3.46,5.23,2.19,2.05,4.59,3.91,7.12,5.52,5.18,3.31,11.08,5.66,17.13,6.76,12.52,2.26,25.61-.6,36.07-7.84h-3.03c.59.35,1.18.7,1.77,1.05-.5-.86-.99-1.73-1.49-2.59-.35,10.81,7.99,19.68,17.8,22.99,11.94,4.03,24.99-.76,35.34-6.77-1.5-.86-3.01-1.73-4.51-2.59.11.86.17,1.74.34,2.59.4,2.08,1.84,2.93,3.49,4.11,3.39,2.44,7.08,4.41,10.94,5.99,7.84,3.22,16.51,4.66,24.97,3.98,16.15-1.31,30.86-9.94,40.28-23.05-1.57.2-3.14.4-4.71.61,5.65,5.28,11.31,10.13,18.3,13.61,7.81,3.88,16.32,6.19,25.03,6.68,17.6.99,35.19-5.98,47.72-18.28l-5.01-1.32c.9,3.4,3.82,5.69,6.44,7.91,3.1,2.64,6.45,4.99,10.02,6.96,7.41,4.09,15.59,6.6,24.02,7.37,17.18,1.58,34.59-4.95,46.95-16.86-1.57-.2-3.14-.4-4.71-.61,1.07,2.13,1.81,3.68,3.67,5.26,3.03,2.57,6.3,4.87,9.79,6.77,6.85,3.73,14.43,6.07,22.22,6.57,14.7.94,29.02-5.78,37.5-17.86,3.96-5.65,6.91-12.93,5.82-19.87-.96,1.27-1.93,2.53-2.89,3.8,13.1-1.58,20.39-15.6,15.96-27.66-5.02-13.67-19.15-19.6-32.85-19.83-1.57-.03-3.07,1.4-3,3l.04.8c.11,2.3,2.46,3.7,4.51,2.59,5.91-3.2,7.91-10.42,6.37-16.67-1.78-7.24-8.4-11.81-15.09-14.11-14.15-4.86-30.65-2.18-43.61,4.79-7.56,4.07-14.03,9.79-19.11,16.69-2.19,2.97,2.28,5.57,4.71,3.64l.93-.74c1.25-1,1.07-3.21,0-4.24-10.9-10.53-25.89-16.62-41.09-16.21-14.92.39-29.35,6.89-39.68,17.63,1.67.97,3.34,1.95,5.01,2.92l.38-.92c.54-1.31-.4-2.66-1.38-3.39-13.81-10.22-31.24-15.52-48.42-14.45-16.69,1.04-32.6,7.79-45.1,18.86l4.24,4.24,1.78-1.72c1.19-1.15,1.1-3.08,0-4.24-9.89-10.49-24.09-16.76-38.55-16.65-14.47.11-28.57,6.49-38.34,17.13h4.24c-8.94-10.94-23.21-17.47-37.37-16.71-14.06.76-27.01,8.15-35.14,19.58h5.18c-4.86-10.24-16.14-17.2-27.54-16.49-11.36.71-21.19,8.27-25.34,18.75-1.42,3.59,4.38,5.15,5.79,1.6,3.21-8.11,11.54-14.09,20.29-14.38,9.22-.3,17.72,5.32,21.62,13.55,1.05,2.22,4,1.66,5.18,0,6.99-9.84,18.66-16.23,30.74-16.64,12.49-.43,24.49,5.36,32.34,14.98,1,1.22,3.23,1.1,4.24,0,8.73-9.51,21.14-15.28,34.1-15.37,12.95-.09,25.46,5.51,34.31,14.89v-4.24l-1.78,1.72c-2.8,2.71,1.37,6.79,4.24,4.24,11.47-10.16,26.36-16.39,41.69-17.15,15.97-.8,31.72,4.19,44.55,13.68l-1.38-3.39-.38.92c-1.18,2.86,3.07,4.94,5.01,2.92,9.24-9.61,22.07-15.52,35.44-15.87,13.65-.36,27.05,5,36.85,14.46v-4.24l-.93.74c1.57,1.21,3.14,2.42,4.71,3.64,9.28-12.61,24.68-20.38,40.28-20.86,7.46-.23,16.39.79,22.35,5.73,4.65,3.85,7.06,12.73.6,16.22,1.5.86,3.01,1.73,4.51,2.59l-.04-.8-3,3c10.45.17,21.61,3.97,26.44,13.98,2.01,4.17,2.47,9.15.54,13.43-1.82,4.03-5.57,7.53-10.09,8.08-2.09.25-3.22,1.71-2.89,3.8.95,6.05-3.39,13.5-7.46,18.05-5.05,5.65-11.77,9.68-19.18,11.33-8.27,1.83-17.02.62-24.83-2.5-4.1-1.63-8-3.87-11.54-6.5-1.26-.94-2.83-1.95-3.68-3.19-.55-.8-.91-1.82-1.35-2.69-.89-1.77-3.4-1.87-4.71-.61-11,10.59-26.23,16.25-41.49,15.2-7.35-.51-14.62-2.65-21.13-6.07-3.27-1.72-6.41-3.73-9.26-6.08-1.47-1.21-2.88-2.5-4.22-3.86-.11-.11-1.66-2.01-.95-.61-.19-.38-.24-.9-.35-1.31-.59-2.2-3.42-2.89-5.01-1.32-11.46,11.26-27.41,17.43-43.48,16.52-7.89-.44-15.72-2.63-22.74-6.24-6.24-3.21-11.26-7.55-16.34-12.29-1.51-1.41-3.57-.98-4.71.61-7.42,10.34-18.9,17.43-31.42,19.62-13.21,2.31-27.44-1.48-37.95-9.74.29.71.59,1.41.88,2.12l-.34-2.59c-.28-2.17-2.35-3.85-4.51-2.59-8.62,5.01-19.24,9.32-29.32,6.59-7.92-2.14-15.06-9.02-14.79-17.63.03-1.05-.6-2.06-1.49-2.59-.59-.35-1.18-.7-1.77-1.05-.87-.52-2.17-.59-3.03,0-8.98,6.21-20.19,9.13-31.04,7.3-5.19-.88-10.16-2.68-14.7-5.36-2.27-1.34-4.42-2.87-6.4-4.62-.51-.46-1.02-.93-1.51-1.41-.17-.16-1.54-1.54-.72-.29-.31-.47-.42-1.19-.6-1.72-.64-1.82-2.63-2.81-4.41-1.79-14.15,8.09-30.74,13.49-47.15,13.76-7.7.13-14.33-2.77-17.52-10.13-3.24-7.49-1.09-15.89,2.84-22.65l-1.79,1.38,2.44-.81c1.63-.54,2.42-2.02,2.1-3.69-1.2-6.23-2.62-13.22.22-19.23,2.56-5.42,8.35-7.46,13.95-8.06,12.26-1.33,25.28,3.22,30.65,15,1.6,3.51,6.77.46,5.18-3.03h0Z"/><path class="cls-4" d="m378.59,1796.91l-41.76,44.64-104.78,111.93-103.12-113.51-39.33-43.29c-26.25-28.91-24.09-74.04,4.81-100.34l8-7.24c28.91-26.3,74.04-24.14,100.29,4.81l31.02,34.12,33.31-35.6c26.7-28.5,71.83-29.98,100.38-3.28l7.87,7.37c28.55,26.7,30.03,71.84,3.33,100.38Z"/><path class="cls-4" d="m378.59,1796.91l-41.76,44.64-104.78,111.93-103.12-113.51-39.33-43.29c-26.25-28.91-24.09-74.04,4.81-100.34l8-7.24c28.91-26.3,74.04-24.14,100.29,4.81l31.02,34.12,33.31-35.6c26.7-28.5,71.83-29.98,100.38-3.28l7.87,7.37c28.55,26.7,30.03,71.84,3.33,100.38Z"/><path class="cls-17" d="m176.55,2463.74c-13.3-29.51-10.75-65.12-28.07-92.46-3.75-5.92-8.59-11.46-15.01-14.26s-14.66-2.26-19.57,2.74c-3.91,3.98-5.08,10-4.49,15.55.6,5.54,2.73,10.78,4.67,16.01.99,2.69,1.41,6.61-1.29,7.56-1.78.62-3.63-.67-4.97-2-10.84-10.68-13.14-29.09-4.97-41.93,8.17-12.84,26.09-18.55,40.05-12.49,13.35,5.79,21.09,19.96,25.17,33.93,4.08,13.97,5.54,28.75,11.32,42.11,2.6-23.7,11.49-46.68,25.51-65.96,3.07-4.22,6.5-8.37,11.08-10.88,6.64-3.64,14.92-3.28,22.01-.63,9.08,3.39,16.74,10.42,20.88,19.18,4.15,8.76,4.73,19.14,1.6,28.31-.95,2.78-2.29,5.54-4.57,7.39-2.28,1.85-5.66,2.58-8.2,1.11-3.04-1.76-3.82-5.91-3.12-9.36.71-3.44,2.52-6.56,3.48-9.94,2.25-7.93-.84-17.1-7.43-22.06-6.59-4.96-16.25-5.38-23.25-1.02-9.36,5.84-12.43,17.78-14.89,28.53-6.33,27.68-13.76,55.11-22.27,82.2-.96.14-1.98-.45-2.34-1.36"/><path d="m177.85,2462.99c-10.28-22.96-10.86-48.7-18.78-72.38-1.93-5.79-4.31-11.45-7.31-16.77-2.95-5.23-6.51-10.35-11.21-14.17s-10.06-6.07-15.98-5.82c-5.56.23-10.79,2.74-13.83,7.51-3.3,5.18-3.47,11.7-2.26,17.54.72,3.49,1.94,6.86,3.18,10.19.79,2.12,2.33,5.04,1.51,7.38-1.06,3.02-4.76-1.08-5.75-2.19-1.78-2.02-3.26-4.29-4.46-6.7-2.4-4.82-3.58-10.24-3.51-15.62.14-10.76,5.62-20.54,14.97-25.96,8.97-5.2,20.42-6.13,29.73-1.3,10.15,5.27,16.55,15.59,20.45,26,4.75,12.69,6.16,26.31,10.09,39.24.96,3.16,2.09,6.27,3.39,9.31.66,1.53,2.65.52,2.8-.76,1.38-12.43,4.53-24.65,9.21-36.24,2.37-5.87,5.18-11.57,8.35-17.05,3.05-5.28,6.4-10.51,10.29-15.22,3.93-4.76,8.73-8.43,14.99-9.29,5.79-.8,11.82.56,17.01,3.15,10.39,5.17,17.81,15.07,19.74,26.52,1.03,6.1.46,12.51-1.65,18.32-.95,2.61-2.4,5.35-4.9,6.75-2.23,1.25-5.23,1.25-6.85-.96-3.56-4.88.96-11.36,2.37-16.14,1.51-5.14.91-10.69-1.28-15.54-4.61-10.18-16.61-15.06-27.13-11.5-10.49,3.55-15.38,14.1-18.14,24.02-1.65,5.93-2.87,11.97-4.3,17.95-1.67,6.98-3.41,13.95-5.22,20.9-3.58,13.74-7.43,27.41-11.56,40.99-1,3.28-2.01,6.55-3.03,9.82l1.45-1.1c-.57.04-.79-.11-1.04-.61-.85-1.74-3.43-.22-2.59,1.51.67,1.38,2.11,2.2,3.63,2.1.69-.04,1.24-.44,1.45-1.1,8.69-27.69,16.06-55.71,22.67-83.96,2.34-10.01,5.58-22.18,15.76-26.94,4.97-2.32,11.07-2.31,16.07-.09,5.01,2.23,8.68,6.66,10.25,11.88.79,2.63,1.07,5.44.7,8.17-.41,3.05-1.76,5.82-2.85,8.66-1.83,4.77-2.61,11.8,2.65,14.82,5.42,3.11,11.23-1.25,13.61-6.06,2.78-5.6,3.74-12.27,3.32-18.47-.82-12.15-7.25-23.22-17.34-30.03-9.71-6.55-23.7-9.19-33.74-1.85-5.04,3.69-8.72,8.98-12.16,14.11-3.6,5.37-6.81,10.99-9.62,16.81-5.55,11.5-9.56,23.74-11.8,36.31-.55,3.1-.99,6.22-1.34,9.35.93-.25,1.86-.5,2.8-.76-5.65-13.18-7.1-27.62-11.04-41.31-3.2-11.13-8.51-22.48-17.59-30.02-4.23-3.51-9.2-6.14-14.6-7.22-5.29-1.06-10.8-.79-15.99.64-10.58,2.93-19.46,10.6-23.1,21.05-3.6,10.33-2.03,22.44,3.95,31.58,1.55,2.38,3.43,4.81,5.69,6.55s5.57,2.3,7.39-.3c1.38-1.97,1.07-4.74.43-6.91-1-3.41-2.52-6.67-3.53-10.09-1.77-5.99-2.52-12.9.85-18.5,2.99-4.97,8.8-6.85,14.35-6.25,12.59,1.36,20.36,14.69,25.04,25.06,10.55,23.36,10.85,49.76,19.26,73.81,1.03,2.94,2.19,5.84,3.46,8.69.79,1.76,3.37.23,2.59-1.51h0Z"/><path class="cls-8" d="m346.29,2464.47c-1.94,1.59-4.83,1.3-6.42-.64l-22.43-27.41-20.68,28.87c-1.46,2.04-4.32,2.52-6.36,1.05-2.04-1.46-2.51-4.32-1.05-6.36l22.11-30.87-24.13-29.49c-1.59-1.94-1.3-4.84.64-6.42.85-.69,1.87-1.03,2.88-1.03,1.33,0,2.64.57,3.54,1.67l22.57,27.58,20.69-28.89c1.47-2.04,4.33-2.51,6.37-1.05,1.24.89,1.9,2.3,1.9,3.73,0,.92-.27,1.85-.85,2.65l-22.13,30.89,23.99,29.31c1.59,1.94,1.3,4.84-.64,6.42Z"/><rect class="cls-13" x="829.46" y="2.96" width="1919" height="1080"/><rect class="cls-16" x="829.46" y="2.96" width="1919" height="1080"/><g class="cls-26"><path class="cls-18" d="m831.78,1087.99c-1.15-3.45-2.3-6.91-3.45-10.36l.2,3.62c4.99-111.01,4.45-222.28-1.6-333.24l-.33-.17c1.46-1.43,2.91-2.86,4.37-4.29-1.36.93-2.72,1.86-4.08,2.79-.04-4.02,1.81-8.01,4.89-10.59l-5.75,20.59c2.16-16.8,15.59-30.51,31.09-37.36,15.49-6.84,32.86-7.93,49.8-8.11,9.7-.11,19.56.07,28.85,2.9,9.28,2.83,18.05,8.66,22.37,17.35l-15.1-13.2c6.72-49.95,50.55-92.43,100.68-97.6,50.13-5.17,101.7,27.48,118.48,75l-1.56-8.91c18.87-12.09,44.11-13.49,64.21-3.57,20.1,9.92,34.34,30.81,36.22,53.14l-1.29-20.89c28.75-13.88,65.87-7.91,88.82,14.28,22.95,22.19,30.17,59.09,17.27,88.29l5.75-18.32c8.84-.85,17.95,1.35,25.43,6.14l1.74,1.72c.79-14.7,11.3-28.41,25.3-32.98,14-4.57,30.57.29,39.89,11.7l-3.25-7.91c-5.15-19.43,8.09-40.02,25.73-49.67,17.64-9.65,38.55-10.8,58.65-11.06,14.2-.18,28.68.01,42.17,4.45,13.49,4.43,26.06,13.78,31.02,27.09l2.08-.33c45.95-19.25,103.56-5.79,136.22,31.84l1.38-3c56.54-36.44,127.99-48.91,193.53-33.8,65.54,15.11,124.31,57.62,159.19,115.14l.44-.32c3.5,76.01.28,152.33-9.62,227.77"/><path d="m833.23,1087.59c-1.15-3.45-2.3-6.91-3.45-10.36-.51-1.53-3.04-1.37-2.95.4l.2,3.62c.11,1.92,2.91,1.94,3,0,4-89.83,4.45-179.82,1.26-269.68-.44-12.29-.94-24.58-1.51-36.87-.3-6.36-.61-12.71-.94-19.06-.12-2.36,1.05-7.78-1.48-9.09.1.79.2,1.57.3,2.36,1.46-1.43,2.91-2.86,4.37-4.29,1.19-1.16-.38-3.34-1.82-2.36-1.36.93-2.72,1.86-4.08,2.79.75.43,1.5.86,2.26,1.3.27-3.97,1.61-6.76,4.46-9.53-.84-.49-1.67-.97-2.51-1.46-1.92,6.86-3.83,13.73-5.75,20.59l2.89.8c4.08-26.46,30.1-39.5,54.2-42.81,12.98-1.79,26.76-2.3,39.82-1.2,14.01,1.18,28.27,6.14,35.34,19.16.79-.61,1.57-1.21,2.36-1.82-4.12-3.6-8.25-7.21-12.37-10.81-3.01-2.63-2.24-2.25-1.47-6.31,1.01-5.34,2.46-10.6,4.28-15.72,7.39-20.79,21.26-39.17,38.69-52.62,36.6-28.26,85.5-30.28,124.83-6.21,21.69,13.28,38.9,33.36,47.61,57.34.66,1.83,3.23,1.1,2.89-.8-.29-1.65-2.08-6.72-1.42-8.13.13-.28,3.15-1.45,4.47-2.11,3.21-1.63,6.56-2.96,10-4.01,12.73-3.89,26.6-3.88,39.28.2,24.01,7.72,41.12,30.25,43.6,55.11.19,1.89,3.12,1.95,3,0-.28-4.51-.56-9.02-.84-13.54-.1-1.6-.95-5.02-.4-6.52.34-.93,7.11-2.8,9.31-3.46,18.73-5.71,39.61-3.94,57.27,4.46,36.6,17.42,52.41,63.04,36.67,99.98.91.39,1.83.77,2.74,1.16,1.64-5.22,3.28-10.44,4.92-15.67.13-.43.38-2.15.76-2.41-.06.04,7.43.98,8.44,1.15,5.78.93,12.07,2.96,16.3,7.13.98.97,2.46.2,2.56-1.06,1.17-14.4,11.03-27.63,25.08-31.79,13.62-4.04,28.4.98,37.54,11.58.94,1.09,3.08-.07,2.51-1.46-1.92-4.66-3.88-8.79-4.23-13.91-.58-8.43,2.14-16.71,6.6-23.78,10.21-16.19,28.06-23.97,46.36-26.92,18.33-2.95,38.58-3.46,57.01-1.16,18.71,2.34,38.22,10.92,45.69,29.47.33.82.96,1.19,1.85,1.05,4.85-.77,9.48-3.23,14.23-4.59,6.34-1.82,12.85-3.08,19.41-3.76,12.68-1.33,25.57-.61,38.04,2.02,25.1,5.29,48.15,18.2,65.16,37.46.6.68,1.96.55,2.36-.3,2.11-4.59,7.57-6.7,11.84-9.15,6.21-3.55,12.57-6.82,19.06-9.82,12.87-5.94,26.25-10.76,39.93-14.46,26.11-7.06,53.33-9.99,80.35-8.56,52.63,2.77,103.42,22.96,144.23,56.2,22.18,18.06,41.17,39.74,56.1,64.13.39.64,1.39,1.03,2.05.54l.44-.32c-.75-.43-1.5-.86-2.26-1.3,3.43,76.05.21,152.28-9.62,227.77-.25,1.91,2.75,1.89,3,0,9.83-75.49,13.05-151.72,9.62-227.77-.05-1.03-1.28-2.01-2.26-1.3l-.44.32c.68.18,1.37.36,2.05.54-27.37-44.73-68.54-80.46-116.62-101.42-50.62-22.06-107.63-26.38-161.21-13.33-15.41,3.75-30.48,8.94-44.93,15.47-7.17,3.24-14.18,6.81-21.01,10.71-4.99,2.85-10.47,4.89-12.92,10.22.79-.1,1.57-.2,2.36-.3-17.32-19.61-40.93-32.83-66.49-38.23-12.73-2.69-25.89-3.47-38.83-2.12-5.92.62-11.79,1.65-17.55,3.15-5.65,1.47-11.17,4.41-16.89,5.32.62.35,1.23.7,1.85,1.05-6.94-17.23-23.59-27.01-41.2-30.51-10.99-2.19-22.28-2.27-33.44-2.13-10.61.14-21.26.52-31.75,2.24-18.78,3.07-36.9,11.13-47.65,27.5-4.54,6.92-7.48,15.02-7.6,23.35-.1,6.48,2.02,11.62,4.42,17.46l2.51-1.46c-10.21-11.83-27.27-17.11-42.21-11.78-14.53,5.18-24.31,18.94-25.54,34.12l2.56-1.06c-7.1-7-18.64-8.97-28.23-8.3-.69.05-1.24.44-1.45,1.1-1.92,6.11-3.83,12.21-5.75,18.32-.5,1.59,2.07,2.74,2.74,1.16,12.82-30.08,6.21-67.18-17.5-90.11-23.71-22.92-61-28.34-90.64-14.51-.44.21-.77.81-.74,1.3.43,6.96.86,13.93,1.29,20.89h3c-2.2-22.01-14.99-42.37-34.49-53.13-21.19-11.69-47.77-10.34-68.2,2.27-.61.38-.81,1.02-.69,1.69.52,2.97,1.04,5.94,1.56,8.91l2.89-.8c-15.81-43.51-59-74.72-105.25-76.55-46.56-1.85-90.54,28.76-108.85,70.96-2.45,5.66-4.46,11.5-5.93,17.49-.75,3.07-3.15,9.3-1.57,12.23,1.36,2.51,5.83,5.1,7.94,6.95,2.36,2.06,4.72,4.13,7.08,6.19,1.26,1.1,3.2-.27,2.36-1.82-6.18-11.38-17.89-17.52-30.33-19.7-15.38-2.69-32.41-1.82-47.83.29-25.18,3.45-52.44,17.41-56.69,44.98-.29,1.86,2.36,2.71,2.89.8,1.92-6.86,3.83-13.73,5.75-20.59.41-1.46-1.44-2.5-2.51-1.46-3.38,3.29-5.02,6.96-5.33,11.65-.07,1.1,1.34,1.92,2.26,1.3,1.36-.93,2.72-1.86,4.08-2.79-.61-.79-1.21-1.57-1.82-2.36-1.46,1.43-2.91,2.86-4.37,4.29-.66.65-.55,1.91.3,2.36.51.27.31,12.68.38,14.12.3,5.93.58,11.86.84,17.79.47,10.59.9,21.19,1.27,31.79.76,21.62,1.31,43.24,1.65,64.87.68,43.26.53,86.53-.46,129.78-.56,24.59-1.41,49.18-2.5,73.76h3l-.2-3.62c-.98.13-1.96.27-2.95.4,1.15,3.45,2.3,6.91,3.45,10.36.61,1.82,3.51,1.04,2.89-.8h0Z"/></g><path class="cls-1" d="m2617.54,974.36h-36.77c0-48.6-9.21-95.76-27.39-140.17-17.57-42.93-42.72-81.48-74.76-114.6-32.08-33.16-69.46-59.2-111.09-77.4-43.16-18.87-88.99-28.43-136.24-28.43s-93.09,9.57-136.24,28.43c-41.63,18.2-79.01,44.24-111.09,77.4-32.04,33.12-57.19,71.67-74.76,114.6-18.17,44.41-27.39,91.57-27.39,140.17h-36.77c0-53.4,10.14-105.24,30.13-154.1,19.35-47.27,47.06-89.75,82.36-126.24,35.43-36.62,76.74-65.4,122.79-85.53,47.83-20.91,98.62-31.51,150.97-31.51s103.14,10.6,150.97,31.51c46.05,20.13,87.36,48.91,122.79,85.53,35.31,36.49,63.02,78.97,82.36,126.24,19.99,48.85,30.13,100.7,30.13,154.1Z"/><path class="cls-11" d="m2733.58,915.8c.05-26.91,1.99-55.01,11.09-80.53.43-1.21.92-2.36,1.44-3.49-6.06-22.79-13.58-45.22-22.59-67.22-26.46-64.67-64.41-122.81-112.78-172.81-48.83-50.47-105.88-90.18-169.58-118.02-66.52-29.08-137.14-43.83-209.89-43.83s-143.37,14.75-209.89,43.83c-63.7,27.85-120.75,67.56-169.58,118.02-48.37,50-86.32,108.14-112.78,172.81-27.26,66.62-41.08,137.21-41.08,209.8h36.77c0-67.79,12.9-133.7,38.34-195.87,24.68-60.32,60.07-114.54,105.18-161.17,45.48-47.01,98.6-83.98,157.88-109.9,61.85-27.04,127.51-40.75,195.16-40.75s133.31,13.71,195.16,40.75c59.28,25.92,112.4,62.89,157.88,109.9,45.11,46.62,80.49,100.85,105.18,161.17,25.44,62.18,38.34,128.08,38.34,195.88h7.44c-.56-19.52-1.75-39.02-1.71-58.56Z"/><path class="cls-10" d="m2727.85,974.36h-36.77c0-63-11.98-124.21-35.61-181.95-22.9-55.97-55.73-106.28-97.57-149.52-42.13-43.54-91.31-77.79-146.18-101.77-57.18-25-117.88-37.67-180.43-37.67s-123.25,12.67-180.43,37.67c-54.87,23.99-104.05,58.23-146.18,101.77-41.84,43.25-74.67,93.55-97.57,149.52-23.63,57.74-35.61,118.95-35.61,181.95h-36.77c0-67.79,12.9-133.7,38.34-195.87,24.68-60.32,60.07-114.54,105.18-161.17,45.48-47.01,98.6-83.98,157.88-109.9,61.85-27.04,127.51-40.75,195.16-40.75s133.31,13.71,195.16,40.75c59.28,25.92,112.4,62.89,157.88,109.9,45.11,46.62,80.49,100.85,105.18,161.17,25.44,62.18,38.35,128.08,38.35,195.87Z"/><path class="cls-6" d="m2691.08,974.36h-36.77c0-58.2-11.06-114.73-32.87-168.02-21.12-51.62-51.39-98.01-89.97-137.88-38.78-40.08-84.03-71.59-134.49-93.65-52.5-22.95-108.25-34.59-165.7-34.59s-113.2,11.64-165.7,34.59c-50.46,22.06-95.71,53.57-134.49,93.65-38.57,39.87-68.84,86.26-89.97,137.88-21.81,53.29-32.87,109.83-32.87,168.02h-36.77c0-63,11.98-124.21,35.61-181.95,22.9-55.97,55.73-106.28,97.57-149.52,42.13-43.54,91.31-77.79,146.18-101.77,57.18-25,117.88-37.67,180.43-37.67s123.25,12.67,180.43,37.67c54.87,23.99,104.05,58.23,146.18,101.77,41.84,43.25,74.67,93.55,97.57,149.52,23.63,57.74,35.61,118.95,35.61,181.95Z"/><path class="cls-7" d="m2654.31,974.36h-36.77c0-53.4-10.14-105.24-30.13-154.1-19.34-47.27-47.06-89.75-82.36-126.24-35.43-36.62-76.74-65.4-122.79-85.53-47.83-20.91-98.62-31.51-150.97-31.51s-103.14,10.6-150.97,31.51c-46.05,20.13-87.36,48.91-122.79,85.53-35.31,36.49-63.02,78.97-82.36,126.24-19.99,48.85-30.13,100.7-30.13,154.1h-36.77c0-58.2,11.06-114.73,32.87-168.02,21.12-51.62,51.39-98.01,89.97-137.88,38.78-40.08,84.03-71.59,134.49-93.65,52.5-22.95,108.25-34.59,165.7-34.59s113.2,11.64,165.7,34.59c50.46,22.06,95.71,53.57,134.49,93.65,38.57,39.87,68.84,86.26,89.97,137.88,21.81,53.29,32.87,109.83,32.87,168.02Z"/><path class="cls-15" d="m2617.54,974.36h-36.77c0-48.6-9.21-95.76-27.39-140.17-17.57-42.93-42.72-81.48-74.76-114.6-32.08-33.16-69.46-59.2-111.09-77.4-43.16-18.87-88.99-28.43-136.24-28.43s-93.09,9.57-136.24,28.43c-41.63,18.2-79.01,44.24-111.09,77.4-32.04,33.12-57.19,71.67-74.76,114.6-18.17,44.41-27.39,91.57-27.39,140.17h-36.77c0-53.4,10.14-105.24,30.13-154.1,19.35-47.27,47.06-89.75,82.36-126.24,35.43-36.62,76.74-65.4,122.79-85.53,47.83-20.91,98.62-31.51,150.97-31.51s103.14,10.6,150.97,31.51c46.05,20.13,87.36,48.91,122.79,85.53,35.31,36.49,63.02,78.97,82.36,126.24,19.99,48.85,30.13,100.7,30.13,154.1Z"/><path class="cls-12" d="m2580.77,974.36h-36.77c0-43.8-8.29-86.27-24.65-126.24-15.79-38.58-38.38-73.22-67.15-102.96-28.73-29.7-62.17-53.01-99.39-69.28-38.48-16.82-79.36-25.35-121.51-25.35s-83.03,8.53-121.51,25.35c-37.22,16.27-70.66,39.58-99.39,69.28-28.77,29.74-51.37,64.38-67.15,102.96-16.36,39.97-24.65,82.44-24.65,126.24h-36.77c0-48.6,9.21-95.76,27.39-140.17,17.57-42.93,42.72-81.48,74.76-114.6,32.08-33.16,69.46-59.2,111.09-77.4,43.16-18.87,88.99-28.43,136.24-28.43s93.09,9.57,136.24,28.43c41.63,18.2,79.01,44.24,111.09,77.4,32.04,33.12,57.19,71.67,74.76,114.6,18.17,44.41,27.39,91.57,27.39,140.17Z"/><path class="cls-5" d="m2747.46,674.96l1,408-1439-1-.24.3c4.18-11.76,14.92-20.24,26.58-24.71,11.66-4.46,24.31-5.48,36.75-6.45l-2.07,1.69c-1.35-19.13,3.93-38.66,14.71-54.51,10.79-15.85,27.02-27.92,45.31-33.68,16.47-5.19,34.05-5.31,51.32-5.39,10.9-.05,21.95-.08,32.46,2.81,9.95,2.73,19.29,8.2,25.74,16.26l-.97.67c6.01-16,17.78-29.77,32.66-38.2,14.87-8.43,32.74-11.44,49.55-8.37l-.25.52c2.51-22.43,11.1-44.16,24.61-62.24,13.51-18.09,31.9-32.49,52.7-41.26,24.61-10.38,51.78-12.79,78.47-13.8l-1.57-.5c21.34,1.89,43.21,4.92,61.84,15.49,16.23,9.21,28.89,23.53,40.38,38.23,8.21,10.5,16.36,22.52,15.61,35.83l-7.55,6.63c9.42-9.18,23.72-10.66,36.86-11.26,14.14-.65,28.37-.86,42.39,1.12s27.88,6.24,39.74,13.97l-8.24-7.4c12.65-18.49,31.78-32.45,53.25-38.86l-5.9,1.01c18.37-6.66,37.48-11.77,57-12.76,19.52-.99,39.54,2.3,56.72,11.62l-3.97-2.86c.21-5.03,3.07-9.67,6.86-12.99,3.79-3.32,8.44-5.47,13.12-7.33,19.93-7.94,41.66-11.34,63.06-9.87l-6.15-1.43c1.44-18.68,9.22-36.82,21.75-50.75,12.53-13.93,29.75-23.58,48.17-26.98l-5.85.47c-7.3-5.68-10.35-15.68-9.3-24.87,1.05-9.19,5.69-17.63,11.4-24.91,11.74-14.98,28.53-26.03,47.04-30.45,18.51-4.43,38.63-2.12,55.46,6.77l1.25.04c9.49-14.59,19.96-29.81,35.85-36.9,9.04-4.03,19.18-5.07,29.06-4.47s19.58,2.79,29.24,4.96l1.07,1.04c2.22-14.83,10.75-28.32,22.19-38.03,11.44-9.7,26.88-12.36,40.21-19.22,37.46-19.27,100.34,10.79,89.68,7.02-4.55-1.61,24.42,7.95,37,25,12.11,16.41,20,39,15.1,62.82l-1.24-.78c13.72-10.78,32.66-14.58,49.48-9.92l-.81-.41c2.16.62,4.31,1.23,6.47,1.85"/><path class="cls-9" d="m966.91,793.47c-14-6.48-30.25-8.01-45.21-4.24-14.97,3.77-28.55,12.8-37.82,25.14l7.91,7.83c-17.17-14.35-43.37-16.74-62.85-5.73l-.49.49,1,190,.28.12c22.69-.2,45.22-8.83,62.23-23.85l-6.69-3.79c32.52,22.45,75.46,29.08,113.23,17.47l-9.68-9.34c11.42,15.11,29.78,24.08,48.57,26.49,18.78,2.41,37.95-1.27,55.71-7.86,17.75-6.59,34.29-16.03,50.68-25.53l-8.77-6.22c13.35,11.13,32.1,15.44,48.97,11.27,16.87-4.18,31.44-16.74,38.06-32.8l-12.24-9.81c5.44,7.93,14.67,12.67,24.12,14.45,9.45,1.78,19.19.9,28.71-.47,10.14-1.46,20.56-3.62,28.83-9.66,13.12-9.56,18.2-28,13.81-43.63s-17.13-28.15-32.1-34.43c-14.97-6.27-31.92-6.77-47.86-3.73l1.82-.54c1.87-14.21-4.5-28.79-14.92-38.62-10.43-9.83-24.48-15.23-38.7-17.04-14.22-1.81-28.66-.26-42.75,2.38l.55,2.13c1.38-9.09-.9-18.49-5.24-26.6-4.34-8.11-10.64-15.02-17.51-21.12-23.6-20.94-55.77-33.05-87.08-29.15-31.31,3.89-60.75,25.09-71.16,54.87"/><path class="cls-23" d="m2373.15,512.68c-5.96,3.11-12.26,5.8-18.93,6.66s-13.79-.25-19.25-4.18-8.9-10.94-7.54-17.52l5.08,14.86c-9.51,8.72-24.16,17.14-37.06,17.47-5.9.15-12.74-6.92-17-11-3.26-3.12-3.32-7.57-3.02-12.07s1.97-8.79,3.81-12.91l-4.55,12.24c-13.37,4.17-16.53,5.46-24.24,3.73-27.46-6.19-23.49-35.97-15-48,5.85-8.28,22.85-11.43,32.9-10.15l-.11-2.48c-3.16-11.69,4.82-23.54,14.03-31.41,14.65-12.52,34.34-19.99,53.4-17.11,19.06,2.88,36.65,17.4,40.27,36.33l-.7,2.26c11.42-12.65,30.67-17.56,46.76-11.92,16.08,5.64,28.05,21.5,29.07,38.51l1.92,1.99c5.45-7.39,17.12-8.17,24.76-3.08,7.64,5.09,11.47,14.56,11.84,23.74.42,10.25-3.26,20.91-10.99,27.66s-19.67,8.83-28.63,3.83c-8.96-4.99-13.41-17.38-8.54-26.41l-1.58,16.01c-15.16,12.61-37.46,15.96-55.66,8.35-8.97-3.75-17.66-11.43-17.49-21.15"/><path d="m2372.4,511.38c-7.05,3.67-14.71,6.83-22.8,6.73-7.2-.09-14.59-2.93-18.49-9.28-1.98-3.21-2.94-7.05-2.22-10.79h-2.89c1.69,4.95,3.39,9.9,5.08,14.86l.39-1.46c-8.35,7.61-18.8,13.98-29.96,16.31-2.33.48-5.09,1.06-7.46.61s-4.43-1.77-6.32-3.15c-2.07-1.5-3.97-3.26-5.82-5.02-1.77-1.69-3.7-3.25-4.47-5.66-.91-2.9-.76-6.33-.3-9.3.55-3.65,1.93-7.12,3.43-10.47l-2.74-1.16c-1.52,4.08-3.04,8.16-4.55,12.24l1.05-1.05c-4.69,1.46-9.4,3.19-14.24,4.08-3.27.6-6.49.3-9.71-.47-7.51-1.8-14.06-6.1-17.35-13.25-2.73-5.93-2.88-12.91-1.61-19.22,1.16-5.76,3.45-12.41,8.27-16.14,3.99-3.09,9.06-4.71,13.94-5.71,4.82-.99,9.86-1.36,14.76-.76.78.1,1.53-.77,1.5-1.5-.07-1.55-.24-2.93-.52-4.45-.46-2.51-.37-5.13.15-7.62,1.11-5.3,3.95-10.13,7.39-14.25,6.98-8.36,16.67-14.83,26.71-18.92,10.07-4.1,21.24-5.98,32.04-4.26,9.41,1.5,18.38,5.79,25.45,12.19,3.92,3.55,7.25,7.71,9.7,12.4,1.22,2.33,2.2,4.77,2.92,7.29.18.64.35,1.28.5,1.92.05.2.07.51.16.71.06.49.1.47.13-.05l-.05.16c-.34.54-.45,1.44-.64,2.06-.44,1.41,1.5,2.57,2.51,1.46,9.39-10.3,24.05-15.44,37.85-13.37,13.76,2.06,25.43,11.39,31.42,23.81,1.67,3.46,2.85,7.16,3.51,10.94.16.89.28,1.79.37,2.69s-.01,1.82.57,2.55,1.27,1.32,1.9,1.97c.73.76,1.79.44,2.36-.3,5.04-6.68,15.41-7.03,22.14-2.9,8.21,5.04,11.75,15.36,11.7,24.58-.05,9.6-3.85,19.67-11.6,25.67-7.27,5.62-18.11,7.32-26.23,2.5s-11.96-15.76-7.56-24.11c-.93-.25-1.86-.5-2.8-.76-.53,5.34-1.05,10.67-1.58,16.01l.44-1.06c-8.7,7.18-19.81,11.27-31.05,11.87-10.76.57-22.65-1.83-31.25-8.66-4.64-3.68-8.33-8.82-8.29-14.95.01-1.93-2.99-1.93-3,0-.05,8.41,5.79,15.21,12.57,19.5,7.14,4.52,15.77,6.69,24.15,7.11,8.54.43,17.2-1.08,25.08-4.37,3.95-1.65,7.7-3.71,11.15-6.24,1.16-.85,2.97-1.79,3.2-3.29.1-.63.13-1.28.19-1.92.46-4.67.92-9.34,1.38-14.01.15-1.5-2.13-2.02-2.8-.76-4.51,8.58-1.66,19.62,5.48,25.89,8,7.03,20.03,6.91,29.07,1.99,9.82-5.35,15.28-16.22,16.28-27.07.95-10.37-2.23-22.09-10.61-28.81-8.35-6.7-21.88-6.71-28.65,2.26l2.36-.3c-.64-.66-1.28-1.33-1.92-1.99l.44,1.06c-.88-13.7-8.31-26.46-19.44-34.4-11.36-8.11-26.15-9.93-39.36-5.68-7.46,2.39-14.3,6.63-19.58,12.43l2.51,1.46c.19-.6.39-1.2.56-1.81.29-1.03,0-1.99-.24-3.02-.59-2.46-1.44-4.85-2.46-7.16-2.04-4.61-4.94-8.83-8.37-12.51-6.88-7.38-16.02-12.69-25.81-15.09-11.14-2.73-23.04-1.64-33.83,2.06-10.84,3.72-21.25,10.01-29.24,18.27-4.45,4.61-8.3,10.09-10.16,16.28-.86,2.88-1.27,5.95-1.01,8.95.11,1.29.48,2.58.64,3.81.1.73.06,1.49.1,2.22l1.5-1.5c-5.49-.68-11.19-.13-16.58,1.08-5.44,1.23-11.07,3.31-15.25,7.11-2.89,2.64-4.72,6.33-6.11,9.94-1.49,3.87-2.37,7.98-2.68,12.11-.64,8.65,1.71,17.76,8.24,23.81,6.96,6.45,17.47,9.17,26.67,7.01,2.92-.69,5.78-1.61,8.64-2.51.87-.27,1.75-.55,2.62-.82.98-.31,1.79-.43,2.23-1.42.14-.31.24-.65.36-.97,1.28-3.45,2.57-6.91,3.85-10.36.11-.3.22-.6.34-.91.59-1.58-2.05-2.71-2.74-1.16-2.77,6.2-4.86,12.77-3.94,19.65.38,2.86,1.52,5.33,3.6,7.35,1.96,1.9,3.93,3.81,6.03,5.56,2.16,1.8,4.46,3.51,7.06,4.62,2.46,1.05,4.82,1.15,7.46.87,6.32-.68,12.39-2.85,18.04-5.71,6.3-3.18,12.16-7.27,17.37-12.02.37-.34.55-.98.39-1.46-1.69-4.95-3.39-9.9-5.08-14.86-.44-1.29-2.59-1.56-2.89,0-1.48,7.71,2.49,15.45,8.92,19.69,7.22,4.76,16.5,5,24.65,2.88,5.01-1.3,9.77-3.46,14.35-5.85,1.71-.89.2-3.48-1.51-2.59h0Z"/><path class="cls-14" d="m993.47,407.15c-.6-16.51-11.74-31.36-25.93-39.82-14.18-8.46-31.03-11.35-47.53-12.06-14.11-.61-28.85.42-41.18,7.33-12.32,6.91-21.5,21-18.91,34.89l8.78,8.88c-3.34-6.52-11.12-9.78-18.44-9.81s-14.37,2.59-21.23,5.17l.42.23,2,108h.01c1.77,11.55,11.48,20.24,21.56,26.18,29.14,17.15,66.71,19.06,97.43,4.93l-6.36-17.57c-.09,9.46,5.42,18.34,12.82,24.23,7.4,5.89,16.52,9.19,25.66,11.65,17.55,4.73,36.32,6.71,53.83,1.84,17.51-4.87,33.53-17.48,39.07-34.78l-15.91-6.7c18.77,10.69,43.81,9.1,61.09-3.86l-9.79-14.01c12.83,22.42,43.43,32.66,67.17,22.48s37.42-39.41,30.02-64.16c-7.4-24.75-34.86-41.68-60.3-37.17l-2.36,13.66c4.7-9.19,3.4-20.85-2.33-29.44-5.73-8.58-15.43-14.12-25.61-15.84s-20.76.15-30.27,4.16l9.37,10.01c-12.11-17.58-30.97-30.4-51.77-35.2s-43.37-1.53-61.96,8.97"/><path class="cls-19" d="m1238.46,190.5c-3.38-7.2.47-16.14,6.76-21.01,6.29-4.87,14.38-6.61,22.2-8.05,4.4-.81,9.61-1.34,12.73,1.88l-2.86,11.07c-.27-7.15,4.6-13.75,10.79-17.35,6.19-3.6,13.49-4.7,20.63-5.23,11.72-.87,23.82-.36,34.73,4.04s20.5,13.17,23.62,24.51l-9.33,7.06c4.75-4.83,11.83-6.77,18.6-6.68s13.37,2,19.88,3.89c6.95,2.02,14.27,4.27,19.1,9.66,5.45,6.09,6.54,15.02,5.45,23.12-1.31,9.73-5.51,19.18-12.44,26.14-6.93,6.96-16.65,11.26-26.47,10.95l.29-7.53c-.19,7.28-.7,15.33-5.87,20.46-3.89,3.86-9.75,5.19-15.21,4.76-5.46-.43-10.67-2.41-15.79-4.37l2.46-9.84c-.61,7.56-6.07,14.13-12.79,17.64-6.73,3.5-14.55,4.32-22.12,4.06-8.6-.29-17.4-1.99-24.57-6.76-7.16-4.77-12.39-13.05-11.76-21.63l4.2-4.74c-11.46,9.85-28.36,12.89-42.53,7.65-14.17-5.24-25.03-18.55-27.32-33.48-1.08-7.04-.21-14.73,4.15-20.36,3.91-5.04,10.18-7.84,16.49-8.76,6.31-.91,12.74-.14,19.05.83"/><path d="m1239.75,189.75c-2.95-6.52.64-14.14,5.68-18.51,6.12-5.29,14.67-6.95,22.38-8.36,3.65-.67,8.35-1.38,11.27,1.49l-.39-1.46c-.95,3.69-1.91,7.38-2.86,11.07.98.13,1.96.27,2.95.4-.17-6.72,4.28-12.64,9.88-15.96,6.61-3.92,14.54-4.8,22.07-5.26,14.72-.88,30.58.7,42.6,10.06,5.74,4.47,10.28,10.48,12.27,17.52l.69-1.69c-3.11,2.35-6.22,4.71-9.33,7.06l1.82,2.36c6.81-6.78,17.16-7.06,26.03-5.27,4.94,1,9.81,2.44,14.61,3.94,4.19,1.31,8.41,2.88,11.95,5.55,7.29,5.47,8.94,14.97,8.02,23.54-.96,8.95-4.61,17.85-10.6,24.6-6.79,7.64-16.66,12.41-26.95,12.15l1.5,1.5c.1-2.51.19-5.02.29-7.53h-3c-.17,6.06-.36,12.99-4.21,18.02-4.15,5.44-11.65,6.48-17.99,5.36-4.41-.78-8.61-2.39-12.77-3.98l1.05,1.85c.82-3.28,1.64-6.56,2.46-9.84-.98-.13-1.96-.27-2.95-.4-.51,5.59-3.89,10.56-8.26,13.93-5.04,3.89-11.44,5.61-17.7,6.11-11.94.97-26.18-.77-35.11-9.53-4.61-4.52-7.59-10.67-7.18-17.21l-.44,1.06,4.2-4.74c1.29-1.46-.65-3.37-2.12-2.12-14.12,12.02-35.64,13-50.64,2.07-7.04-5.13-12.49-12.58-15.18-20.86-2.77-8.51-3.19-19.43,3.25-26.47,8.34-9.13,22.01-8.04,33.08-6.35,1.89.29,2.7-2.6.8-2.89-11.04-1.69-23.51-2.75-32.98,4.41-8.63,6.53-10.28,17.83-8.17,27.88,1.96,9.29,7.15,17.88,14.26,24.14,7.37,6.49,16.65,10.31,26.47,10.78,11.29.54,22.63-3.25,31.24-10.58l-2.12-2.12c-1.2,1.36-2.4,2.71-3.61,4.07-.7.79-1.04,1.35-1.07,2.49-.06,1.82.14,3.65.53,5.43,1.59,7.17,6.59,13.34,12.72,17.2,6.88,4.33,15.11,6.01,23.13,6.44,8.26.44,16.92-.32,24.36-4.2,7.18-3.74,12.79-10.72,13.54-18.93.15-1.7-2.54-2.02-2.95-.4-.82,3.28-1.64,6.56-2.46,9.84-.21.84.27,1.55,1.05,1.85,7.52,2.88,15.53,5.75,23.67,3.89,3.44-.79,6.75-2.46,9.18-5.06,2.38-2.55,3.85-5.77,4.67-9.13.96-3.91,1.14-7.98,1.25-11.99.05-1.93-2.93-1.93-3,0-.1,2.51-.19,5.02-.29,7.53-.03.83.71,1.48,1.5,1.5,9.87.25,19.52-3.82,26.66-10.55,7.24-6.82,11.81-16.28,13.45-26.03,1.53-9.08.71-19.44-5.86-26.49-3.32-3.57-7.76-5.79-12.28-7.46-4.87-1.79-9.95-3.2-14.98-4.43-10.82-2.65-23.67-3.16-32.17,5.32-1.16,1.16.42,3.41,1.82,2.36,3.11-2.35,6.22-4.71,9.33-7.06.54-.41.89-1,.69-1.69-4-14.2-16.9-23.8-30.65-27.56-8.21-2.25-16.83-2.71-25.3-2.32-8.17.37-16.72,1.19-24.08,5.03-7.11,3.71-12.89,10.97-12.68,19.28.04,1.66,2.51,2.08,2.95.4.95-3.69,1.91-7.38,2.86-11.07.13-.52,0-1.08-.39-1.46-3.05-2.99-7.39-3.21-11.41-2.7-4.52.58-9.09,1.55-13.46,2.87-8.31,2.5-16.02,7.25-19.33,15.63-1.69,4.29-1.77,8.99.14,13.21.8,1.76,3.38.23,2.59-1.51h0Z"/><path class="cls-25" d="m2749.32,324.56c-8.95,5.46-21.86,3.06-28.25-5.25l9.39-7.27c-6.63,6.54-13.53,13.27-22.26,16.52-8.73,3.25-19.84,2.07-25.56-5.28l4.46-10.5c-7.7,21.58-27.78,37.5-50,43.09-22.22,5.59-46.14,1.65-66.98-7.87-10.7-4.89-20.99-11.46-27.8-21.05-6.81-9.59-9.58-22.64-4.78-33.38l10.74-5.96c-16.04,6.89-34.64,13.77-50.3,6.04-10.38-5.12-17.04-15.91-19.92-27.11-5.66-22.07,2.52-47.08,20.12-61.55s43.73-17.62,64.28-7.78l.99-.79c6.43-28.32,26.56-53.2,52.92-65.39,26.36-12.19,58.35-11.42,84.09,2.02,13.04,6.81,24.85,17.24,29.99,31.03l-7.75,5.54c5.7-8.26,17.05-12.12,26.61-9.07"/><path d="m2748.57,323.26c-8.56,5.11-20.3,2.79-26.43-5.02v2.12c3.13-2.42,6.26-4.84,9.39-7.27l-2.12-2.12c-9.72,9.6-22.17,21.24-37.08,16.92-3.42-.99-6.39-2.89-8.62-5.68l.23,1.82c1.49-3.5,2.98-7,4.46-10.5l-2.74-1.16c-4.68,12.99-14.01,23.94-25.42,31.57-12.47,8.34-27.12,12.58-42.08,12.96-16.7.42-33.41-3.67-48.48-10.77-13.55-6.38-26.98-16.05-31.53-31.02-1.09-3.58-1.64-7.3-1.5-11.04.07-1.85.31-3.68.75-5.48.2-.83.44-1.64.72-2.45.1-.28.49-.92.45-1.2,0-.05-.06-.43-.27-.1.01-.02.06-.02.08-.04.32-.34,1.02-.57,1.42-.79l2.69-1.49c1.84-1.02,3.68-2.04,5.52-3.06.34-.19.69-.38,1.03-.57,1.73-.96.21-3.33-1.51-2.59-13.93,5.98-30.58,12.73-45.75,7.33-13.48-4.8-21.03-18.79-23.26-32.22-2.2-13.27.54-27.27,7.09-38.96,6.76-12.06,17.58-21.3,30.64-25.91,13.07-4.62,27.66-4.78,40.72-.05,1.62.59,3.2,1.25,4.76,1.99.67.32,1.25.21,1.82-.23.89-.7,1.29-1.08,1.56-2.24.41-1.72.86-3.42,1.37-5.11.97-3.25,2.12-6.45,3.45-9.57,2.66-6.23,6-12.18,9.91-17.72,7.82-11.08,18.02-20.53,29.75-27.35,25.84-15.04,58.94-16.4,86.08-3.92,14.19,6.52,27.7,17.12,33.37,32.13.23-.56.46-1.13.69-1.69-2.58,1.85-5.17,3.69-7.75,5.54l2.05,2.05c5.45-7.74,15.92-11.16,24.91-8.38,1.85.57,2.64-2.32.8-2.89-10.35-3.21-22.09.94-28.3,9.76-.85,1.2.85,2.91,2.05,2.05,2.58-1.85,5.17-3.69,7.75-5.54.5-.36.94-1.04.69-1.69-5.16-13.64-16.28-23.97-28.82-30.93-13.54-7.5-28.97-11.45-44.43-11.82-15.45-.37-30.98,2.87-44.87,9.68-12.52,6.14-23.63,15.17-32.4,26-8.78,10.85-15.34,23.5-18.8,37.03-.1.39-.2.79-.29,1.18-.06.26-.13.53-.19.79,0,.04.37-.4.2-.19-.23.27-.61.49-.89.71l1.82-.23c-13.3-6.31-28.67-7.49-42.88-3.76s-26.65,12.44-34.83,24.69c-7.92,11.87-11.8,26.57-10.49,40.8,1.3,14.12,7.8,29.13,20.57,36.44,14.93,8.53,32.82,3.26,47.61-2.74,1.95-.79,3.89-1.61,5.82-2.44-.5-.86-1.01-1.73-1.51-2.59-3.21,1.78-6.43,3.57-9.64,5.35-.41.23-.89.43-1.26.73-.64.53-.91,1.61-1.19,2.37-.35.93-.64,1.88-.88,2.85-.95,3.77-1.15,7.74-.69,11.6,1.95,16.38,13.99,28.45,27.79,36.2,14.97,8.4,32.16,13.55,49.32,14.42,16.02.81,32.17-2.44,46.16-10.42,12.57-7.17,23.35-17.99,29.39-31.24.74-1.63,1.41-3.29,2.02-4.97.57-1.58-2.07-2.72-2.74-1.16-1.49,3.5-2.98,7-4.46,10.5-.29.69-.23,1.24.23,1.82,4.37,5.48,11.58,7.74,18.41,7.4,7.91-.39,14.91-4.18,21.01-9,3.73-2.95,7.14-6.3,10.52-9.64,1.42-1.4-.64-3.27-2.12-2.12-3.13,2.42-6.26,4.84-9.39,7.27-.69.54-.45,1.55,0,2.12,6.93,8.84,20.45,11.22,30.06,5.49,1.66-.99.15-3.58-1.51-2.59h0Z"/><g class="cls-26"><path class="cls-24" d="m2089.27,1.48c8.83,8.1,11.26,22.36,5.6,32.92l4.59-2.71c14.08-4.74,29.76-3.19,43.63,2.13,8.67,3.32,16.97,8.22,22.78,15.48s8.82,17.1,6.44,26.08c-.88-.68-1.76-1.36-2.64-2.04l3.45-1.82c10.99-8.39,27.24-8.2,38.99-.92,11.75,7.29,18.97,20.72,20.34,34.48.62,6.24.07,12.83-3.1,18.25-4.04,6.91-11.64,10.86-19.04,13.9-7.07,2.91-14.47,5.35-22.11,5.52-7.64.17-15.6-2.18-20.9-7.68l3.05-.94c-5.87,7.78-12.62,15.17-21.2,19.78-15.01,8.06-33.14,6.49-50.09,4.7l3.46-5.51c-12.57,15.52-31.11,26.08-50.88,28.97s-40.55-1.93-57.03-13.21l6.21-9.41c-10.12,9.93-24.49,15.37-38.65,14.63-14.16-.74-27.89-7.64-36.92-18.57l5.57-4.23c-15.66,18.27-43.22,25.19-65.65,16.49-22.43-8.7-38.12-32.39-37.38-56.44.31-9.96,3.44-20.21,10.51-27.23,7.08-7.02,18.56-10.01,27.44-5.48l4.99,1.9c-5.84-2.92-9.57-9.24-10.3-15.73s1.25-13.08,4.57-18.71c5.55-9.41,14.95-16.48,25.53-19.21,10.58-2.72,22.22-1.07,31.63,4.5l-.81,4.25c2.39-11.2,12.56-19.47,23.54-22.73,10.98-3.25,22.72-2.33,34.08-.93l.02-.13c-1.34-3.87,2.06-8.55,6.15-8.47"/><path d="m2088.21,2.54c8.33,7.82,10.66,20.94,5.36,31.1-.67,1.29.71,2.85,2.05,2.05s2.63-1.64,3.99-2.36c2.53-1.33,5.76-1.8,8.57-2.27,7.4-1.22,15.07-.85,22.4.65,13.42,2.74,28.12,9.11,35.9,20.96,4.29,6.55,6.31,14.6,4.38,22.29.84-.22,1.67-.44,2.51-.66-.88-.68-1.76-1.36-2.64-2.04-.1.79-.2,1.57-.3,2.36,3.11-1.64,5.95-3.77,9.15-5.22,5.01-2.27,10.64-3.04,16.1-2.62,11.03.86,20.81,7.03,27.07,16.04,6.23,8.96,9.84,21.04,8.01,31.95-2.07,12.32-12.96,18-23.61,22.1-12.4,4.78-28.38,7.64-38.8-2.87-.22.84-.44,1.67-.66,2.51l3.05-.94c-.56-.73-1.13-1.47-1.69-2.2-8.02,10.58-17.6,19.71-30.77,23.15-12.77,3.34-26.28,1.95-39.23.59.43.75.86,1.5,1.3,2.26,1.15-1.84,2.31-3.67,3.46-5.51.89-1.41-1.26-3.16-2.36-1.82-19.58,23.98-51.85,34.62-81.81,26.63-8.67-2.31-16.86-6.08-24.29-11.11l.54,2.05c2.07-3.14,4.14-6.28,6.21-9.41.96-1.45-1.16-2.98-2.36-1.82-10.1,9.78-24.17,15.07-38.22,14.15-13.62-.89-26.49-7.67-35.23-18.09-.1.79-.2,1.57-.3,2.36,1.86-1.41,3.71-2.82,5.57-4.23l-1.82-2.36c-17.68,20.39-49.65,26.12-72.8,11.79-11.46-7.09-20.27-18.36-24.64-31.09-4.46-13-4.62-28.72,2.94-40.64,4.3-6.78,11.48-11.68,19.61-12.25,5.58-.39,10.38,2.02,15.45,3.95,1.59.61,2.65-1.96,1.16-2.74-5.41-2.83-8.83-8.42-9.56-14.43-.84-7,1.68-14.02,5.51-19.79,7.04-10.59,19.14-17.44,31.85-17.89,7.75-.27,15.41,1.67,22.11,5.55l-.69-1.69c-.27,1.42-.54,2.83-.81,4.25-.36,1.88,2.46,2.7,2.89.8,2.24-9.9,10.47-17.25,19.72-20.74,11.6-4.39,24.41-3.28,36.45-1.81.59.07,1.35-.51,1.45-1.1.12-.72-.16-1.29-.21-2.01-.07-.9.17-1.83.59-2.62.87-1.66,2.47-2.82,4.36-2.87s1.93-3.05,0-3c-2.55.07-4.78,1.29-6.29,3.35-.71.97-1.24,2.08-1.49,3.26-.13.61-.19,1.26-.16,1.89,0,.1.23,1.8.32,1.21l1.45-1.1c-12.88-1.58-26.64-2.61-38.89,2.58-9.53,4.04-17.84,11.83-20.18,22.18l2.89.8c.27-1.42.54-2.83.81-4.25.13-.66-.08-1.34-.69-1.69-12.92-7.5-29.12-7.98-42.33-.9-12.2,6.54-22.73,20.15-21.75,34.57.51,7.41,4.44,14.56,11.13,18.07l1.16-2.74c-4.74-1.8-9.29-4.07-14.48-4.11-7.17-.06-14.33,3.05-19.4,8.07-10.75,10.63-12.71,27.68-9.69,41.86,2.98,13.98,11.08,26.9,22.3,35.74,11.35,8.95,25.59,13.22,40,12.2,15.98-1.14,31.49-8.34,42.04-20.51,1.03-1.19-.37-3.45-1.82-2.36-1.86,1.41-3.71,2.82-5.57,4.23-.81.62-.98,1.55-.3,2.36,14.92,17.81,40.18,23.82,61.52,14.71,6.01-2.57,11.48-6.23,16.17-10.77l-2.36-1.82c-2.07,3.14-4.14,6.28-6.21,9.41-.47.71-.1,1.62.54,2.05,26.99,18.3,63.08,18.81,90.5,1.16,7.26-4.67,13.77-10.46,19.23-17.15-.79-.61-1.57-1.21-2.36-1.82-1.15,1.84-2.31,3.67-3.46,5.51-.66,1.05.23,2.14,1.3,2.26,13.66,1.44,27.93,2.82,41.33-1.05,13.35-3.86,23.05-13.35,31.25-24.17.81-1.07-.53-2.56-1.69-2.2-1.02.31-2.03.63-3.05.94-1.07.33-1.47,1.69-.66,2.51,9.53,9.61,24.02,9.37,36.12,5.61,11.14-3.46,24.8-8.82,29.64-20.4,4.64-11.11,1.68-25.07-3.79-35.35-5.55-10.42-15.04-18.66-26.68-21.32-6.38-1.46-13.17-1.35-19.43.6-4.81,1.5-8.77,4.44-13.17,6.76-.78.41-1.06,1.77-.3,2.36.88.68,1.76,1.36,2.64,2.04s2.2.54,2.51-.66c3.75-14.92-5.31-29.03-17.44-36.98-12.9-8.46-29.63-12.68-44.98-11.13-4.07.41-8.9.93-12.63,2.74-1.58.77-3.07,1.82-4.59,2.71l2.05,2.05c5.9-11.33,3.5-25.97-5.83-34.74-1.41-1.32-3.53.8-2.12,2.12h0Z"/></g><g class="cls-26"><path class="cls-21" d="m1601.19,501.45c1.95-12.73,6.85-24.83,13.98-35.53,7.16-10.74,16.51-20.02,27.24-27.19,10.67-7.14,22.73-12.22,35.38-14.5,12.71-2.29,25.81-1.53,38.21,2.06,12.32,3.57,23.85,9.78,33.76,17.9,9.96,8.15,18.37,18.2,24.45,29.55,6.08,11.35,9.73,23.98,10.23,36.86.5,12.8-1.98,25.61-6.8,37.46-4.84,11.92-12.09,22.9-21.1,32.08-8.97,9.14-19.79,16.57-31.75,21.22-2.9,1.13-5.87,2.09-8.88,2.89-1.23.33-.71,2.24.53,1.91,12.65-3.37,24.36-9.68,34.4-18.06s18.45-18.88,24.54-30.49c6.07-11.57,9.91-24.32,10.88-37.36.97-13.12-1.16-26.35-6.12-38.53-4.96-12.21-12.52-23.29-21.88-32.55-9.33-9.24-20.44-16.66-32.6-21.62-12.16-4.96-25.4-7.31-38.52-6.46-13.08.85-25.86,4.74-37.4,10.92-11.6,6.21-21.99,14.75-30.34,24.92-8.3,10.11-14.65,21.85-18.11,34.5-.85,3.13-1.52,6.3-2.01,9.5-.19,1.25,1.72,1.79,1.91.53h0Z"/></g><path d="m1762.61,1304.88c-11.03,1.37-21.56,5.37-31.18,11.84-10.53,7.09-15.18,11.84-22.58,23.18-3.19,4.91-6.68,9.82-7.74,10.93-2.43,2.53-3.95,5.57-6.33,12.65-1.32,3.95-1.92,6.83-2.13,9.97l-.3,4.4-2.73.56c-7.24,1.52-15.08,5.16-20.7,9.67-15.44,12.3-19.03,34.82-8.76,55.22,4.61,9.16,8.35,13.92,21.56,27.23,7.14,7.19,9.92,10.38,10.28,11.64.76,2.58.61,5.67-.51,12.15-2.18,12.5-7.69,48.59-11.95,78.2-2.83,20.04-2.48,18.53-4.15,18.12-1.72-.4-12.4-7.24-19.59-12.55-9.87-7.29-28.95-27.84-45.81-49.4-2.94-3.75-7.79-9.62-10.88-13.11-7.19-8.2-24.14-25.11-31.99-31.89l-6.12-5.26,1.27-1.52c2.78-3.29,5.52-10.07,6.68-16.5.25-1.52,1.06-4.66,1.77-6.99,2.83-9.16,3.04-22.52.56-32.5-1.62-6.53-6.18-16.05-10.48-21.92-11.19-15.18-29.46-25.87-50.01-29.31-2.18-.35-8.35-.66-14.68-.66-12,0-17.06.76-25.51,3.85-16.45,6.02-29.21,19.28-34.93,36.39-2.33,7.04-3.04,11.69-2.68,18.32l.3,5.47h-5.92c-3.24,0-7.64.25-9.72.51-4.15.56-10.93-.35-13.77-1.82-3.19-1.67-4.2-5.57-2.68-10.48.71-2.28.66-2.43-.4-3.14-1.82-1.16-5.31-1.72-10.58-1.77-4,0-5.57.25-8.6,1.32-4.91,1.77-8.45,3.8-11.74,6.83-1.52,1.37-2.89,2.33-2.99,2.13-.15-.2-.4-1.52-.61-2.83-.71-4.66-1.52-6.68-2.83-6.83-3.44-.51-14.12,3.85-18.78,7.69-5.21,4.25-10.58,12-12.55,18.12-.3,1.06-.66,1.92-.76,1.92s-1.52-.66-3.19-1.52c-3.9-1.92-6.53-2.48-11.34-2.53-5.06,0-8.66.81-10.53,2.33l-1.47,1.27,1.01,3.39c2.38,8.25,2.63,9.62,2.63,14.02-.05,6.07-.66,8.5-4.2,15.69-2.53,5.26-3.44,6.58-6.68,9.72-2.02,1.97-5.72,5.16-8.25,7.04-10.68,8-16.25,13.41-19.69,19.13l-1.62,2.73-4.81-3.24c-10.02-6.88-23.08-12-36.19-14.17-6.88-1.16-20.09-1.16-26.52,0-17.61,3.19-34.47,11.14-44.95,21.21-2.89,2.78-10.53,12.91-13.31,17.61-5.01,8.66-9.11,18.88-10.93,27.38-1.06,5.21-1.27,20.3-.25,24.95,4.86,22.37,15.18,37.76,33.71,49.96,4.35,2.89,11.29,6.58,15.08,8,5.21,1.97,7.14,2.63,10.78,3.59,5.87,1.52,12.5,2.38,22.22,2.78l8.5.35.51,1.32c.81,2.13,2.78,10.02,4.05,15.99,1.06,5.06,1.16,6.88,1.16,19.49-.05,9.82-.3,16.15-.91,21.51-.46,4.15-1.11,10.43-1.42,13.92-.76,9.01-1.01,34.87-.4,39.94.25,2.33.4,4.3.3,4.45-.25.2-13.06-7.64-40.09-24.65-27.38-17.21-55.48-34.67-66.66-41.35-11.64-6.93-13.82-8.91-14.27-12.96-.66-5.62-1.32-14.17-1.32-16.75,0-5.87-2.02-16.65-4.56-24.4-5.77-17.36-18.83-30.47-33.76-33.81-4.81-1.06-14.43-1.11-19.28-.05-6.43,1.32-15.79,5.77-19.34,9.11l-1.27,1.21-2.28-1.77c-5.62-4.5-20.15-9.77-32.39-11.84-7.04-1.21-18.93-1.32-25.31-.3-14.83,2.43-27.64,8.76-39.99,19.69-20.8,18.48-32.55,49.15-33.15,86.66-.3,16.35,1.37,29.16,5.57,43.07,5.37,17.61,12.7,29.86,26.07,43.28,6.93,6.93,8.81,8.5,15.94,13.21,9.77,6.48,17.72,11.03,28.14,16.1,4.3,2.08,11.44,5.67,15.89,8,4.45,2.28,12,6.07,16.7,8.4,4.76,2.33,16.8,8.25,26.83,13.21,21.56,10.63,39.03,19.13,46.21,22.58,15.08,7.24,61.95,29.36,64.99,30.77,1.32.61,5.77,2.68,9.82,4.61,4.1,1.97,7.49,3.54,7.59,3.54.05,0,2.78,1.27,6.02,2.78,3.29,1.52,5.97,2.78,6.07,2.78s3.24,1.47,7.09,3.29c3.8,1.82,6.99,3.29,7.09,3.29.05,0,2.48,1.11,5.37,2.48,2.89,1.37,14.73,6.78,26.27,12.1,11.54,5.26,29.76,13.62,40.49,18.58,10.73,4.91,30.93,14.17,44.9,20.55,13.97,6.33,34.22,15.79,45.05,21.01,10.78,5.16,23.54,11.24,28.24,13.46,9.41,4.4,9.57,4.45,13.01,5.92,2.02.81,2.43,1.27,2.89,2.94,3.7,14.38,7.24,34.87,9.16,53.3.86,8.3,1.27,20.5,1.16,35.43-.4,68.28-.35,76.13.25,84.68.35,4.96.76,9.72.96,10.63.25,1.42-.81.56-9.01-7.54-12.5-12.25-17.77-16.15-25.31-18.63-13.92-4.66-25.36-2.33-33.56,6.83-5.82,6.43-9.77,16.05-11.49,27.84-.96,6.48-.3,19.74,1.21,26.27,3.34,14.07,8.91,24.3,18.27,33.66,8.05,8.05,16.15,12.6,27.18,15.44,5.37,1.37,7.49,1.62,14.93,1.87,13.92.46,22.02-1.01,36.29-6.73,3.85-1.57,7.04-2.73,7.09-2.63.76,1.32,6.73,7.9,11.09,12.15,8.71,8.55,17.36,14.73,28.55,20.35,14.73,7.39,27.84,11.24,53.1,15.74,13.26,2.33,22.17,3.14,36.14,3.24,10.48.1,12.2.3,12.2,1.67,0,.3,1.57,3.49,3.54,7.14,1.92,3.59,4.91,9.67,6.63,13.46,5.72,12.76,19.08,38.32,28.24,54.21,1.87,3.19,4,7.29,4.81,9.11,8.25,19.03,24.65,39.38,39.78,49.45,11.03,7.34,23.08,10.83,37.96,10.83,9.82,0,18.58-1.62,28.85-5.47,13.16-4.91,31.99-15.59,38.92-22.02,1.77-1.67,5.26-4.71,7.85-6.83,6.53-5.37,20.2-18.98,26.83-26.73,10.17-11.84,16.96-21.87,27.54-40.49,12.55-22.27,19.94-37.91,26.47-56.08,1.11-3.09,2.13-5.72,2.23-5.87.46-.4,20.25,16.55,36.19,31.03,31.23,28.35,57.04,54.72,78.25,80.02,4.66,5.57,9.87,11.69,11.59,13.67,1.67,1.92,3.64,4.35,4.4,5.31,2.13,2.89,7.54,8.05,10.68,10.22,8.2,5.57,17.72,8,25.26,6.43,8.3-1.77,37.51-15.99,62.41-30.47,8.81-5.06,19.84-12.3,26.83-17.51,3.34-2.48,10.58-7.74,16.15-11.74,17.92-12.86,35.89-27.64,48.74-40.14,12.35-11.95,26.42-28.45,28.95-33.96.81-1.67,3.8-6.78,6.73-11.39,12.81-20.15,19.28-34.57,21.46-47.83.96-5.92,1.06-17.67.25-24.04-1.77-13.21-7.64-22.88-19.03-31.53-2.23-1.67-5.31-4.25-6.88-5.67-2.99-2.73-9.67-6.48-15.34-8.6-8.71-3.29-18.88-4.81-31.94-4.81-26.57,0-53.55,9.57-77.7,27.54-6.18,4.61-19.03,17.41-23.54,23.44-1.87,2.58-3.59,4.71-3.75,4.71-.2,0-1.67-1.37-3.34-3.09-17.21-17.56-45.71-39.28-72.63-55.37-22.27-13.31-55.88-28.55-78.81-35.68-4.35-1.37-6.73-2.33-6.73-2.78,0-.4,1.11-3.95,2.48-7.95,2.33-6.68,6.58-22.47,8.4-31.18,2.13-10.28,4.3-28.29,4.3-35.74,0-2.68-.56-8.05-1.27-12.25-2.13-12.91-3.44-23.94-5.82-48.29-1.16-12.15-2.43-16.65-9.11-32.55-19.03-45.55-59.37-91.41-101.74-115.76-2.08-1.21-3.9-2.23-3.95-2.33-.4-.3,8.96-34.72,19.28-71.07,5.97-21.01,12.76-44.85,15.03-52.89,2.28-8.1,7.49-26.62,11.64-41.25,4.1-14.63,9.11-32.5,11.09-39.73,2.02-7.24,4.76-16.7,6.12-21.01,3.44-10.98,5.67-18.58,8.35-28.85,1.27-4.86,2.63-9.67,3.04-10.63s.96-3.24,1.21-5.06c.66-4.15,2.02-9.92,6.53-27.33,4.81-18.63,6.73-27.33,9.21-41.51,1.11-6.53,3.29-17.72,4.81-24.8,7.04-33.2,8.55-44.8,9.41-70.1.4-13.26.71-17.06,1.32-18.37.96-1.97.71-7.29-.86-19.69-3.24-25.36-10.63-42.62-27.54-64.59-2.53-3.29-5.52-7.24-6.63-8.71-4.71-6.28-10.58-13.01-11.74-13.46-.91-.35-1.67-.25-2.73.25-1.42.71-1.67.66-5.31-1.52-14.48-8.55-31.38-14.78-44.49-16.35-4.2-.51-18.27-.66-21.77-.2Zm19.37,10.7c18.63,2.43,35.75,8.05,47.34,15.59,2.84,1.82,4.91,3.65,6.08,5.32,1.87,2.58,2.58,3.09,4.56,3.09.91,0,2.38,1.62,6.94,7.7,7.8,10.48,9.87,13.47,13.27,19.29,6.43,10.94,9.32,18.73,12,32.4,3.14,16.05,3.65,22.53,3.29,42.63-.3,17.97-.81,26.08-2.08,32.91-.41,2.23-1.57,9.27-2.58,15.7-2.33,15.14-4.25,24-10.43,48.35-4.1,16.35-23.19,87.84-26.68,100.25-.56,1.82-1.67,6.03-2.58,9.37-.91,3.34-2.94,10.73-4.56,16.46-1.62,5.72-4.1,14.68-5.57,20-2.48,9.01-6.63,23.85-9.37,33.72-3.8,13.47-12.35,45.16-18.48,68.55-1.16,4.46-3.44,12.66-5.06,18.23-1.62,5.57-3.9,13.42-5.01,17.47-1.16,4.05-2.53,8.81-3.04,10.63-.51,1.82-1.92,6.84-3.09,11.14s-2.53,9.32-3.04,11.14c-.51,1.82-1.97,7.34-3.34,12.25-1.32,4.96-2.58,9.01-2.84,9.01s-1.97-.76-3.85-1.72c-11.44-5.77-30.99-12.4-46.78-15.9-3.49-.81-4.61-.86-5.27-.41-1.42,1.06-.66,2.38,1.82,3.19,16.86,5.52,25.52,8.91,37.72,14.83,26.48,12.86,34.68,18.38,56.71,37.92,4.3,3.8,23.54,23.14,23.54,23.64,0,.1,2.43,3.09,5.37,6.63,6.48,7.85,6.13,7.44,8.25,10.38.96,1.37,1.92,2.43,2.18,2.43.2,0,.41.25.41.61,0,.3.56,1.27,1.22,2.13,1.67,2.23,6.89,9.97,6.89,10.28,0,.1.66,1.16,1.42,2.33,3.44,5.01,11.39,20.15,15.04,28.45.46,1.11,1.06,2.48,1.32,3.04,6.53,15.04,12,35.69,14.38,54.43.46,3.49,1.01,7.34,1.27,8.61.61,3.09.61,24.1,0,31.59-.66,7.75-2.08,17.37-4.3,29.16-3.14,16.4-4.51,22.02-5.92,24.15-1.16,1.62-6.08,14.78-6.84,18.28-.15.61-.46,1.27-.71,1.42s-.46.91-.46,1.72-.46,2.33-.96,3.39c-.56,1.06-2.03,4.76-3.34,8.25-2.53,6.73-12,25.77-15.8,31.64-5.72,8.81-5.92,9.11-7.24,8.96-1.47-.2-2.94-1.82-4.86-5.42-2.08-3.85-9.97-12.56-15.29-16.91-11.54-9.42-15.8-12.15-22.83-14.73-8.1-2.99-14.89-3.54-30.18-2.53-19.19,1.27-32.2,4.46-45.52,11.19-2.18,1.11-4,1.97-4.05,1.87s-.66-1.06-1.37-2.18c-.76-1.11-2.38-3.95-3.7-6.33-2.28-4.15-7.54-11.19-12.46-16.56-1.32-1.42-3.49-4.15-4.81-6.08-3.65-5.11-12.66-15.95-16.71-20.1-4.4-4.51-8.05-7.09-17.72-12.61-4.15-2.38-11.19-6.48-15.59-9.16-15.39-9.32-18.08-10.13-33.52-10.02-11.04.05-28.05,1.32-34.88,2.63-5.32,1.06-18.08,5.16-23.54,7.65-5.87,2.63-21.01,12.05-26.94,16.76-3.19,2.48-9.11,7.9-13.21,12.05-6.03,6.03-7.8,8.1-9.01,10.73-2.13,4.51-2.03,6.23.56,7.14,1.22.41,4.46-1.42,6.43-3.59,12.35-13.67,25.47-24.45,38.58-31.75,12.35-6.78,21.87-10.28,36.05-13.27,6.23-1.27,7.59-1.37,18.38-1.37,10.02,0,12.35.15,16.81,1.11,13.97,3.04,25.67,8.61,38.33,18.28,14.58,11.14,32.4,31.8,42.68,49.42,1.97,3.34,4.35,7.44,5.37,9.11,1.47,2.48,1.67,3.14,1.11,3.54-.41.25-2.48,1.77-4.61,3.29-11.44,8.15-18.13,13.82-26.78,22.83-7.85,8.15-16.51,19.44-22.28,29.01-3.75,6.28-4.91,9.62-4.71,13.47.15,2.38.35,2.84,1.52,3.54,2.03,1.11,2.73.46,6.23-5.62,12.35-21.27,26.78-37.82,45.11-51.69,9.67-7.34,19.75-13.21,29.92-17.52,10.13-4.25,14.38-5.47,28.91-8.2,4-.76,15.95-.61,20.96.25,24.76,4.25,45.06,22.28,53.52,47.64,4.51,13.47,5.87,29.11,4.15,48.56-1.06,12.25-3.49,25.06-6.08,32.4-.91,2.48-2.13,5.92-2.68,7.59-1.62,4.81-4.4,12.3-5.57,14.89-.56,1.27-1.37,3.14-1.77,4.1s-1.52,3.34-2.43,5.32c-.91,1.92-1.97,4.3-2.33,5.22-.41.86-.86,1.62-1.06,1.62-.25,0-.41.35-.41.76s-.2.76-.51.76c-.25,0-.51.25-.51.56,0,.91-4.2,9.06-4.66,9.06-.2,0-.41.3-.41.71,0,.86-2.13,5.06-2.63,5.27-.25.1-.41.61-.41,1.16,0,.51-.2.96-.46.96s-.56.41-.71.91c-.35,1.06-1.87,3.59-2.78,4.56-.35.35-.51.91-.35,1.16.2.25.1.46-.1.46-.25,0-.71.61-1.01,1.37-.61,1.37-1.67,3.19-2.18,3.7-.15.15-.91,1.57-1.72,3.14-.86,1.62-1.82,3.04-2.18,3.14-.35.15-.66.61-.66,1.06,0,.41-.2.76-.46.76s-.56.66-.71,1.52c-.2.96-.66,1.52-1.16,1.52s-.76.15-.56.3c.41.46-1.06,3.29-2.23,4.3-.51.46-.86.91-.71,1.06.15.1-.56,1.06-1.52,2.08s-1.77,2.23-1.77,2.63-.3.76-.71.76-.91.46-1.06,1.01-.56,1.01-.81,1.01-.46.3-.46.66-.66,1.42-1.52,2.38c-.81.96-2.94,3.59-4.66,5.82-3.54,4.51-21.92,23.14-26.23,26.63-1.52,1.22-3.24,2.63-3.8,3.19-2.38,2.18-12.86,8.86-18.99,12.05-6.38,3.34-7.24,3.8-10.13,5.11-9.01,4.1-15.65,6.43-22.53,8-15.49,3.49-28.51,2.28-41.16-3.95-17.62-8.61-31.44-25.42-48.71-59.14-3.39-6.68-8.2-16.05-10.63-20.76-2.43-4.76-9.06-17.77-14.73-28.96-5.67-11.19-10.89-21.47-11.59-22.83-.71-1.32-2.48-5.06-4-8.25-9.57-20.2-11.04-22.94-12.86-23.39-1.52-.46-3.9,1.97-3.9,4,0,2.18,2.03,8.15,5.06,14.99,1.32,2.99,2.28,5.57,2.13,5.72-.46.41-13.47.25-21.62-.25-9.01-.61-12.4-1.11-19.49-2.84-2.94-.71-6.68-1.57-8.35-1.97-4.46-1.06-19.75-5.57-23.29-6.84-33.72-12.05-54.38-30.07-66.28-57.97-4.91-11.49-8.96-28.61-10.89-46.07-1.67-15.04-1.82-20.05-1.67-63.29.15-49.97-.2-59.24-2.99-81.52-1.42-11.14-3.9-24.1-6.33-33.16-.71-2.63-1.42-5.27-1.57-5.87-.25-1.01-.15-1.01,2.33-.56,4.35.91,6.38-.91,4.66-4.3-.86-1.77-4.15-3.65-17.06-9.67-3.34-1.57-10.43-4.91-15.7-7.49-5.27-2.53-10.94-5.27-12.61-6.03s-5.67-2.63-8.86-4.2c-3.19-1.52-8-3.8-10.63-5.01-14.28-6.78-38.28-17.87-51.39-23.7-7.04-3.14-12.91-5.92-27.34-12.91-5.01-2.43-10.38-4.96-11.9-5.67-1.52-.71-6.28-2.99-10.58-5.01-4.25-2.08-7.85-3.75-7.9-3.75-.1,0-3.29-1.52-7.14-3.34-3.9-1.82-7.95-3.75-9.06-4.25s-4.05-1.87-6.58-3.04c-4.91-2.28-9.27-4.3-12.91-5.97-1.27-.56-5.42-2.53-9.32-4.35-3.85-1.82-7.09-3.34-7.19-3.34-.15,0-13.72-6.28-27.7-12.86-2.78-1.27-5.06-2.33-5.16-2.33s-4-1.82-8.66-4.05c-4.61-2.23-8.51-4.05-8.56-4.05s-3.09-1.42-6.63-3.09c-6.78-3.24-8.71-4.15-23.44-11.09-4.86-2.28-13.06-6.18-18.18-8.66-5.16-2.48-9.42-4.51-9.47-4.51-.2,0-20.4-9.87-40.5-19.75-9.16-4.51-18.53-9.06-20.76-10.13-9.87-4.66-31.29-15.39-35.69-17.87-2.63-1.52-8.3-4.61-12.61-6.89-21.47-11.44-33.37-21.32-43.69-36.25-7.24-10.43-13.47-28.56-15.54-45.31-1.37-10.84-.86-30.28.96-39.24.2-1.11.56-3.49.76-5.32.96-9.42,5.82-24.3,11.24-34.43,7.85-14.58,19.95-26.53,33.82-33.37,14.73-7.19,27.7-8.4,45.57-4.1,6.03,1.42,16.56,4.91,20.81,6.89l3.8,1.72-3.39,4.15c-7.49,9.32-13.57,22.53-16.15,35.24-.35,1.62-.41,1.72-2.13,1.37-5.57-1.01-7.14,4.66-1.67,6.28,1.11.35,2.18.86,2.28,1.22s.3,2.89.51,5.67c.81,12.76,4.15,20.96,11.24,27.7,3.24,3.09,6.63,4.96,10.89,6.03,3.54.91,13.37.76,17.62-.25,4.76-1.16,5.27-1.11,4.81.56-.86,3.49-20.25,30.48-21.47,29.92-.2-.1-2.58-2.58-5.27-5.52-8.71-9.62-13.82-13.57-23.39-18.23-6.58-3.19-13.01-5.27-18.94-6.08-4.4-.61-5.82-.35-6.94,1.27-1.22,1.92-.25,3.14,3.19,4.05,10.68,2.99,20.96,7.54,27.75,12.35,3.54,2.48,14.89,12.3,17.72,15.24l1.47,1.57-2.99,3.09c-8.61,8.76-20.51,16.76-30.58,20.66-9.06,3.49-21.37,4.71-28.25,2.78-4.71-1.32-5.47-1.37-6.18-.51-1.06,1.27-.1,3.85,1.97,5.27,3.65,2.43,8.2,3.39,16.46,3.39,10.33,0,17.21-1.82,27.85-7.29,9.21-4.76,15.7-9.62,25.62-19.19,13.21-12.71,20.3-22.99,26.48-38.33,3.85-9.52,4.15-9.92,8.66-13.32,4.46-3.34,13.21-11.7,16.05-15.29,3.95-5.01,6.28-12.1,4.91-14.99-.76-1.62-2.73-2.18-4.4-1.27-.51.25-1.97,2.63-3.24,5.22-2.23,4.61-6.28,10.18-10.68,14.73-3.7,3.75-13.92,10.08-18.83,11.59-4.3,1.37-7.44,1.87-11.09,1.92-3.39,0-4.4-.2-7.14-1.52-12.05-5.77-16.81-23.64-11.54-43.54,5.72-21.87,20.35-38.68,37.37-43.04,4.71-1.22,7.85-1.27,12.61-.25,6.89,1.47,12.66,4.96,18.63,11.29,9.62,10.23,15.04,27.34,15.09,47.59,0,5.32.25,8.91.81,11.39.76,3.34,1.11,3.9,4.2,7.09,2.63,2.73,5.72,4.96,14.48,10.43,16.71,10.43,56.3,35.29,63.8,40.05,13.92,8.86,45.21,28.25,48.35,30.02,1.82,1.01,5.22,3.09,7.59,4.61,7.9,5.01,25.87,16.05,42.53,26.13,9.06,5.47,22.94,13.92,30.88,18.73,7.95,4.81,15.44,9.37,16.71,10.13,3.49,2.08,13.42,8.15,18.23,11.14,2.38,1.47,5.92,3.65,7.85,4.81,3.59,2.18,5.06,3.09,26.33,16.2,10.48,6.43,17.47,10.84,36.45,22.89,1.97,1.22,9.87,6.28,17.57,11.19,12.66,8.1,15.85,10.08,20.91,12.86,4.91,2.73,8.91-.1,5.62-4l-1.22-1.47,7.14-.86c22.83-2.89,45.42-9.57,45.42-13.52,0-2.89-5.57-2.63-21.01,1.01-13.97,3.29-25.62,5.32-36.3,6.38l-3.44.3-4.66-2.99c-6.13-3.95-10.84-6.63-15.95-9.16-2.28-1.11-10.48-6.23-18.23-11.39-7.75-5.11-17.27-11.29-21.16-13.77-3.9-2.43-8.2-5.16-9.62-6.08-6.94-4.46-27.04-17.01-40.76-25.47-2.94-1.77-6.84-4.25-8.71-5.47-1.87-1.22-3.54-2.23-3.7-2.23s-1.47-.76-2.94-1.72c-1.42-.91-4.66-2.94-7.19-4.46-7.24-4.46-20.3-12.46-25.82-15.85-26.18-16.15-32.61-20.1-38.88-24.25-3.95-2.58-8.25-5.32-9.52-6.08l-2.38-1.32-.61-4.96c-1.32-10.23-1.42-13.37-1.27-26.94.2-12.3.66-20.3,2.28-37.21.25-2.53.35-10.48.3-17.72-.15-12-.25-13.72-1.47-19.24-1.57-7.24-2.99-12.61-4.35-16.56l-.96-2.89,1.57-.35c2.99-.61,6.94-2.84,8.46-4.71,1.57-1.87,1.97-3.85.91-4.2-1.22-.46-4.71-.05-10.28,1.16-4.76,1.01-6.99,1.16-15.44,1.22-11.04,0-13.37-.35-24-3.9-38.73-12.81-59.24-47.04-49.37-82.43,2.68-9.52,8.35-21.06,14.58-29.62,8.96-12.3,29.47-22.89,49.67-25.62,11.8-1.57,27.8,1.77,41.77,8.71,13.37,6.63,20.2,13.21,27.09,26.02,1.16,2.23,2.38,4.35,2.68,4.66.76,1.01,2.23.76,3.39-.46,2.63-2.84-.25-11.9-6.33-19.85-.96-1.32-1.77-2.53-1.77-2.78s.86-1.67,1.87-3.14c4.4-6.48,8.71-10.53,21.72-20.35,7.59-5.72,10.18-8.35,14.33-14.73s6.48-15.24,5.97-22.78c-.3-4.61-1.16-7.04-3.8-10.63l-1.82-2.48,3.9.25c3.34.2,4.51.56,8.76,2.73,2.68,1.37,5.82,3.19,6.99,4.1,1.47,1.22,2.58,1.67,3.95,1.67,2.18,0,2.23-.1,2.89-5.57.71-5.42,3.95-11.7,8.71-16.86,3.34-3.65,8.81-7.95,10.02-7.95.3,0,.66.61.81,1.37,1.52,7.44,3.04,10.48,6.33,12.56,3.54,2.23,5.72,1.47,6.33-2.28.51-2.89,2.08-4.96,6.08-8,3.54-2.63,9.57-5.37,13.21-5.97l1.97-.3-.15,3.54c-.2,4.15.86,6.78,3.85,9.52,5.62,5.11,15.09,6.84,25.42,4.61,1.87-.41,7.54-.56,17.77-.41,13.57.1,15.04.05,15.65-.71.66-.76.56-1.01-.66-2.08-1.37-1.16-6.23-2.84-10.08-3.49l-1.92-.3v-4.66c0-24.61,14.73-43.39,39.14-49.97,10.23-2.73,26.18-2.03,37.06,1.57,24.76,8.25,42.73,28.3,45.87,51.09.96,7.19.1,18.48-2.18,28.61-.51,2.38-5.67,13.42-6.28,13.42-.1,0-3.24-2.23-6.94-4.96-3.7-2.73-7.8-5.67-9.21-6.53-7.29-4.61-13.92-6.33-16.4-4.35-.71.61-1.11,1.32-.96,1.77.2.41,3.24,2.68,6.84,5.06,10.13,6.68,27.59,20.96,38.83,31.8,15.7,15.04,29.42,29.82,40.05,43.04,13.97,17.42,25.42,29.97,36.25,39.8,4.56,4.2,12.66,10.18,14.99,11.14,3.09,1.27,21.72,13.06,28.81,18.23,20.45,14.89,28.4,22.38,40,37.92,10.58,14.18,15.19,23.04,20.56,39.49,4.56,14.08,5.82,24.96,4.51,38.73-3.19,32.81-15.49,61.26-38.58,89.11-11.65,14.08-25.97,25.42-42.23,33.42-4.56,2.28-8.56,4.4-8.86,4.81-1.27,1.52-.05,1.92,4.86,1.62,18.68-1.27,44.96-20.76,63.9-47.49,16.96-23.9,27.14-49.42,30.13-75.64,1.22-10.48,1.01-18.94-.71-31.9-1.62-11.95-6.78-25.37-15.19-39.59-13.37-22.63-30.58-41.16-53.11-57.11-3.49-2.43-6.43-4.51-6.48-4.61-.1-.05.3-3.49.91-7.65.61-4.1,1.52-10.58,2.08-14.33.51-3.75,2.99-20.76,2.99-20.76,0,0,2.58-17.82,3.29-22.53,1.87-12.96,3.75-25.57,4.86-32.91,1.52-9.77,1.67-12.15.96-16.86-.61-3.8-.91-4.51-2.89-6.89-1.16-1.47-3.95-4.15-6.13-6.03-5.87-4.91-13.57-13.16-17.32-18.48-4.4-6.18-7.14-11.44-9.16-17.57-1.57-4.81-1.67-5.47-1.67-12.66-.05-6.58.1-8.05,1.11-10.99,4.96-14.94,18.23-23.9,36.05-24.45,21.52-.66,45.16,11.24,54.12,27.19,3.14,5.62,4,13.16,2.08,18.23-5.42,14.43-30.78,24.2-50.07,19.34-6.23-1.57-8.86-1.52-9.06.2-.25,1.57,1.37,3.24,4.66,4.86,5.16,2.53,10.33,3.04,21.01,2.03,9.11-.81,8.96-.81,15.29-2.33l4.4-1.06,2.18,1.27c2.99,1.72,10.28,4.2,16.15,5.47,8.35,1.87,15.29,2.48,25.06,2.28,29.01-.66,50.88-7.59,64.2-20.45,8.25-7.95,13.47-18.78,10.63-22.23-.91-1.16-3.59-1.77-5.11-1.22-.35.1-1.42,1.82-2.43,3.85-5.82,11.7-17.67,20.91-33.52,26.13-5.47,1.77-15.44,3.8-21.32,4.3l-4.2.35.25-14.63c.2-12.3.41-15.24,1.27-18.89,1.42-5.92,4.4-14.73,6.28-18.43,2.33-4.66,2.58-5.72,1.37-6.94-1.32-1.32-2.78-.91-4.91,1.47-3.14,3.44-7.04,11.59-9.32,19.34-2.53,8.71-3.04,20.51-1.42,31.44.56,3.7.91,6.78.81,6.89-.41.41-13.97.15-19.04-.35-8.15-.76-19.39-2.08-20.2-2.33-.41-.15.66-1.11,2.53-2.33,4.2-2.68,9.97-8.51,12-12.1,2.48-4.35,3.34-8.4,2.99-14.13-.35-5.32-1.06-8-3.29-12.46-2.13-4.2-5.52-8.56-10.02-12.81l-3.85-3.7,1.32-4.1c1.22-3.75,1.27-4.15.51-5.27-1.32-2.08-3.54-1.42-6.03,1.72-1.11,1.42-2.28,2.63-2.58,2.63-.3.05-2.84-1.06-5.57-2.48-10.84-5.37-23.44-8.51-34.73-8.56-2.43-.05-3.44-.25-3.44-.71,0-1.06,1.87-7.04,3.44-10.99,1.06-2.73,1.87-4,2.78-4.46,1.92-.91,3.24-2.73,8.76-11.59,6.23-10.02,9.77-14.73,15.34-20.3,12.86-12.86,26.99-16.61,51.19-13.47Zm105.66,863.33c5.57,1.82,14.78,5.06,17.21,6.12.56.2,4.91,2.08,9.62,4.05,8.45,3.59,30.22,14.12,37.71,18.27,10.17,5.67,34.42,20.9,38.72,24.4.66.51,5.42,3.95,6.83,4.91,5.97,4.05,24.35,18.37,31.64,24.7,9.92,8.55,11.54,10.17,11.09,11.19-2.53,6.48-2.99,9.11-1.82,11.49,1.47,3.14,4.61,2.73,6.02-.71,4.35-10.68,13.72-22.78,26.73-34.52,13.51-12.2,36.04-24.25,53.15-28.29,1.42-.35,3.34-.81,4.3-1.06,5.92-1.47,16.5-2.63,22.27-2.43,2.63.1,7.54.76,10.88,1.52s8,1.72,10.38,2.18c4.91.96,13.06,4.05,17.36,6.63,1.62.96,3.19,1.72,3.44,1.72s.46.2.46.51c0,.25.25.51.56.51s1.37.76,2.38,1.72c1.01.96,2.73,2.28,3.85,2.94,3.09,1.77,8.91,7.85,11.09,11.54,3.64,6.28,5.06,13.01,5.11,24.3,0,8.5-.91,14.32-3.49,22.12-2.02,6.12-7.69,18.02-8.4,17.61-.25-.2-.46.15-.46.71,0,.61-.3,1.01-.61.91-.35-.05-.61.2-.56.51.1.35-.05.66-.25.66-.25,0-1.01,1.06-1.67,2.38-.66,1.37-1.62,2.89-2.08,3.39-.51.56-.91,1.32-.91,1.67s-.2.66-.4.66c-.25,0-.76.61-1.11,1.37-1.01,2.02-4.66,7.34-5.62,8.25-.46.4-2.38,2.78-4.3,5.31-7.74,10.28-22.98,27.59-24.19,27.59-.61,0-2.28,1.72-2.02,2.13.15.2-.15.56-.61.76-1.11.4-4.25,3.59-4.25,4.25,0,.25-.4.66-.86.81-1.16.46-2.18,1.47-2.18,2.18,0,.3-.4.71-.86.86-.51.2-2.68,2.13-4.81,4.3-2.13,2.18-4.25,3.95-4.71,3.95-.4,0-.71.2-.66.46.1.25,0,.46-.2.51-.25.05-2.23,1.87-4.5,4.1-2.23,2.23-4.3,4.05-4.56,4.05-.3,0-1.62,1.11-2.99,2.53-1.37,1.37-2.83,2.53-3.24,2.53-.46,0-.81.35-.81.86,0,.46-.15.66-.3.51-.2-.15-.91.3-1.67,1.06-.71.76-2.13,1.97-3.09,2.68-.96.76-2.43,1.97-3.29,2.73-2.33,2.08-8.86,6.99-11.39,8.6-1.27.81-3.44,2.18-4.86,3.09s-3.8,2.33-5.31,3.19c-5.47,2.99-8.6,4.91-14.22,8.76-3.14,2.13-6.53,4.3-7.49,4.86-6.12,3.44-12.96,7.44-13.16,7.69-.15.2-3.8,2.18-8.1,4.4-4.3,2.23-8.76,4.61-9.87,5.21-4.05,2.28-22.32,11.29-27.84,13.67-1.37.61-3.19,1.42-4,1.82-1.87.91-7.95.91-10.98,0-3.04-.91-7.04-2.99-10.68-5.47-3.24-2.18-10.98-9.67-13.31-12.81-.86-1.11-1.62-2.13-1.77-2.28s-1.06-1.27-2.02-2.53-1.87-2.38-2.02-2.53-1.27-1.52-2.53-3.04c-1.27-1.52-2.53-3.09-2.89-3.44s-1.47-1.72-2.53-3.04c-3.09-3.8-5.11-6.07-11.03-12.25-3.09-3.19-7.29-7.74-9.36-10.12s-5.01-5.67-6.58-7.34c-1.52-1.67-4.25-4.61-6.07-6.58-18.12-19.59-41-41.96-56.69-55.43-1.77-1.52-3.7-3.24-4.25-3.8-.61-.56-2.18-1.87-3.44-2.94-1.32-1.06-2.68-2.18-3.04-2.53s-1.67-1.42-2.94-2.38c-1.27-.96-2.38-1.87-2.53-2.02-.4-.4-3.59-3.09-5.97-5.01-1.16-.91-1.97-1.92-1.82-2.18.71-1.06,2.63-9.47,4.3-18.37,1.97-10.43,3.04-31.53,2.02-39.99-1.06-8.55-3.64-19.99-5.11-22.63-.76-1.37-.66-1.72,1.92-5.62,1.32-2.02,2.63-4.1,2.99-4.66.3-.56,2.28-3.85,4.35-7.34,7.85-13.16,16.05-29.81,20.6-41.81.25-.66.91-1.21,1.37-1.21.51,0,3.64.86,6.99,1.97Zm-528.59,23.08c4.5.91,10.48,4.1,15.13,7.95,2.08,1.72,6.99,6.33,10.93,10.22,6.63,6.53,12.1,10.93,13.72,10.93.81,0,1.42,1.57,1.87,5.06.56,4.45,4.2,20.3,5.77,25.16,2.68,8.2,6.02,15.84,9.77,22.37,1.32,2.33,2.38,4.3,2.33,4.35-5.47,2.94-11.74,5.16-17.87,6.28-7.44,1.37-9.36,1.57-14.78,1.57-26.88,0-45.86-13.21-53.5-37.3-2.89-9.11-3.04-10.02-3.04-19.89,0-8.6.1-9.77,1.37-14.43,3.24-11.89,8.91-19.74,16.05-22.22,2.89-.96,7.85-1.01,12.25-.05Z"/><path d="m1548.15,1517.46c-6.58,1.06-17.11,14.17-22.63,28.14-1.62,4.1-2.73,10.53-2.38,13.41.66,4.96,2.63,8,4.1,6.38.35-.35,1.01-3.04,1.52-5.97,1.62-9.72,5.87-18.07,15.94-31.64,3.8-5.06,5.72-8.5,5.47-9.82-.1-.66-.51-.76-2.02-.51Z"/><path d="m1576.09,1563.52c-7.09,1.87-10.12,3.49-14.83,8-9.36,8.91-14.32,24.55-12.5,39.28.96,8.2,3.7,14.17,6.28,13.82,1.32-.2,1.37-1.77.1-10.28-1.06-6.93-.86-15.69.46-20.75,1.37-5.42,5.01-12,8.55-15.59,7.49-7.59,18.73-9.87,29.36-5.92,6.88,2.58,14.43,9.31,21.41,18.98,1.97,2.78,4.2,5.72,4.86,6.53l1.21,1.52.61-1.11c.86-1.67-.15-6.63-2.28-10.88-5.72-11.54-15.99-20.25-27.33-23.13-4.3-1.06-12.6-1.32-15.89-.46Z"/><path d="m1586.62,1596.93c-4.3.66-7.19,1.92-10.48,4.56-4.15,3.39-7.19,7.59-9.16,12.76-1.37,3.49-1.67,5.01-1.87,9.97-.2,3.44-.05,6.88.25,8.45,1.72,7.95,8.4,15.49,15.94,18.07,13.92,4.71,27.13-1.87,31.53-15.74,1.27-3.95,1.52-12.96.51-17.56-1.67-7.39-6.18-14.43-11.29-17.67-3.95-2.48-10.22-3.64-15.44-2.83Zm-7.34,17.72c1.32.61,2.38,2.38,2.38,4.05s-2.23,3.49-4.25,3.49c-3.44,0-5.11-4.35-2.58-6.83,1.32-1.37,2.58-1.57,4.45-.71Z"/><path d="m1397.01,1610.64c-.81.81-.76,3.19.15,4.91,1.16,2.33,10.88,10.93,15.24,13.51.76.46.46.81-2.43,2.83-10.68,7.64-18.78,21.92-21.11,37.2-.81,5.26-.71,15.54.25,20.4,1.01,5.37,2.89,10.22,6.78,17.31,3.85,7.04,4.25,7.49,5.42,6.33.81-.81.76-1.06-1.21-4.76-3.85-7.24-5.47-16.35-5.06-28.4.35-11.14,2.08-18.22,6.43-26.93,3.7-7.34,9.77-14.02,15.89-17.46l3.34-1.82,3.9,1.52c8,3.14,16.8,4.4,27.08,3.95l6.43-.3,3.14,3.34c4.61,4.96,8.5,11.64,11.34,19.54,1.32,3.64,4.1,3.85,5.42.35,1.57-4.1-4.15-17.11-10.38-23.64-.86-.91-1.47-1.72-1.32-1.82.1-.1,1.21-.76,2.48-1.47,3.19-1.82,5.57-4.5,5.72-6.28.1-1.27-.1-1.47-1.42-1.62-.81-.1-3.75.56-6.48,1.37-8.6,2.68-12.81,3.24-21.36,2.94-13.26-.56-21.87-3.44-34.17-11.64-4.81-3.19-10.07-7.34-11.29-8.81-1.06-1.32-1.87-1.47-2.78-.56Z"/><path d="m1446.26,1659.34c-10.98,2.73-18.88,10.58-22.52,22.32-1.47,4.81-2.23,15.39-1.47,20.5,1.82,12.35,8.71,22.17,18.07,25.87,2.43,1.01,3.85,1.16,9.21,1.21,6.12,0,6.43-.05,9.77-1.62,4.4-2.08,6.99-4.15,9.47-7.44,2.78-3.85,4.3-7.09,5.57-12.2,2.68-10.63-.15-27.08-6.48-37.86-3.44-5.92-7.59-9.41-12.55-10.73-3.44-.91-5.62-.91-9.06-.05Zm-8.45,23.89c1.72,1.97,1.52,4.81-.46,6.48-2.08,1.77-4.2,1.72-6.07-.15-3.29-3.29-.71-8.6,3.85-7.9.86.15,2.02.81,2.68,1.57Z"/><path d="m1564.45,1667.69c-5.87,1.32-8.1,2.18-11.49,4.5-1.62,1.11-4.76,2.89-6.99,4.05-7.79,3.9-11.64,10.02-10.33,16.45.51,2.33,1.01,3.09,4.56,6.48,7.64,7.44,17.51,11.14,29.56,11.14,8.6.05,17.36-1.47,22.88-3.9,8.5-3.7,15.49-11.79,16.2-18.73.61-5.77-1.72-9.52-8.66-14.07-8.76-5.72-11.19-6.48-22.58-6.68-7.29-.15-9.62,0-13.16.76Zm20.3,5.92c2.89.71,5.87,1.67,6.63,2.13,3.34,2.13,8.35,5.92,9.36,7.14,1.47,1.67,1.52,4.56.1,7.44-1.42,2.99-6.58,7.64-10.43,9.41-6.68,3.14-19.79,4.71-27.33,3.29-10.33-1.97-20.9-8.4-20.9-12.65,0-1.92,2.38-5.11,5.72-7.74,6.53-5.11,14.83-8.25,24.7-9.31,2.89-.3,5.37-.66,5.47-.81.4-.35,1.37-.2,6.68,1.11Z"/><path d="m1526.94,1702.36c-5.26,1.52-7.85,3.14-9.97,6.38-4.45,6.63-5.42,14.68-2.48,20.9l1.37,2.99-1.57,1.27c-2.99,2.53-3.8,6.23-1.37,6.23.61,0,3.59-1.21,6.68-2.73,9.31-4.56,18.02-6.23,29.66-5.72,10.93.51,21.66,3.34,34.12,9.06,6.83,3.14,7.95,3.29,8.3,1.06.2-1.47-1.82-3.64-6.23-6.68-7.14-4.91-16.7-8.76-25.61-10.17l-3.8-.61-.86-2.38c-2.43-6.78-10.07-15.79-15.69-18.53-3.49-1.67-8.86-2.13-12.55-1.06Zm2.08,7.09c0,.1-.4.51-.86.86-.81.66-.86.61-.2-.2s1.06-1.06,1.06-.66Zm5.16.15c-.61.15-1.01.4-.91.61.15.2-.05.4-.46.4s-.61-.25-.4-.51c.15-.25-.2-.3-.91-.1-.81.2-.96.15-.56-.15.35-.25,1.52-.46,2.53-.46s1.37.1.71.2Zm4,1.87l1.47,1.27-1.37-.15c-1.06-.05-1.37-.35-1.27-1.01.1-.56-.05-.76-.35-.56-.3.15-.56.05-.56-.2,0-.81.46-.66,2.08.66Zm-11.29,1.62c.25-.15.46.05.46.4,0,.56-.2.61-.96.15-.51-.35-.91-1.06-.86-1.62,0-.91.05-.91.51.15.25.66.66,1.06.86.91Zm-2.99,1.32c-.66.91-1.16,1.92-1.06,2.23.05.35-.25.71-.66.91-.56.2-.71.1-.4-.35.2-.3.4-.71.4-.86.05-.51,2.53-3.95,2.68-3.8.15.1-.3.96-.96,1.87Zm17.01-.51c.2.15.1.46-.15.61s-.76-.05-1.06-.4c-.51-.56-.46-.71.15-.61.46.05.91.25,1.06.4Zm-15.24.3c.15.25-.05.46-.46.46s-.61-.2-.46-.46c.15-.2.35-.4.46-.4s.3.2.46.4Zm17.82,3.19c.61.71.66.91.1,1.27-.35.2-.51.2-.3-.05.66-.66-.66-1.87-1.37-1.27-.4.35-.61.3-.61-.15,0-.96,1.21-.86,2.18.2Zm-20.55,2.28c0,.1-.35.2-.76.2s-.76-.2-.76-.51c0-.25.35-.35.76-.2.4.2.76.4.76.51Zm-.3,2.53c.15.4.1.61-.2.46s-.51-.51-.51-.81c0-.71.35-.56.71.35Zm23.08.91c-.71.71-1.11.1-.71-.91.25-.71.46-.76.76-.2.2.35.2.86-.05,1.11Zm-17.97.3c-.15.25-.61.51-.91.51-.35,0-.3-.2.15-.51.96-.61,1.16-.61.76,0Zm2.13.3c-.15.15-.61.2-.96.05-.4-.15-.25-.3.3-.3.56-.05.86.1.66.25Zm3.7-.1c0,.15-.2.4-.51.56-.25.15-.51.05-.51-.2,0-.3.25-.56.51-.56.3,0,.51.1.51.2Zm3.34.71c-.51.1-1.11,0-1.42-.3s0-.35.96-.2c1.06.25,1.16.35.46.51Zm-4.71.96c-.35.1-.96.1-1.27,0-.35-.15-.1-.25.61-.25s.96.1.66.25Zm-3.7.66c0,.25-.35.51-.81.51-.4,0-.61-.25-.46-.51.15-.3.51-.51.81-.51.25,0,.46.2.46.51Zm-2.68.66c0,.76-1.72,1.01-2.13.3-.15-.25,0-.3.4-.15s.91.05,1.11-.25c.4-.71.61-.71.61.1Zm-3.19.81c.15.25-.05.71-.4,1.01-.51.46-.81.46-1.06.05-.2-.3-.05-.46.35-.4.35.1.61-.15.56-.51-.15-.71.15-.81.56-.15Z"/><path d="m1809.58,2236.16c-2.28.91-1.97,2.38,1.21,5.72,4.61,4.81,5.57,6.58,8,14.53.71,2.38,1.67,4.86,2.18,5.47l.96,1.21,1.37-1.21c2.78-2.43,2.18-10.88-1.27-16.91-1.92-3.34-5.67-7.14-8.3-8.35-2.28-1.06-2.58-1.06-4.15-.46Z"/><path d="m1742.62,2252.46c-.56.61-1.01,1.32-1.01,1.57,0,.3,1.37,1.82,2.99,3.44,5.37,5.21,8.25,10.17,11.19,19.18,2.33,7.14,3.85,10.43,4.96,10.88,1.97.76,3.39-2.99,2.94-7.59-1.11-10.73-7.95-22.93-15.18-27.08-3.09-1.82-4.45-1.87-5.87-.4Z"/><path d="m2194.22,2241.38c-.3.3-.66,1.21-.86,1.92-.3,1.21.15,1.87,3.9,5.62,2.33,2.33,4.96,5.57,5.92,7.19,1.52,2.58,1.77,3.49,2.13,7.79.3,4.15.51,5.01,1.47,5.77,1.42,1.16,2.13,1.16,3.59-.05,1.06-.86,1.21-1.47,1.37-5.11.25-5.26-.46-7.74-3.59-12.6-4.66-7.09-8.91-11.19-11.74-11.19-.91,0-1.87.3-2.18.66Z"/><path d="m2142.08,2254.99c-1.06,1.06-.66,1.72,2.33,3.7,5.37,3.54,9.11,8,12.15,14.43,1.92,4,3.7,6.58,4.56,6.58.2,0,.91-.35,1.52-.81,1.82-1.27,1.57-5.77-.51-9.92-3.14-6.18-8.6-11.95-13.21-13.97-1.82-.76-6.02-.81-6.83,0Z"/></svg>