<?xml version="1.0" encoding="UTF-8"?><svg id="Layer_15" xmlns="http://www.w3.org/2000/svg" width="558.5" height="438" viewBox="0 0 558.5 438"><defs><style>.cls-1{fill:#d93e48;fill-rule:evenodd;}</style></defs><path class="cls-1" d="m279.61,52.35c-.48.78.97,3.33,3.24,5.67,6.53,6.73,9.79,17.62,9.92,33.13.1,12.05-.21,13.81-3.62,20.29-2.05,3.9-5.15,8.5-6.87,10.23-3.29,3.29-4.86,7.91-2.56,7.52.74-.13,4.97-2.65,9.41-5.61,9.88-6.6,17.34-9.33,25.44-9.33,7.39,0,24.8,4.37,31.97,8.03,2.83,1.44,5.69,2.28,6.37,1.86s-1.4-4.6-4.62-9.3c-7.05-10.3-9.03-16.74-8.94-29.03.06-7.38.95-11.41,4.33-19.53,2.34-5.62,3.98-10.51,3.63-10.85-.34-.35-3.68,1.43-7.42,3.95-11.75,7.91-22.57,7.9-40.41-.03-5.8-2.58-12.45-5.53-14.77-6.55-2.93-1.29-4.48-1.43-5.1-.44m-54.54,54.85c-2.08,13.99-6.99,24.31-15,31.51-7.7,6.92-23.36,15-31.11,16.04-9.21,1.23-6.1,4.35,4.34,4.35,13.08,0,35.37,16.55,41.76,31.01,1.46,3.31,3.01,10.15,3.43,15.21.42,5.06,1.18,9.19,1.69,9.19s1.67-4.2,2.58-9.33c2.02-11.28,9.19-26.16,14.97-31.05,6.01-5.08,16.32-9.53,27.52-11.86,5.3-1.11,9.86-2.23,10.13-2.5,1.44-1.44-1.76-3.02-7.55-3.7-12.84-1.52-31.06-13.37-39.03-25.37-4.34-6.54-7.55-16.4-9.33-28.65-1.13-7.77-2.78-5.84-4.42,5.17m102.11,55.54c-14.37.97-32.32,4.77-32.32,6.86,0,.63,4.9,2.77,10.88,4.74,37.22,12.28,61.78,33.41,77.28,66.45,4.44,9.46,4.72,10.87,5.22,26.59.63,19.58-1.47,32.86-7.63,48.25-9.71,24.27-23.58,40.82-45.52,54.36-18.95,11.69-25.11,13.41-47.89,13.34-40.68-.12-67.25-12.52-90.94-42.44-14.12-17.84-19.62-30.03-21-46.57-2.3-27.7,9.77-68.25,25.18-84.56,5.73-6.07,5.74-6.09,3.13-8.7-1.44-1.44-3.44-4.49-4.44-6.79-1.01-2.29-2.9-5.52-4.2-7.17l-2.38-3-4.76,4.98c-24.59,25.73-37.84,67.23-32.16,100.67,6.23,36.61,15.56,54.7,40.43,78.34,19.31,18.36,39.05,27.7,67.38,31.88,25.81,3.81,53.04.72,71.76-8.13,14.23-6.73,38.31-27.07,50.56-42.71,7.97-10.18,14.37-23.56,18.26-38.23,4.63-17.43,4.87-45.54.52-61.44-3.55-13-8.48-23.61-16.49-35.47-3.37-4.99-6.13-9.63-6.13-10.31,0-1.89-25.89-28.07-33.8-34.16-7.46-5.75-12.41-7.36-20.95-6.78m34.35,75.17c-2.02,24.7-6.82,44.3-14.73,60.08-5.92,11.82-22.42,28.64-34.13,34.8-13.53,7.12-21.77,8.93-40.9,8.97-16.32.04-17.79-.18-30.38-4.63-16.08-5.68-28.39-12.4-37.19-20.32-3.63-3.27-6.94-5.6-7.36-5.18-2.51,2.52,8.41,17.53,23.01,31.63,17.71,17.1,31.08,23.77,53.92,26.9,26.35,3.61,50.82-4.69,70-23.73,17.52-17.39,27.55-35.51,31.12-56.21,1.6-9.3,1.61-12.53.01-23.15-1.92-12.78-9.68-39.39-11.49-39.39-.57,0-1.41,4.6-1.87,10.22"/></svg>