<?xml version="1.0" encoding="UTF-8"?><svg id="Layer_15" xmlns="http://www.w3.org/2000/svg" width="1920" height="1080" viewBox="0 0 1920 1080"><defs><style>.cls-1,.cls-2,.cls-3,.cls-4,.cls-5,.cls-6,.cls-7,.cls-8,.cls-9,.cls-10,.cls-11,.cls-12{stroke:#000;stroke-miterlimit:10;}.cls-13{fill:#fedae4;}.cls-14{fill:#ffaab5;}.cls-15{fill:#b7c2e1;}.cls-16{fill:#bddfed;}.cls-17{fill:#d277c5;}.cls-18{fill:#4d50e6;}.cls-2{fill:#ffd6b4;stroke-width:2px;}.cls-3{fill:#feb41d;}.cls-4{fill:#90d057;}.cls-5{fill:#ffe894;}.cls-6{fill:#fd6414;}.cls-7{fill:#e21001;}.cls-8{fill:#ad6fff;}.cls-9{fill:#a6c2ff;}.cls-10{fill:#b392c2;}.cls-11{fill:#6fd7ff;}.cls-12{fill:none;}.cls-19{opacity:.5;}</style></defs><rect class="cls-9" x=".5" y=".5" width="1919" height="1080"/><rect class="cls-12" x=".5" y=".5" width="1919" height="1080"/><g class="cls-19"><path class="cls-13" d="m2.82,1085.52c-1.15-3.45-2.3-6.91-3.45-10.36l.2,3.62c4.99-111.01,4.45-222.28-1.6-333.24l-.33-.17c1.46-1.43,2.91-2.86,4.37-4.29-1.36.93-2.72,1.86-4.08,2.79-.04-4.02,1.81-8.01,4.89-10.59l-5.75,20.59c2.16-16.8,15.59-30.51,31.09-37.36,15.49-6.84,32.86-7.93,49.8-8.11,9.7-.11,19.56.07,28.85,2.9,9.28,2.83,18.05,8.66,22.37,17.35l-15.1-13.2c6.72-49.95,50.55-92.43,100.68-97.6,50.13-5.17,101.7,27.48,118.48,75l-1.56-8.91c18.87-12.09,44.11-13.49,64.21-3.57,20.1,9.92,34.34,30.81,36.22,53.14l-1.29-20.89c28.75-13.88,65.87-7.91,88.82,14.28,22.95,22.19,30.17,59.09,17.27,88.29l5.75-18.32c8.84-.85,17.95,1.35,25.43,6.14l1.74,1.72c.79-14.7,11.3-28.41,25.3-32.98,14-4.57,30.57.29,39.89,11.7l-3.25-7.91c-5.15-19.43,8.09-40.02,25.73-49.67,17.64-9.65,38.55-10.8,58.65-11.06,14.2-.18,28.68.01,42.17,4.45,13.49,4.43,26.06,13.78,31.02,27.09l2.08-.33c45.95-19.25,103.56-5.79,136.22,31.84l1.38-3c56.54-36.44,127.99-48.91,193.53-33.8,65.54,15.11,124.31,57.62,159.19,115.14l.44-.32c3.5,76.01.28,152.33-9.62,227.77"/><path d="m4.27,1085.13c-1.15-3.45-2.3-6.91-3.45-10.36-.51-1.53-3.04-1.37-2.95.4l.2,3.62c.11,1.92,2.91,1.94,3,0,4-89.83,4.45-179.82,1.26-269.68-.44-12.29-.94-24.58-1.51-36.87-.3-6.36-.61-12.71-.94-19.06-.12-2.36,1.05-7.78-1.48-9.09.1.79.2,1.57.3,2.36,1.46-1.43,2.91-2.86,4.37-4.29,1.19-1.16-.38-3.34-1.82-2.36-1.36.93-2.72,1.86-4.08,2.79.75.43,1.5.86,2.26,1.3.27-3.97,1.61-6.76,4.46-9.53-.84-.49-1.67-.97-2.51-1.46-1.92,6.86-3.83,13.73-5.75,20.59l2.89.8c4.08-26.46,30.1-39.5,54.2-42.81,12.98-1.79,26.76-2.3,39.82-1.2,14.01,1.18,28.27,6.14,35.34,19.16.79-.61,1.57-1.21,2.36-1.82-4.12-3.6-8.25-7.21-12.37-10.81-3.01-2.63-2.24-2.25-1.47-6.31,1.01-5.34,2.46-10.6,4.28-15.72,7.39-20.79,21.26-39.17,38.69-52.62,36.6-28.26,85.5-30.28,124.83-6.21,21.69,13.28,38.9,33.36,47.61,57.34.66,1.83,3.23,1.1,2.89-.8-.29-1.65-2.08-6.72-1.42-8.13.13-.28,3.15-1.45,4.47-2.11,3.21-1.63,6.56-2.96,10-4.01,12.73-3.89,26.6-3.88,39.28.2,24.01,7.72,41.12,30.25,43.6,55.11.19,1.89,3.12,1.95,3,0-.28-4.51-.56-9.02-.84-13.54-.1-1.6-.95-5.02-.4-6.52.34-.93,7.11-2.8,9.31-3.46,18.73-5.71,39.61-3.94,57.27,4.46,36.6,17.42,52.41,63.04,36.67,99.98.91.39,1.83.77,2.74,1.16,1.64-5.22,3.28-10.44,4.92-15.67.13-.43.38-2.15.76-2.41-.06.04,7.43.98,8.44,1.15,5.78.93,12.07,2.96,16.3,7.13.98.97,2.46.2,2.56-1.06,1.17-14.4,11.03-27.63,25.08-31.79,13.62-4.04,28.4.98,37.54,11.58.94,1.09,3.08-.07,2.51-1.46-1.92-4.66-3.88-8.79-4.23-13.91-.58-8.43,2.14-16.71,6.6-23.78,10.21-16.19,28.06-23.97,46.36-26.92,18.33-2.95,38.58-3.46,57.01-1.16,18.71,2.34,38.22,10.92,45.69,29.47.33.82.96,1.19,1.85,1.05,4.85-.77,9.48-3.23,14.23-4.59,6.34-1.82,12.85-3.08,19.41-3.76,12.68-1.33,25.57-.61,38.04,2.02,25.1,5.29,48.15,18.2,65.16,37.46.6.68,1.96.55,2.36-.3,2.11-4.59,7.57-6.7,11.84-9.15,6.21-3.55,12.57-6.82,19.06-9.82,12.87-5.94,26.25-10.76,39.93-14.46,26.11-7.06,53.33-9.99,80.35-8.56,52.63,2.77,103.42,22.96,144.23,56.2,22.18,18.06,41.17,39.74,56.1,64.13.39.64,1.39,1.03,2.05.54l.44-.32c-.75-.43-1.5-.86-2.26-1.3,3.43,76.05.21,152.28-9.62,227.77-.25,1.91,2.75,1.89,3,0,9.83-75.49,13.05-151.72,9.62-227.77-.05-1.03-1.28-2.01-2.26-1.3l-.44.32c.68.18,1.37.36,2.05.54-27.37-44.73-68.54-80.46-116.62-101.42-50.62-22.06-107.63-26.38-161.21-13.33-15.41,3.75-30.48,8.94-44.93,15.47-7.17,3.24-14.18,6.81-21.01,10.71-4.99,2.85-10.47,4.89-12.92,10.22.79-.1,1.57-.2,2.36-.3-17.32-19.61-40.93-32.83-66.49-38.23-12.73-2.69-25.89-3.47-38.83-2.12-5.92.62-11.79,1.65-17.55,3.15-5.65,1.47-11.17,4.41-16.89,5.32.62.35,1.23.7,1.85,1.05-6.94-17.23-23.59-27.01-41.2-30.51-10.99-2.19-22.28-2.27-33.44-2.13-10.61.14-21.26.52-31.75,2.24-18.78,3.07-36.9,11.13-47.65,27.5-4.54,6.92-7.48,15.02-7.6,23.35-.1,6.48,2.02,11.62,4.42,17.46l2.51-1.46c-10.21-11.83-27.27-17.11-42.21-11.78-14.53,5.18-24.31,18.94-25.54,34.12l2.56-1.06c-7.1-7-18.64-8.97-28.23-8.3-.69.05-1.24.44-1.45,1.1-1.92,6.11-3.83,12.21-5.75,18.32-.5,1.59,2.07,2.74,2.74,1.16,12.82-30.08,6.21-67.18-17.5-90.11-23.71-22.92-61-28.34-90.64-14.51-.44.21-.77.81-.74,1.3.43,6.96.86,13.93,1.29,20.89h3c-2.2-22.01-14.99-42.37-34.49-53.13-21.19-11.69-47.77-10.34-68.2,2.27-.61.38-.81,1.02-.69,1.69.52,2.97,1.04,5.94,1.56,8.91l2.89-.8c-15.81-43.51-59-74.72-105.25-76.55-46.56-1.85-90.54,28.76-108.85,70.96-2.45,5.66-4.46,11.5-5.93,17.49-.75,3.07-3.15,9.3-1.57,12.23,1.36,2.51,5.83,5.1,7.94,6.95,2.36,2.06,4.72,4.13,7.08,6.19,1.26,1.1,3.2-.27,2.36-1.82-6.18-11.38-17.89-17.52-30.33-19.7-15.38-2.69-32.41-1.82-47.83.29-25.18,3.45-52.44,17.41-56.69,44.98-.29,1.86,2.36,2.71,2.89.8,1.92-6.86,3.83-13.73,5.75-20.59.41-1.46-1.44-2.5-2.51-1.46-3.38,3.29-5.02,6.96-5.33,11.65-.07,1.1,1.34,1.92,2.26,1.3,1.36-.93,2.72-1.86,4.08-2.79-.61-.79-1.21-1.57-1.82-2.36-1.46,1.43-2.91,2.86-4.37,4.29-.66.65-.55,1.91.3,2.36.51.27.31,12.68.38,14.12.3,5.93.58,11.86.84,17.79.47,10.59.9,21.19,1.27,31.79.76,21.62,1.31,43.24,1.65,64.87.68,43.26.53,86.53-.46,129.78-.56,24.59-1.41,49.18-2.5,73.76H1.07l-.2-3.62c-.98.13-1.96.27-2.95.4,1.15,3.45,2.3,6.91,3.45,10.36.61,1.82,3.51,1.04,2.89-.8h0Z"/></g><path class="cls-1" d="m1788.58,971.9h-36.77c0-48.6-9.21-95.76-27.39-140.17-17.57-42.93-42.72-81.48-74.76-114.6-32.08-33.16-69.46-59.2-111.09-77.4-43.16-18.87-88.99-28.43-136.24-28.43s-93.09,9.57-136.24,28.43c-41.63,18.2-79.01,44.24-111.09,77.4-32.04,33.12-57.19,71.67-74.76,114.6-18.17,44.41-27.39,91.57-27.39,140.17h-36.77c0-53.4,10.14-105.24,30.13-154.1,19.35-47.27,47.06-89.75,82.36-126.24,35.43-36.62,76.74-65.4,122.79-85.53,47.83-20.91,98.62-31.51,150.97-31.51s103.14,10.6,150.97,31.51c46.05,20.13,87.36,48.91,122.79,85.53,35.31,36.49,63.02,78.97,82.36,126.24,19.99,48.85,30.13,100.7,30.13,154.1Z"/><path class="cls-7" d="m1904.62,913.34c.05-26.91,1.99-55.01,11.09-80.53.43-1.21.92-2.36,1.44-3.49-6.06-22.79-13.58-45.22-22.59-67.22-26.46-64.67-64.41-122.81-112.78-172.81-48.83-50.47-105.88-90.18-169.58-118.02-66.52-29.08-137.14-43.83-209.89-43.83s-143.37,14.75-209.89,43.83c-63.7,27.85-120.75,67.56-169.58,118.02-48.37,50-86.32,108.14-112.78,172.81-27.26,66.62-41.08,137.21-41.08,209.8h36.77c0-67.79,12.9-133.7,38.34-195.87,24.68-60.32,60.07-114.54,105.18-161.17,45.48-47.01,98.6-83.98,157.88-109.9,61.85-27.04,127.51-40.75,195.16-40.75s133.31,13.71,195.16,40.75c59.28,25.92,112.4,62.89,157.88,109.9,45.11,46.62,80.49,100.85,105.18,161.17,25.44,62.18,38.34,128.08,38.34,195.88h7.44c-.56-19.52-1.75-39.02-1.71-58.56Z"/><path class="cls-6" d="m1898.89,971.9h-36.77c0-63-11.98-124.21-35.61-181.95-22.9-55.97-55.73-106.28-97.57-149.52-42.13-43.54-91.31-77.79-146.18-101.77-57.18-25-117.88-37.67-180.43-37.67s-123.25,12.67-180.43,37.67c-54.87,23.99-104.05,58.23-146.18,101.77-41.84,43.25-74.67,93.55-97.57,149.52-23.63,57.74-35.61,118.95-35.61,181.95h-36.77c0-67.79,12.9-133.7,38.34-195.87,24.68-60.32,60.07-114.54,105.18-161.17,45.48-47.01,98.6-83.98,157.88-109.9,61.85-27.04,127.51-40.75,195.16-40.75s133.31,13.71,195.16,40.75c59.28,25.92,112.4,62.89,157.88,109.9,45.11,46.62,80.49,100.85,105.18,161.17,25.44,62.18,38.35,128.08,38.35,195.87Z"/><path class="cls-3" d="m1862.12,971.9h-36.77c0-58.2-11.06-114.73-32.87-168.02-21.12-51.62-51.39-98.01-89.97-137.88-38.78-40.08-84.03-71.59-134.49-93.65-52.5-22.95-108.25-34.59-165.7-34.59s-113.2,11.64-165.7,34.59c-50.46,22.06-95.71,53.57-134.49,93.65-38.57,39.87-68.84,86.26-89.97,137.88-21.81,53.29-32.87,109.83-32.87,168.02h-36.77c0-63,11.98-124.21,35.61-181.95,22.9-55.97,55.73-106.28,97.57-149.52,42.13-43.54,91.31-77.79,146.18-101.77,57.18-25,117.88-37.67,180.43-37.67s123.25,12.67,180.43,37.67c54.87,23.99,104.05,58.23,146.18,101.77,41.84,43.25,74.67,93.55,97.57,149.52,23.63,57.74,35.61,118.95,35.61,181.95Z"/><path class="cls-4" d="m1825.35,971.9h-36.77c0-53.4-10.14-105.24-30.13-154.1-19.34-47.27-47.06-89.75-82.36-126.24-35.43-36.62-76.74-65.4-122.79-85.53-47.83-20.91-98.62-31.51-150.97-31.51s-103.14,10.6-150.97,31.51c-46.05,20.13-87.36,48.91-122.79,85.53-35.31,36.49-63.02,78.97-82.36,126.24-19.99,48.85-30.13,100.7-30.13,154.1h-36.77c0-58.2,11.06-114.73,32.87-168.02,21.12-51.62,51.39-98.01,89.97-137.88,38.78-40.08,84.03-71.59,134.49-93.65,52.5-22.95,108.25-34.59,165.7-34.59s113.2,11.64,165.7,34.59c50.46,22.06,95.71,53.57,134.49,93.65,38.57,39.87,68.84,86.26,89.97,137.88,21.81,53.29,32.87,109.83,32.87,168.02Z"/><path class="cls-11" d="m1788.58,971.9h-36.77c0-48.6-9.21-95.76-27.39-140.17-17.57-42.93-42.72-81.48-74.76-114.6-32.08-33.16-69.46-59.2-111.09-77.4-43.16-18.87-88.99-28.43-136.24-28.43s-93.09,9.57-136.24,28.43c-41.63,18.2-79.01,44.24-111.09,77.4-32.04,33.12-57.19,71.67-74.76,114.6-18.17,44.41-27.39,91.57-27.39,140.17h-36.77c0-53.4,10.14-105.24,30.13-154.1,19.35-47.27,47.06-89.75,82.36-126.24,35.43-36.62,76.74-65.4,122.79-85.53,47.83-20.91,98.62-31.51,150.97-31.51s103.14,10.6,150.97,31.51c46.05,20.13,87.36,48.91,122.79,85.53,35.31,36.49,63.02,78.97,82.36,126.24,19.99,48.85,30.13,100.7,30.13,154.1Z"/><path class="cls-8" d="m1751.81,971.9h-36.77c0-43.8-8.29-86.27-24.65-126.24-15.79-38.58-38.38-73.22-67.15-102.96-28.73-29.7-62.17-53.01-99.39-69.28-38.48-16.82-79.36-25.35-121.51-25.35s-83.03,8.53-121.51,25.35c-37.22,16.27-70.66,39.58-99.39,69.28-28.77,29.74-51.37,64.38-67.15,102.96-16.36,39.97-24.65,82.44-24.65,126.24h-36.77c0-48.6,9.21-95.76,27.39-140.17,17.57-42.93,42.72-81.48,74.76-114.6,32.08-33.16,69.46-59.2,111.09-77.4,43.16-18.87,88.99-28.43,136.24-28.43s93.09,9.57,136.24,28.43c41.63,18.2,79.01,44.24,111.09,77.4,32.04,33.12,57.19,71.67,74.76,114.6,18.17,44.41,27.39,91.57,27.39,140.17Z"/><path class="cls-2" d="m1918.5,672.5l1,408-1439-1-.24.3c4.18-11.76,14.92-20.24,26.58-24.71,11.66-4.46,24.31-5.48,36.75-6.45l-2.07,1.69c-1.35-19.13,3.93-38.66,14.71-54.51,10.79-15.85,27.02-27.92,45.31-33.68,16.47-5.19,34.05-5.31,51.32-5.39,10.9-.05,21.95-.08,32.46,2.81,9.95,2.73,19.29,8.2,25.74,16.26l-.97.67c6.01-16,17.78-29.77,32.66-38.2,14.87-8.43,32.74-11.44,49.55-8.37l-.25.52c2.51-22.43,11.1-44.16,24.61-62.24,13.51-18.09,31.9-32.49,52.7-41.26,24.61-10.38,51.78-12.79,78.47-13.8l-1.57-.5c21.34,1.89,43.21,4.92,61.84,15.49,16.23,9.21,28.89,23.53,40.38,38.23,8.21,10.5,16.36,22.52,15.61,35.83l-7.55,6.63c9.42-9.18,23.72-10.66,36.86-11.26,14.14-.65,28.37-.86,42.39,1.12s27.88,6.24,39.74,13.97l-8.24-7.4c12.65-18.49,31.78-32.45,53.25-38.86l-5.9,1.01c18.37-6.66,37.48-11.77,57-12.76,19.52-.99,39.54,2.3,56.72,11.62l-3.97-2.86c.21-5.03,3.07-9.67,6.86-12.99,3.79-3.32,8.44-5.47,13.12-7.33,19.93-7.94,41.66-11.34,63.06-9.87l-6.15-1.43c1.44-18.68,9.22-36.82,21.75-50.75,12.53-13.93,29.75-23.58,48.17-26.98l-5.85.47c-7.3-5.68-10.35-15.68-9.3-24.87,1.05-9.19,5.69-17.63,11.4-24.91,11.74-14.98,28.53-26.03,47.04-30.45,18.51-4.43,38.63-2.12,55.46,6.77l1.25.04c9.49-14.59,19.96-29.81,35.85-36.9,9.04-4.03,19.18-5.07,29.06-4.47s19.58,2.79,29.24,4.96l1.07,1.04c2.22-14.83,10.75-28.32,22.19-38.03,11.44-9.7,26.88-12.36,40.21-19.22,37.46-19.27,100.34,10.79,89.68,7.02-4.55-1.61,24.42,7.95,37,25,12.11,16.41,20,39,15.1,62.82l-1.24-.78c13.72-10.78,32.66-14.58,49.48-9.92l-.81-.41c2.16.62,4.31,1.23,6.47,1.85"/><path class="cls-5" d="m137.95,791.01c-14-6.48-30.25-8.01-45.21-4.24-14.97,3.77-28.55,12.8-37.82,25.14l7.91,7.83c-17.17-14.35-43.37-16.74-62.85-5.73l-.49.49,1,190,.28.12c22.69-.2,45.22-8.83,62.23-23.85l-6.69-3.79c32.52,22.45,75.46,29.08,113.23,17.47l-9.68-9.34c11.42,15.11,29.78,24.08,48.57,26.49,18.78,2.41,37.95-1.27,55.71-7.86,17.75-6.59,34.29-16.03,50.68-25.53l-8.77-6.22c13.35,11.13,32.1,15.44,48.97,11.27,16.87-4.18,31.44-16.74,38.06-32.8l-12.24-9.81c5.44,7.93,14.67,12.67,24.12,14.45,9.45,1.78,19.19.9,28.71-.47,10.14-1.46,20.56-3.62,28.83-9.66,13.12-9.56,18.2-28,13.81-43.63s-17.13-28.15-32.1-34.43c-14.97-6.27-31.92-6.77-47.86-3.73l1.82-.54c1.87-14.21-4.5-28.79-14.92-38.62-10.43-9.83-24.48-15.23-38.7-17.04-14.22-1.81-28.66-.26-42.75,2.38l.55,2.13c1.38-9.09-.9-18.49-5.24-26.6-4.34-8.11-10.64-15.02-17.51-21.12-23.6-20.94-55.77-33.05-87.08-29.15-31.31,3.89-60.75,25.09-71.16,54.87"/><path class="cls-16" d="m1544.2,510.21c-5.96,3.11-12.26,5.8-18.93,6.66s-13.79-.25-19.25-4.18-8.9-10.94-7.54-17.52l5.08,14.86c-9.51,8.72-24.16,17.14-37.06,17.47-5.9.15-12.74-6.92-17-11-3.26-3.12-3.32-7.57-3.02-12.07s1.97-8.79,3.81-12.91l-4.55,12.24c-13.37,4.17-16.53,5.46-24.24,3.73-27.46-6.19-23.49-35.97-15-48,5.85-8.28,22.85-11.43,32.9-10.15l-.11-2.48c-3.16-11.69,4.82-23.54,14.03-31.41,14.65-12.52,34.34-19.99,53.4-17.11,19.06,2.88,36.65,17.4,40.27,36.33l-.7,2.26c11.42-12.65,30.67-17.56,46.76-11.92,16.08,5.64,28.05,21.5,29.07,38.51l1.92,1.99c5.45-7.39,17.12-8.17,24.76-3.08,7.64,5.09,11.47,14.56,11.84,23.74.42,10.25-3.26,20.91-10.99,27.66s-19.67,8.83-28.63,3.83c-8.96-4.99-13.41-17.38-8.54-26.41l-1.58,16.01c-15.16,12.61-37.46,15.96-55.66,8.35-8.97-3.75-17.66-11.43-17.49-21.15"/><path d="m1543.44,508.92c-7.05,3.67-14.71,6.83-22.8,6.73-7.2-.09-14.59-2.93-18.49-9.28-1.98-3.21-2.94-7.05-2.22-10.79h-2.89c1.69,4.95,3.39,9.9,5.08,14.86l.39-1.46c-8.35,7.61-18.8,13.98-29.96,16.31-2.33.48-5.09,1.06-7.46.61s-4.43-1.77-6.32-3.15c-2.07-1.5-3.97-3.26-5.82-5.02-1.77-1.69-3.7-3.25-4.47-5.66-.91-2.9-.76-6.33-.3-9.3.55-3.65,1.93-7.12,3.43-10.47l-2.74-1.16c-1.52,4.08-3.04,8.16-4.55,12.24l1.05-1.05c-4.69,1.46-9.4,3.19-14.24,4.08-3.27.6-6.49.3-9.71-.47-7.51-1.8-14.06-6.1-17.35-13.25-2.73-5.93-2.88-12.91-1.61-19.22,1.16-5.76,3.45-12.41,8.27-16.14,3.99-3.09,9.06-4.71,13.94-5.71,4.82-.99,9.86-1.36,14.76-.76.78.1,1.53-.77,1.5-1.5-.07-1.55-.24-2.93-.52-4.45-.46-2.51-.37-5.13.15-7.62,1.11-5.3,3.95-10.13,7.39-14.25,6.98-8.36,16.67-14.83,26.71-18.92,10.07-4.1,21.24-5.98,32.04-4.26,9.41,1.5,18.38,5.79,25.45,12.19,3.92,3.55,7.25,7.71,9.7,12.4,1.22,2.33,2.2,4.77,2.92,7.29.18.64.35,1.28.5,1.92.05.2.07.51.16.71.06.49.1.47.13-.05l-.05.16c-.34.54-.45,1.44-.64,2.06-.44,1.41,1.5,2.57,2.51,1.46,9.39-10.3,24.05-15.44,37.85-13.37,13.76,2.06,25.43,11.39,31.42,23.81,1.67,3.46,2.85,7.16,3.51,10.94.16.89.28,1.79.37,2.69s-.01,1.82.57,2.55,1.27,1.32,1.9,1.97c.73.76,1.79.44,2.36-.3,5.04-6.68,15.41-7.03,22.14-2.9,8.21,5.04,11.75,15.36,11.7,24.58-.05,9.6-3.85,19.67-11.6,25.67-7.27,5.62-18.11,7.32-26.23,2.5s-11.96-15.76-7.56-24.11c-.93-.25-1.86-.5-2.8-.76-.53,5.34-1.05,10.67-1.58,16.01l.44-1.06c-8.7,7.18-19.81,11.27-31.05,11.87-10.76.57-22.65-1.83-31.25-8.66-4.64-3.68-8.33-8.82-8.29-14.95.01-1.93-2.99-1.93-3,0-.05,8.41,5.79,15.21,12.57,19.5,7.14,4.52,15.77,6.69,24.15,7.11,8.54.43,17.2-1.08,25.08-4.37,3.95-1.65,7.7-3.71,11.15-6.24,1.16-.85,2.97-1.79,3.2-3.29.1-.63.13-1.28.19-1.92.46-4.67.92-9.34,1.38-14.01.15-1.5-2.13-2.02-2.8-.76-4.51,8.58-1.66,19.62,5.48,25.89,8,7.03,20.03,6.91,29.07,1.99,9.82-5.35,15.28-16.22,16.28-27.07.95-10.37-2.23-22.09-10.61-28.81-8.35-6.7-21.88-6.71-28.65,2.26l2.36-.3c-.64-.66-1.28-1.33-1.92-1.99l.44,1.06c-.88-13.7-8.31-26.46-19.44-34.4-11.36-8.11-26.15-9.93-39.36-5.68-7.46,2.39-14.3,6.63-19.58,12.43l2.51,1.46c.19-.6.39-1.2.56-1.81.29-1.03,0-1.99-.24-3.02-.59-2.46-1.44-4.85-2.46-7.16-2.04-4.61-4.94-8.83-8.37-12.51-6.88-7.38-16.02-12.69-25.81-15.09-11.14-2.73-23.04-1.64-33.83,2.06-10.84,3.72-21.25,10.01-29.24,18.27-4.45,4.61-8.3,10.09-10.16,16.28-.86,2.88-1.27,5.95-1.01,8.95.11,1.29.48,2.58.64,3.81.1.73.06,1.49.1,2.22l1.5-1.5c-5.49-.68-11.19-.13-16.58,1.08-5.44,1.23-11.07,3.31-15.25,7.11-2.89,2.64-4.72,6.33-6.11,9.94-1.49,3.87-2.37,7.98-2.68,12.11-.64,8.65,1.71,17.76,8.24,23.81,6.96,6.45,17.47,9.17,26.67,7.01,2.92-.69,5.78-1.61,8.64-2.51.87-.27,1.75-.55,2.62-.82.98-.31,1.79-.43,2.23-1.42.14-.31.24-.65.36-.97,1.28-3.45,2.57-6.91,3.85-10.36.11-.3.22-.6.34-.91.59-1.58-2.05-2.71-2.74-1.16-2.77,6.2-4.86,12.77-3.94,19.65.38,2.86,1.52,5.33,3.6,7.35,1.96,1.9,3.93,3.81,6.03,5.56,2.16,1.8,4.46,3.51,7.06,4.62,2.46,1.05,4.82,1.15,7.46.87,6.32-.68,12.39-2.85,18.04-5.71,6.3-3.18,12.16-7.27,17.37-12.02.37-.34.55-.98.39-1.46-1.69-4.95-3.39-9.9-5.08-14.86-.44-1.29-2.59-1.56-2.89,0-1.48,7.71,2.49,15.45,8.92,19.69,7.22,4.76,16.5,5,24.65,2.88,5.01-1.3,9.77-3.46,14.35-5.85,1.71-.89.2-3.48-1.51-2.59h0Z"/><path class="cls-10" d="m164.52,404.68c-.6-16.51-11.74-31.36-25.93-39.82-14.18-8.46-31.03-11.35-47.53-12.06-14.11-.61-28.85.42-41.18,7.33-12.32,6.91-21.5,21-18.91,34.89l8.78,8.88c-3.34-6.52-11.12-9.78-18.44-9.81s-14.37,2.59-21.23,5.17l.42.23,2,108h.01c1.77,11.55,11.48,20.24,21.56,26.18,29.14,17.15,66.71,19.06,97.43,4.93l-6.36-17.57c-.09,9.46,5.42,18.34,12.82,24.23,7.4,5.89,16.52,9.19,25.66,11.65,17.55,4.73,36.32,6.71,53.83,1.84,17.51-4.87,33.53-17.48,39.07-34.78l-15.91-6.7c18.77,10.69,43.81,9.1,61.09-3.86l-9.79-14.01c12.83,22.42,43.43,32.66,67.17,22.48s37.42-39.41,30.02-64.16c-7.4-24.75-34.86-41.68-60.3-37.17l-2.36,13.66c4.7-9.19,3.4-20.85-2.33-29.44-5.73-8.58-15.43-14.12-25.61-15.84s-20.76.15-30.27,4.16l9.37,10.01c-12.11-17.58-30.97-30.4-51.77-35.2s-43.37-1.53-61.96,8.97"/><path class="cls-14" d="m409.5,188.04c-3.38-7.2.47-16.14,6.76-21.01,6.29-4.87,14.38-6.61,22.2-8.05,4.4-.81,9.61-1.34,12.73,1.88l-2.86,11.07c-.27-7.15,4.6-13.75,10.79-17.35,6.19-3.6,13.49-4.7,20.63-5.23,11.72-.87,23.82-.36,34.73,4.04s20.5,13.17,23.62,24.51l-9.33,7.06c4.75-4.83,11.83-6.77,18.6-6.68s13.37,2,19.88,3.89c6.95,2.02,14.27,4.27,19.1,9.66,5.45,6.09,6.54,15.02,5.45,23.12-1.31,9.73-5.51,19.18-12.44,26.14-6.93,6.96-16.65,11.26-26.47,10.95l.29-7.53c-.19,7.28-.7,15.33-5.87,20.46-3.89,3.86-9.75,5.19-15.21,4.76-5.46-.43-10.67-2.41-15.79-4.37l2.46-9.84c-.61,7.56-6.07,14.13-12.79,17.64-6.73,3.5-14.55,4.32-22.12,4.06-8.6-.29-17.4-1.99-24.57-6.76-7.16-4.77-12.39-13.05-11.76-21.63l4.2-4.74c-11.46,9.85-28.36,12.89-42.53,7.65-14.17-5.24-25.03-18.55-27.32-33.48-1.08-7.04-.21-14.73,4.15-20.36,3.91-5.04,10.18-7.84,16.49-8.76,6.31-.91,12.74-.14,19.05.83"/><path d="m410.79,187.28c-2.95-6.52.64-14.14,5.68-18.51,6.12-5.29,14.67-6.95,22.38-8.36,3.65-.67,8.35-1.38,11.27,1.49l-.39-1.46c-.95,3.69-1.91,7.38-2.86,11.07.98.13,1.96.27,2.95.4-.17-6.72,4.28-12.64,9.88-15.96,6.61-3.92,14.54-4.8,22.07-5.26,14.72-.88,30.58.7,42.6,10.06,5.74,4.47,10.28,10.48,12.27,17.52l.69-1.69c-3.11,2.35-6.22,4.71-9.33,7.06l1.82,2.36c6.81-6.78,17.16-7.06,26.03-5.27,4.94,1,9.81,2.44,14.61,3.94,4.19,1.31,8.41,2.88,11.95,5.55,7.29,5.47,8.94,14.97,8.02,23.54-.96,8.95-4.61,17.85-10.6,24.6-6.79,7.64-16.66,12.41-26.95,12.15l1.5,1.5c.1-2.51.19-5.02.29-7.53h-3c-.17,6.06-.36,12.99-4.21,18.02-4.15,5.44-11.65,6.48-17.99,5.36-4.41-.78-8.61-2.39-12.77-3.98l1.05,1.85c.82-3.28,1.64-6.56,2.46-9.84-.98-.13-1.96-.27-2.95-.4-.51,5.59-3.89,10.56-8.26,13.93-5.04,3.89-11.44,5.61-17.7,6.11-11.94.97-26.18-.77-35.11-9.53-4.61-4.52-7.59-10.67-7.18-17.21l-.44,1.06,4.2-4.74c1.29-1.46-.65-3.37-2.12-2.12-14.12,12.02-35.64,13-50.64,2.07-7.04-5.13-12.49-12.58-15.18-20.86-2.77-8.51-3.19-19.43,3.25-26.47,8.34-9.13,22.01-8.04,33.08-6.35,1.89.29,2.7-2.6.8-2.89-11.04-1.69-23.51-2.75-32.98,4.41-8.63,6.53-10.28,17.83-8.17,27.88,1.96,9.29,7.15,17.88,14.26,24.14,7.37,6.49,16.65,10.31,26.47,10.78,11.29.54,22.63-3.25,31.24-10.58l-2.12-2.12c-1.2,1.36-2.4,2.71-3.61,4.07-.7.79-1.04,1.35-1.07,2.49-.06,1.82.14,3.65.53,5.43,1.59,7.17,6.59,13.34,12.72,17.2,6.88,4.33,15.11,6.01,23.13,6.44,8.26.44,16.92-.32,24.36-4.2,7.18-3.74,12.79-10.72,13.54-18.93.15-1.7-2.54-2.02-2.95-.4-.82,3.28-1.64,6.56-2.46,9.84-.21.84.27,1.55,1.05,1.85,7.52,2.88,15.53,5.75,23.67,3.89,3.44-.79,6.75-2.46,9.18-5.06,2.38-2.55,3.85-5.77,4.67-9.13.96-3.91,1.14-7.98,1.25-11.99.05-1.93-2.93-1.93-3,0-.1,2.51-.19,5.02-.29,7.53-.03.83.71,1.48,1.5,1.5,9.87.25,19.52-3.82,26.66-10.55,7.24-6.82,11.81-16.28,13.45-26.03,1.53-9.08.71-19.44-5.86-26.49-3.32-3.57-7.76-5.79-12.28-7.46-4.87-1.79-9.95-3.2-14.98-4.43-10.82-2.65-23.67-3.16-32.17,5.32-1.16,1.16.42,3.41,1.82,2.36,3.11-2.35,6.22-4.71,9.33-7.06.54-.41.89-1,.69-1.69-4-14.2-16.9-23.8-30.65-27.56-8.21-2.25-16.83-2.71-25.3-2.32-8.17.37-16.72,1.19-24.08,5.03-7.11,3.71-12.89,10.97-12.68,19.28.04,1.66,2.51,2.08,2.95.4.95-3.69,1.91-7.38,2.86-11.07.13-.52,0-1.08-.39-1.46-3.05-2.99-7.39-3.21-11.41-2.7-4.52.58-9.09,1.55-13.46,2.87-8.31,2.5-16.02,7.25-19.33,15.63-1.69,4.29-1.77,8.99.14,13.21.8,1.76,3.38.23,2.59-1.51h0Z"/><path class="cls-18" d="m1920.37,322.09c-8.95,5.46-21.86,3.06-28.25-5.25l9.39-7.27c-6.63,6.54-13.53,13.27-22.26,16.52-8.73,3.25-19.84,2.07-25.56-5.28l4.46-10.5c-7.7,21.58-27.78,37.5-50,43.09-22.22,5.59-46.14,1.65-66.98-7.87-10.7-4.89-20.99-11.46-27.8-21.05-6.81-9.59-9.58-22.64-4.78-33.38l10.74-5.96c-16.04,6.89-34.64,13.77-50.3,6.04-10.38-5.12-17.04-15.91-19.92-27.11-5.66-22.07,2.52-47.08,20.12-61.55s43.73-17.62,64.28-7.78l.99-.79c6.43-28.32,26.56-53.2,52.92-65.39,26.36-12.19,58.35-11.42,84.09,2.02,13.04,6.81,24.85,17.24,29.99,31.03l-7.75,5.54c5.7-8.26,17.05-12.12,26.61-9.07"/><path d="m1919.61,320.8c-8.56,5.11-20.3,2.79-26.43-5.02v2.12c3.13-2.42,6.26-4.84,9.39-7.27l-2.12-2.12c-9.72,9.6-22.17,21.24-37.08,16.92-3.42-.99-6.39-2.89-8.62-5.68l.23,1.82c1.49-3.5,2.98-7,4.46-10.5l-2.74-1.16c-4.68,12.99-14.01,23.94-25.42,31.57-12.47,8.34-27.12,12.58-42.08,12.96-16.7.42-33.41-3.67-48.48-10.77-13.55-6.38-26.98-16.05-31.53-31.02-1.09-3.58-1.64-7.3-1.5-11.04.07-1.85.31-3.68.75-5.48.2-.83.44-1.64.72-2.45.1-.28.49-.92.45-1.2,0-.05-.06-.43-.27-.1.01-.02.06-.02.08-.04.32-.34,1.02-.57,1.42-.79l2.69-1.49c1.84-1.02,3.68-2.04,5.52-3.06.34-.19.69-.38,1.03-.57,1.73-.96.21-3.33-1.51-2.59-13.93,5.98-30.58,12.73-45.75,7.33-13.48-4.8-21.03-18.79-23.26-32.22-2.2-13.27.54-27.27,7.09-38.96,6.76-12.06,17.58-21.3,30.64-25.91,13.07-4.62,27.66-4.78,40.72-.05,1.62.59,3.2,1.25,4.76,1.99.67.32,1.25.21,1.82-.23.89-.7,1.29-1.08,1.56-2.24.41-1.72.86-3.42,1.37-5.11.97-3.25,2.12-6.45,3.45-9.57,2.66-6.23,6-12.18,9.91-17.72,7.82-11.08,18.02-20.53,29.75-27.35,25.84-15.04,58.94-16.4,86.08-3.92,14.19,6.52,27.7,17.12,33.37,32.13.23-.56.46-1.13.69-1.69-2.58,1.85-5.17,3.69-7.75,5.54l2.05,2.05c5.45-7.74,15.92-11.16,24.91-8.38,1.85.57,2.64-2.32.8-2.89-10.35-3.21-22.09.94-28.3,9.76-.85,1.2.85,2.91,2.05,2.05,2.58-1.85,5.17-3.69,7.75-5.54.5-.36.94-1.04.69-1.69-5.16-13.64-16.28-23.97-28.82-30.93-13.54-7.5-28.97-11.45-44.43-11.82-15.45-.37-30.98,2.87-44.87,9.68-12.52,6.14-23.63,15.17-32.4,26-8.78,10.85-15.34,23.5-18.8,37.03-.1.39-.2.79-.29,1.18-.06.26-.13.53-.19.79,0,.04.37-.4.2-.19-.23.27-.61.49-.89.71l1.82-.23c-13.3-6.31-28.67-7.49-42.88-3.76s-26.65,12.44-34.83,24.69c-7.92,11.87-11.8,26.57-10.49,40.8,1.3,14.12,7.8,29.13,20.57,36.44,14.93,8.53,32.82,3.26,47.61-2.74,1.95-.79,3.89-1.61,5.82-2.44-.5-.86-1.01-1.73-1.51-2.59-3.21,1.78-6.43,3.57-9.64,5.35-.41.23-.89.43-1.26.73-.64.53-.91,1.61-1.19,2.37-.35.93-.64,1.88-.88,2.85-.95,3.77-1.15,7.74-.69,11.6,1.95,16.38,13.99,28.45,27.79,36.2,14.97,8.4,32.16,13.55,49.32,14.42,16.02.81,32.17-2.44,46.16-10.42,12.57-7.17,23.35-17.99,29.39-31.24.74-1.63,1.41-3.29,2.02-4.97.57-1.58-2.07-2.72-2.74-1.16-1.49,3.5-2.98,7-4.46,10.5-.29.69-.23,1.24.23,1.82,4.37,5.48,11.58,7.74,18.41,7.4,7.91-.39,14.91-4.18,21.01-9,3.73-2.95,7.14-6.3,10.52-9.64,1.42-1.4-.64-3.27-2.12-2.12-3.13,2.42-6.26,4.84-9.39,7.27-.69.54-.45,1.55,0,2.12,6.93,8.84,20.45,11.22,30.06,5.49,1.66-.99.15-3.58-1.51-2.59h0Z"/><g class="cls-19"><path class="cls-17" d="m1260.32-.99c8.83,8.1,11.26,22.36,5.6,32.92l4.59-2.71c14.08-4.74,29.76-3.19,43.63,2.13,8.67,3.32,16.97,8.22,22.78,15.48s8.82,17.1,6.44,26.08c-.88-.68-1.76-1.36-2.64-2.04l3.45-1.82c10.99-8.39,27.24-8.2,38.99-.92,11.75,7.29,18.97,20.72,20.34,34.48.62,6.24.07,12.83-3.1,18.25-4.04,6.91-11.64,10.86-19.04,13.9-7.07,2.91-14.47,5.35-22.11,5.52-7.64.17-15.6-2.18-20.9-7.68l3.05-.94c-5.87,7.78-12.62,15.17-21.2,19.78-15.01,8.06-33.14,6.49-50.09,4.7l3.46-5.51c-12.57,15.52-31.11,26.08-50.88,28.97s-40.55-1.93-57.03-13.21l6.21-9.41c-10.12,9.93-24.49,15.37-38.65,14.63-14.16-.74-27.89-7.64-36.92-18.57l5.57-4.23c-15.66,18.27-43.22,25.19-65.65,16.49-22.43-8.7-38.12-32.39-37.38-56.44.31-9.96,3.44-20.21,10.51-27.23,7.08-7.02,18.56-10.01,27.44-5.48l4.99,1.9c-5.84-2.92-9.57-9.24-10.3-15.73s1.25-13.08,4.57-18.71c5.55-9.41,14.95-16.48,25.53-19.21,10.58-2.72,22.22-1.07,31.63,4.5l-.81,4.25c2.39-11.2,12.56-19.47,23.54-22.73,10.98-3.25,22.72-2.33,34.08-.93l.02-.13c-1.34-3.87,2.06-8.55,6.15-8.47"/><path d="m1259.25.07c8.33,7.82,10.66,20.94,5.36,31.1-.67,1.29.71,2.85,2.05,2.05s2.63-1.64,3.99-2.36c2.53-1.33,5.76-1.8,8.57-2.27,7.4-1.22,15.07-.85,22.4.65,13.42,2.74,28.12,9.11,35.9,20.96,4.29,6.55,6.31,14.6,4.38,22.29.84-.22,1.67-.44,2.51-.66-.88-.68-1.76-1.36-2.64-2.04-.1.79-.2,1.57-.3,2.36,3.11-1.64,5.95-3.77,9.15-5.22,5.01-2.27,10.64-3.04,16.1-2.62,11.03.86,20.81,7.03,27.07,16.04,6.23,8.96,9.84,21.04,8.01,31.95-2.07,12.32-12.96,18-23.61,22.1-12.4,4.78-28.38,7.64-38.8-2.87-.22.84-.44,1.67-.66,2.51l3.05-.94c-.56-.73-1.13-1.47-1.69-2.2-8.02,10.58-17.6,19.71-30.77,23.15-12.77,3.34-26.28,1.95-39.23.59.43.75.86,1.5,1.3,2.26,1.15-1.84,2.31-3.67,3.46-5.51.89-1.41-1.26-3.16-2.36-1.82-19.58,23.98-51.85,34.62-81.81,26.63-8.67-2.31-16.86-6.08-24.29-11.11l.54,2.05c2.07-3.14,4.14-6.28,6.21-9.41.96-1.45-1.16-2.98-2.36-1.82-10.1,9.78-24.17,15.07-38.22,14.15-13.62-.89-26.49-7.67-35.23-18.09-.1.79-.2,1.57-.3,2.36,1.86-1.41,3.71-2.82,5.57-4.23l-1.82-2.36c-17.68,20.39-49.65,26.12-72.8,11.79-11.46-7.09-20.27-18.36-24.64-31.09-4.46-13-4.62-28.72,2.94-40.64,4.3-6.78,11.48-11.68,19.61-12.25,5.58-.39,10.38,2.02,15.45,3.95,1.59.61,2.65-1.96,1.16-2.74-5.41-2.83-8.83-8.42-9.56-14.43-.84-7,1.68-14.02,5.51-19.79,7.04-10.59,19.14-17.44,31.85-17.89,7.75-.27,15.41,1.67,22.11,5.55l-.69-1.69c-.27,1.42-.54,2.83-.81,4.25-.36,1.88,2.46,2.7,2.89.8,2.24-9.9,10.47-17.25,19.72-20.74,11.6-4.39,24.41-3.28,36.45-1.81.59.07,1.35-.51,1.45-1.1.12-.72-.16-1.29-.21-2.01-.07-.9.17-1.83.59-2.62.87-1.66,2.47-2.82,4.36-2.87s1.93-3.05,0-3c-2.55.07-4.78,1.29-6.29,3.35-.71.97-1.24,2.08-1.49,3.26-.13.61-.19,1.26-.16,1.89,0,.1.23,1.8.32,1.21l1.45-1.1c-12.88-1.58-26.64-2.61-38.89,2.58-9.53,4.04-17.84,11.83-20.18,22.18l2.89.8c.27-1.42.54-2.83.81-4.25.13-.66-.08-1.34-.69-1.69-12.92-7.5-29.12-7.98-42.33-.9-12.2,6.54-22.73,20.15-21.75,34.57.51,7.41,4.44,14.56,11.13,18.07l1.16-2.74c-4.74-1.8-9.29-4.07-14.48-4.11-7.17-.06-14.33,3.05-19.4,8.07-10.75,10.63-12.71,27.68-9.69,41.86,2.98,13.98,11.08,26.9,22.3,35.74,11.35,8.95,25.59,13.22,40,12.2,15.98-1.14,31.49-8.34,42.04-20.51,1.03-1.19-.37-3.45-1.82-2.36-1.86,1.41-3.71,2.82-5.57,4.23-.81.62-.98,1.55-.3,2.36,14.92,17.81,40.18,23.82,61.52,14.71,6.01-2.57,11.48-6.23,16.17-10.77l-2.36-1.82c-2.07,3.14-4.14,6.28-6.21,9.41-.47.71-.1,1.62.54,2.05,26.99,18.3,63.08,18.81,90.5,1.16,7.26-4.67,13.77-10.46,19.23-17.15-.79-.61-1.57-1.21-2.36-1.82-1.15,1.84-2.31,3.67-3.46,5.51-.66,1.05.23,2.14,1.3,2.26,13.66,1.44,27.93,2.82,41.33-1.05,13.35-3.86,23.05-13.35,31.25-24.17.81-1.07-.53-2.56-1.69-2.2-1.02.31-2.03.63-3.05.94-1.07.33-1.47,1.69-.66,2.51,9.53,9.61,24.02,9.37,36.12,5.61,11.14-3.46,24.8-8.82,29.64-20.4,4.64-11.11,1.68-25.07-3.79-35.35-5.55-10.42-15.04-18.66-26.68-21.32-6.38-1.46-13.17-1.35-19.43.6-4.81,1.5-8.77,4.44-13.17,6.76-.78.41-1.06,1.77-.3,2.36.88.68,1.76,1.36,2.64,2.04s2.2.54,2.51-.66c3.75-14.92-5.31-29.03-17.44-36.98-12.9-8.46-29.63-12.68-44.98-11.13-4.07.41-8.9.93-12.63,2.74-1.58.77-3.07,1.82-4.59,2.71l2.05,2.05c5.9-11.33,3.5-25.97-5.83-34.74-1.41-1.32-3.53.8-2.12,2.12h0Z"/></g><g class="cls-19"><path class="cls-15" d="m772.23,498.99c1.95-12.73,6.85-24.83,13.98-35.53,7.16-10.74,16.51-20.02,27.24-27.19,10.67-7.14,22.73-12.22,35.38-14.5,12.71-2.29,25.81-1.53,38.21,2.06,12.32,3.57,23.85,9.78,33.76,17.9,9.96,8.15,18.37,18.2,24.45,29.55,6.08,11.35,9.73,23.98,10.23,36.86.5,12.8-1.98,25.61-6.8,37.46-4.84,11.92-12.09,22.9-21.1,32.08-8.97,9.14-19.79,16.57-31.75,21.22-2.9,1.13-5.87,2.09-8.88,2.89-1.23.33-.71,2.24.53,1.91,12.65-3.37,24.36-9.68,34.4-18.06s18.45-18.88,24.54-30.49c6.07-11.57,9.91-24.32,10.88-37.36.97-13.12-1.16-26.35-6.12-38.53-4.96-12.21-12.52-23.29-21.88-32.55-9.33-9.24-20.44-16.66-32.6-21.62-12.16-4.96-25.4-7.31-38.52-6.46-13.08.85-25.86,4.74-37.4,10.92-11.6,6.21-21.99,14.75-30.34,24.92-8.3,10.11-14.65,21.85-18.11,34.5-.85,3.13-1.52,6.3-2.01,9.5-.19,1.25,1.72,1.79,1.91.53h0Z"/></g></svg>