<?xml version="1.0" encoding="UTF-8"?><svg xmlns="http://www.w3.org/2000/svg" width="558" height="428" viewBox="0 0 558 428"><defs><style>.cls-1{fill:none;}.cls-2{fill:#fff;}</style></defs><g id="Layer_21"><path class="cls-2" d="m29.91,209.82c-5.55-3.06-8.94-9.62-7.92-15.93s6.09-11.36,12.22-12.64c.47-.1.27-.82-.2-.72-6.5,1.36-11.87,6.9-12.8,13.52s2.57,13.26,8.32,16.43c.42.23.8-.41.38-.65h0Z"/></g><g id="Layer_87"><path class="cls-2" d="m184.41,337.34c-27.13-60.19-21.92-132.81-57.25-188.57-7.65-12.07-17.52-23.37-30.61-29.08-13.09-5.71-29.9-4.61-39.91,5.59-7.97,8.12-10.36,20.4-9.16,31.71,1.22,11.3,5.57,21.99,9.52,32.65,2.02,5.49,2.88,13.48-2.63,15.42-3.63,1.26-7.4-1.37-10.14-4.08-22.11-21.78-26.8-59.33-10.14-85.52,16.66-26.19,53.21-37.83,81.68-25.47,27.23,11.81,43.01,40.71,51.33,69.2,8.32,28.49,11.3,58.64,23.09,85.88,5.3-48.34,23.43-95.2,52.03-134.53,6.26-8.61,13.26-17.07,22.6-22.19,13.54-7.42,30.43-6.69,44.89-1.28,18.52,6.91,34.14,21.25,42.59,39.12,8.46,17.87,9.65,39.04,3.26,57.74-1.94,5.67-4.67,11.3-9.32,15.07-4.65,3.77-11.54,5.26-16.72,2.26-6.2-3.59-7.79-12.05-6.36-19.09,1.45-7.02,5.14-13.38,7.1-20.27,4.59-16.17-1.71-34.88-15.15-44.99-13.44-10.12-33.14-10.97-47.42-2.08-19.09,11.91-25.35,36.26-30.37,58.19-12.91,56.45-28.06,112.4-45.42,167.65-1.96.29-4.04-.92-4.77-2.77"/><path class="cls-1" d="m187.06,335.79c-20.97-46.83-22.15-99.32-38.3-147.62-3.94-11.81-8.79-23.35-14.91-34.2-6.02-10.67-13.28-21.11-22.86-28.9-9.59-7.79-20.52-12.38-32.59-11.87-11.34.47-22.01,5.59-28.21,15.32-6.73,10.56-7.08,23.86-4.61,35.77,1.47,7.12,3.96,13.99,6.49,20.78,1.61,4.32,4.75,10.28,3.08,15.05-2.16,6.16-9.71-2.2-11.73-4.47-3.63-4.12-6.65-8.75-9.1-13.66-4.89-9.83-7.3-20.88-7.16-31.86.29-21.95,11.46-41.89,30.53-52.95,18.29-10.61,41.65-12.5,60.63-2.65,20.7,10.75,33.75,31.8,41.71,53.03,9.69,25.88,12.56,53.66,20.58,80.03,1.96,6.44,4.26,12.79,6.91,18.99,1.35,3.12,5.4,1.06,5.71-1.55,2.81-25.35,9.24-50.27,18.78-73.91,4.83-11.97,10.56-23.6,17.03-34.77,6.22-10.77,13.05-21.44,20.99-31.04,8.02-9.71,17.8-17.19,30.57-18.95,11.81-1.63,24.11,1.14,34.69,6.42,21.19,10.54,36.32,30.74,40.26,54.09,2.1,12.44.94,25.51-3.37,37.36-1.94,5.32-4.89,10.91-9.99,13.77-4.55,2.55-10.67,2.55-13.97-1.96-7.26-9.95,1.96-23.17,4.83-32.92,3.08-10.48,1.86-21.8-2.61-31.69-9.4-20.76-33.88-30.72-55.33-23.45-21.39,7.24-31.37,28.76-37,48.99-3.37,12.09-5.85,24.41-8.77,36.61-3.41,14.24-6.95,28.45-10.65,42.63-7.3,28.02-15.15,55.9-23.58,83.6-2.04,6.69-4.1,13.36-6.18,20.03l2.96-2.24c-1.16.08-1.61-.22-2.12-1.24-1.73-3.55-7-.45-5.28,3.08,1.37,2.81,4.3,4.49,7.4,4.28,1.41-.08,2.53-.9,2.96-2.24,17.72-56.47,32.75-113.62,46.24-171.24,4.77-20.42,11.38-45.24,32.14-54.94,10.14-4.73,22.58-4.71,32.78-.18,10.22,4.55,17.7,13.58,20.91,24.23,1.61,5.36,2.18,11.09,1.43,16.66-.84,6.22-3.59,11.87-5.81,17.66-3.73,9.73-5.32,24.07,5.4,30.23,11.05,6.34,22.9-2.55,27.76-12.36,5.67-11.42,7.63-25.02,6.77-37.67-1.67-24.78-14.79-47.36-35.37-61.25-19.8-13.36-48.34-18.74-68.81-3.77-10.28,7.53-17.78,18.31-24.8,28.78-7.34,10.95-13.89,22.41-19.62,34.28-11.32,23.45-19.5,48.42-24.07,74.05-1.12,6.32-2.02,12.69-2.73,19.07,1.9-.51,3.79-1.02,5.71-1.55-11.52-26.88-14.48-56.33-22.52-84.25-6.53-22.7-17.36-45.85-35.88-61.23-8.63-7.16-18.76-12.52-29.78-14.73-10.79-2.16-22.03-1.61-32.61,1.31-21.58,5.98-39.69,21.62-47.11,42.93-7.34,21.07-4.14,45.77,8.06,64.41,3.16,4.85,7,9.81,11.6,13.36,4.61,3.55,11.36,4.69,15.07-.61,2.81-4.02,2.18-9.67.88-14.09-2.04-6.95-5.14-13.6-7.2-20.58-3.61-12.22-5.14-26.31,1.73-37.73,6.1-10.14,17.95-13.97,29.27-12.75,25.68,2.77,41.52,29.96,51.07,51.11,21.52,47.64,22.13,101.49,39.28,150.54,2.1,6,4.47,11.91,7.06,17.72,1.61,3.59,6.87.47,5.28-3.08h.06Z"/><path class="cls-2" d="m530.6,338.82c-3.96,3.24-9.85,2.65-13.09-1.31l-45.75-55.9-42.18,58.88c-2.98,4.16-8.81,5.14-12.97,2.14-4.16-2.98-5.12-8.81-2.14-12.97l45.09-62.96-49.21-60.15c-3.24-3.96-2.65-9.87,1.31-13.09,1.73-1.41,3.81-2.1,5.87-2.1,2.71,0,5.38,1.16,7.22,3.41l46.03,56.25,42.2-58.92c3-4.16,8.83-5.12,12.99-2.14,2.53,1.82,3.88,4.69,3.88,7.61,0,1.88-.55,3.77-1.73,5.4l-45.13,63,48.93,59.78c3.24,3.96,2.65,9.87-1.31,13.09v-.02Z"/></g></svg>