<?xml version="1.0" encoding="UTF-8"?><svg id="Layer_142" xmlns="http://www.w3.org/2000/svg" width="32" height="32" viewBox="0 0 32 32"><defs><style>.cls-1{fill:none;stroke:#fdd942;stroke-miterlimit:10;stroke-width:.42px;}.cls-2{fill:#fff;}.cls-3{fill:#fff7a8;}.cls-4{fill:#ffd942;}</style></defs><path class="cls-3" d="m29.19,17.54c1.27,1.07,1.13,3.32-.31,5.03s-3.63,2.23-4.9,1.16c-1.27-1.07-1.13-3.32.31-5.03,1.44-1.71,3.63-2.23,4.9-1.16Zm-.59.87c.06-.25-.12-.56-.37-.56h0c-.74-.15-1.52,0-2.19.35-.68.35-1.25.87-1.71,1.47-.17.22-.33.49-.25.75.09.27.43.39.7.32.28-.07.49-.28.66-.51.17-.23.31-.48.52-.68.34-.34.83-.49,1.3-.54.26-.03.53-.02.78-.1.25-.08.49-.25.56-.51Z"/><path class="cls-2" d="m28.22,17.85c.25,0,.43.31.37.56-.07.25-.31.43-.56.51-.25.08-.52.07-.78.1-.48.05-.96.2-1.3.54-.2.2-.34.45-.52.68-.17.23-.39.44-.66.51-.28.07-.61-.05-.7-.32-.09-.26.08-.53.25-.75.47-.6,1.04-1.13,1.71-1.47.67-.34,1.45-.5,2.19-.35h0Z"/><path class="cls-3" d="m26.71,7.5c1.53,1.29,1.36,4-.37,6.05-1.73,2.06-4.37,2.68-5.9,1.4s-1.36-4,.37-6.05c1.73-2.06,4.37-2.68,5.9-1.4Zm-1.27.64c.02-.28-.25-.58-.52-.52-.83,0-1.64.34-2.3.85-.66.52-1.16,1.22-1.54,1.97-.14.27-.26.6-.11.86.15.27.55.33.83.2.28-.14.47-.41.61-.7.14-.28.24-.59.41-.85.3-.44.79-.71,1.3-.87.28-.09.57-.14.82-.28s.48-.38.49-.67Z"/><path class="cls-2" d="m24.92,7.61c.28-.05.54.24.52.52-.02.29-.24.53-.49.67s-.55.19-.82.28c-.51.16-1,.43-1.3.87-.18.26-.28.56-.41.85-.14.28-.32.56-.61.7-.28.14-.68.08-.83-.2-.15-.26-.03-.59.11-.86.38-.75.88-1.44,1.54-1.97.65-.52,1.46-.85,2.3-.85Z"/><path class="cls-3" d="m6.96,18.43c-.36.33-.69.7-.96,1.1-.09.13-.18.28-.2.44-.02.16.05.34.2.41.19.08.39-.05.54-.19.26-.23.48-.49.7-.76.12-.14.24-.29.29-.47.05-.18.02-.39-.12-.51-.12-.1-.33-.1-.43.02l-.02-.02Zm7.98,9.6l.02.02c-.03.31,0,.64.16.91.15.27.43.48.74.51.54.04.96-.47,1.24-.93,1.26-2.09,1.94-4.56,1.75-6.99-.03-.41-.09-.84-.31-1.19-.22-.35-.63-.62-1.04-.54-.45.08-.75.54-.82.99-.07.45.03.91.1,1.37.28,2.1-.41,4.31-1.83,5.87Zm4.38-7.97c.75,2.03,1.18,4.26.68,6.37-.49,2.11-2.07,4.06-4.18,4.53v.03c-1.01.1-2.06-.29-2.76-1.03-1.16-1.23-1.32-3.27-2.72-4.21-1.43-.96-3.39-.29-5.02-.84-1.65-.55-2.68-2.37-2.59-4.11.09-1.74,1.16-3.33,2.58-4.33,1.42-1,3.16-1.48,4.88-1.67,1.28-.14,2.59-.14,3.85.16,1.26.29,2.46.88,3.36,1.8.9.91,1.47,2.09,1.91,3.29Zm-4.31-1.72c.12-.12.1-.32.05-.47-.12-.34-.4-.61-.72-.78-.32-.17-.68-.26-1.04-.32-1.72-.3-3.56-.07-5.08.77-.16,0-.31.19-.28.36.04.19.23.32.42.34.19.03.39-.03.57-.09.76-.23,1.52-.47,2.3-.57.79-.09,1.61-.03,2.31.34.33.17.63.41,1,.5.16.04.35.04.46-.07Z"/><path class="cls-4" d="m18.85,21.53c.19,2.43-.48,4.9-1.75,6.99-.28.47-.7.97-1.24.93-.31-.02-.59-.23-.74-.51-.15-.27-.19-.6-.16-.91l-.02-.02c1.43-1.57,2.12-3.78,1.83-5.87-.06-.45-.17-.91-.1-1.37.07-.45.37-.91.82-.99.41-.07.82.19,1.04.54.22.35.28.78.31,1.19Z"/><path class="cls-3" d="m16.18,1.08c2.04.48,3.18,3.1,2.53,5.85-.65,2.75-2.83,4.6-4.87,4.12s-3.18-3.1-2.53-5.85c.65-2.75,2.83-4.6,4.87-4.12Zm-.94,1.93c.18-.23.28-.54.18-.81-.1-.26-.45-.42-.68-.27-.76.34-1.37.98-1.76,1.72-.39.74-.57,1.58-.61,2.42-.02.3,0,.65.25.83.25.19.64.08.84-.16.2-.24.26-.57.27-.88,0-.31-.02-.63.03-.94.09-.52.43-.97.83-1.32.22-.19.46-.36.64-.59Z"/><path class="cls-2" d="m14.74,1.93c.23-.15.58,0,.68.27.1.27,0,.58-.18.81-.18.23-.42.4-.64.59-.4.35-.74.8-.83,1.32-.06.31-.02.63-.03.94,0,.31-.07.64-.27.88-.2.24-.59.34-.84.16-.24-.18-.27-.53-.25-.83.04-.84.22-1.68.61-2.42.39-.74,1-1.38,1.76-1.72Z"/><path class="cls-2" d="m8.21,17.53c1.53-.84,3.36-1.07,5.08-.77.36.06.72.15,1.04.32.32.17.6.44.72.78.06.16.07.35-.05.47-.11.12-.3.11-.46.07-.36-.09-.66-.33-1-.5-.7-.36-1.53-.43-2.31-.34-.79.09-1.54.34-2.3.57-.19.06-.38.11-.57.09-.19-.02-.39-.15-.42-.34-.03-.17.11-.36.28-.36Z"/><path class="cls-3" d="m6.07,4.65c1.61.38,2.51,2.45,2,4.63-.51,2.18-2.23,3.63-3.85,3.25-1.61-.38-2.51-2.45-2-4.63.51-2.17,2.23-3.63,3.85-3.25Zm-.3,1.36c.18-.23.28-.54.18-.81-.1-.26-.46-.43-.69-.27-.76.34-1.37.98-1.75,1.71-.39.74-.57,1.58-.61,2.42-.02.3,0,.65.25.83.25.19.64.08.84-.16.2-.24.26-.57.27-.88,0-.31-.02-.63.03-.94.09-.52.43-.97.83-1.32.22-.19.46-.36.64-.59Z"/><path class="cls-2" d="m6.98,18.45c.1-.11.31-.12.43-.02.14.12.17.34.12.51-.05.18-.17.33-.29.47-.22.27-.45.53-.7.76-.15.13-.35.26-.54.19-.15-.06-.22-.24-.2-.41.02-.16.11-.3.2-.44.28-.4.6-.77.96-1.1l.02.02Z"/><path class="cls-2" d="m5.26,4.93c.23-.16.59,0,.69.27.1.27,0,.58-.18.81-.18.23-.42.4-.64.59-.4.35-.74.8-.83,1.32-.06.31-.02.63-.03.94,0,.31-.07.64-.27.88-.2.24-.59.34-.84.16-.24-.18-.27-.53-.25-.83.04-.84.22-1.68.61-2.42.39-.74.99-1.38,1.75-1.71Z"/><path class="cls-1" d="m15.82,30.96c2.12-.47,3.69-2.42,4.18-4.53.49-2.11.07-4.34-.68-6.37-.44-1.2-1.01-2.38-1.91-3.29-.91-.92-2.11-1.51-3.36-1.8-1.26-.29-2.56-.3-3.85-.16-1.73.19-3.46.66-4.88,1.67-1.42,1-2.49,2.59-2.58,4.33-.09,1.74.94,3.55,2.59,4.11,1.63.55,3.59-.12,5.02.84,1.4.94,1.57,2.98,2.72,4.21.7.74,1.75,1.12,2.76,1.03.14-.01.29-.04.43-.07"/><path class="cls-1" d="m2.22,7.9c-.51,2.18.38,4.25,2,4.63,1.61.38,3.34-1.08,3.85-3.25.51-2.17-.38-4.25-2-4.63-1.61-.38-3.34,1.08-3.85,3.25Z"/><path class="cls-1" d="m11.31,5.19c-.65,2.75.49,5.37,2.53,5.85s4.22-1.36,4.87-4.12c.65-2.75-.49-5.37-2.53-5.85s-4.22,1.36-4.87,4.12Z"/><path class="cls-1" d="m20.81,8.89c-1.73,2.06-1.9,4.77-.37,6.05s4.17.66,5.9-1.4c1.73-2.06,1.9-4.77.37-6.05s-4.17-.66-5.9,1.4Z"/><path class="cls-1" d="m24.28,18.7c-1.44,1.71-1.58,3.96-.31,5.03,1.27,1.07,3.46.55,4.9-1.16s1.58-3.96.31-5.03c-1.27-1.07-3.46-.55-4.9,1.16Z"/><path class="cls-1" d="m5.26,4.93s-.01,0-.02.01"/><path class="cls-1" d="m5.26,4.93c-.76.34-1.37.98-1.75,1.71-.39.74-.57,1.58-.61,2.42-.02.3,0,.65.25.83.25.19.64.08.84-.16.2-.24.26-.57.27-.88,0-.31-.02-.63.03-.94.09-.52.43-.97.83-1.32.22-.19.46-.36.64-.59.18-.23.28-.54.18-.81-.1-.26-.46-.43-.69-.27Z"/><path class="cls-1" d="m5.27,4.93s0,0-.01,0"/><path class="cls-1" d="m14.74,1.93s-.01,0-.02.01"/><path class="cls-1" d="m14.74,1.93c-.76.34-1.37.98-1.76,1.72-.39.74-.57,1.58-.61,2.42-.02.3,0,.65.25.83.25.19.64.08.84-.16.2-.24.26-.57.27-.88,0-.31-.02-.63.03-.94.09-.52.43-.97.83-1.32.22-.19.46-.36.64-.59.18-.23.28-.54.18-.81-.1-.26-.45-.42-.68-.27Z"/><path class="cls-1" d="m14.75,1.92s0,0-.01,0"/><path class="cls-1" d="m24.92,7.61s-.01,0-.02,0"/><path class="cls-1" d="m24.92,7.61c-.83,0-1.64.34-2.3.85-.66.52-1.16,1.22-1.54,1.97-.14.27-.26.6-.11.86.15.27.55.33.83.2.28-.14.47-.41.61-.7.14-.28.24-.59.41-.85.3-.44.79-.71,1.3-.87.28-.09.57-.14.82-.28s.48-.38.49-.67c.02-.28-.25-.58-.52-.52Z"/><path class="cls-1" d="m24.94,7.61h-.02"/><path class="cls-1" d="m28.22,17.85h-.01"/><path class="cls-1" d="m28.24,17.85s-.01,0-.02,0h0c-.74-.15-1.52,0-2.19.35-.68.35-1.25.87-1.71,1.47-.17.22-.33.49-.25.75.09.27.43.39.7.32.28-.07.49-.28.66-.51.17-.23.31-.48.52-.68.34-.34.83-.49,1.3-.54.26-.03.53-.02.78-.1.25-.08.49-.25.56-.51.06-.25-.12-.56-.37-.56"/><path class="cls-1" d="m14.9,28.07s.03-.03.04-.04c1.43-1.57,2.12-3.78,1.83-5.87-.06-.45-.17-.91-.1-1.37.07-.45.37-.91.82-.99.41-.07.82.19,1.04.54.22.35.28.78.31,1.19.19,2.43-.48,4.9-1.75,6.99-.28.47-.7.97-1.24.93-.31-.02-.59-.23-.74-.51-.15-.27-.19-.6-.16-.91"/><path class="cls-1" d="m7,18.39s-.03.03-.04.04c-.36.33-.69.7-.96,1.1-.09.13-.18.28-.2.44-.02.16.05.34.2.41.19.08.39-.05.54-.19.26-.23.48-.49.7-.76.12-.14.24-.29.29-.47.05-.18.02-.39-.12-.51-.12-.1-.33-.1-.43.02-.02.02-.03.04-.04.07"/><path class="cls-1" d="m8.21,17.53s.04,0,.06,0"/><path class="cls-1" d="m8.21,17.53c1.53-.84,3.36-1.07,5.08-.77.36.06.72.15,1.04.32.32.17.6.44.72.78.06.16.07.35-.05.47-.11.12-.3.11-.46.07-.36-.09-.66-.33-1-.5-.7-.36-1.53-.43-2.31-.34-.79.09-1.54.34-2.3.57-.19.06-.38.11-.57.09-.19-.02-.39-.15-.42-.34-.03-.17.11-.36.28-.36Z"/><path class="cls-1" d="m8.1,17.6s.08-.04.12-.07"/></svg>