<?xml version="1.0" encoding="UTF-8"?><svg id="Layer_21" xmlns="http://www.w3.org/2000/svg" width="558" height="428" viewBox="0 0 558 428"><path d="m37.96,164.3c5.12-8.5,13.8-14.53,23.48-16.64s19.8.28,27.86,5.96c4.49,3.16,8.19,7.34,10.81,12.16.92,1.7,3.51.19,2.59-1.51-5.06-9.34-14.11-16.33-24.35-19.09s-21.39-.86-30.38,4.82c-5.12,3.23-9.46,7.61-12.59,12.79-1,1.66,1.59,3.17,2.59,1.51h0Z"/><path d="m102.1,166.14c4.83-7.92,13.27-12.82,22.01-15.3,9.61-2.73,20.67-2.98,29.12,3.05,3.95,2.81,6.94,6.89,8.09,11.62.45,1.88,3.35,1.08,2.89-.8-2.37-9.82-11.47-16.48-21.09-18.18-10.62-1.87-22.41.91-31.59,6.43-4.85,2.91-9.06,6.81-12.02,11.65-1.01,1.65,1.59,3.16,2.59,1.51h0Z"/><path d="m163.18,165.91c8.26-9.63,19.79-16.14,32.27-18.38s25.1.22,35.93,6.36c6.15,3.48,11.56,8.11,15.96,13.65.53.67,1.56.48,2.12,0,12.76-10.92,31.4-13.69,47.12-8.23,4.5,1.56,8.72,3.85,12.51,6.74.47.36,1.45.24,1.82-.23,6.83-8.73,16.54-14.94,27.32-17.54s22.55-1.14,32.57,3.89c5.69,2.86,10.77,6.76,14.96,11.56,1.27,1.46,3.39-.67,2.12-2.12-7.82-8.95-18.84-15.03-30.56-16.94s-23.43.37-33.58,6.16c-5.75,3.28-10.87,7.65-14.94,12.86l1.82-.23c-14.16-10.8-34.17-12.7-50.47-5.89-4.66,1.95-8.96,4.57-12.8,7.85h2.12c-8.11-10.22-19.85-17.46-32.56-20.31s-26.61-1-38.43,5.02c-6.61,3.37-12.58,8.02-17.41,13.66-1.25,1.46.86,3.59,2.12,2.12h0Z"/><path d="m386.84,166.31c9-11.82,25.58-15.84,38.98-9.44,3.78,1.8,7.15,4.28,9.98,7.37,1.31,1.42,3.43-.7,2.12-2.12-5.45-5.93-12.98-9.87-20.96-11s-15.95.59-22.77,4.7c-3.88,2.34-7.21,5.39-9.95,8.98-1.17,1.54,1.43,3.03,2.59,1.51h0Z"/><path d="m439.83,165.79c8.32-7.96,21.55-9.72,31.99-5.18,3.03,1.32,5.79,3.16,8.14,5.48.73.71,1.82.49,2.36-.3,5.93-8.72,18.18-12.48,27.82-7.94s15.28,15.35,12.6,25.81c-1.47,5.72-5.05,10.83-10.1,13.94-1.05.65-.94,2.44.36,2.74,9.3,2.15,14.04,13.5,10.36,21.98-4.23,9.76-15.79,13.97-25.7,11.48-6.18-1.55-11.63-5.22-15.84-9.96-1.28-1.45-3.4.68-2.12,2.12,8.15,9.19,21.52,14.62,33.41,9.77,5.18-2.11,9.8-5.91,12.37-10.94s2.81-10.62.83-15.77c-2.15-5.55-6.6-10.21-12.53-11.58l.36,2.74c10.34-6.37,15.16-20.01,10.43-31.32s-16.7-17.89-28.66-15.39c-6.55,1.37-12.44,5.27-16.2,10.8l2.36-.3c-9.15-9.01-23.71-11.14-35.39-6.2-3.33,1.41-6.37,3.39-8.99,5.89-1.4,1.34.73,3.46,2.12,2.12h0Z"/><path d="m481.14,224.99c-6.01,6.1-14.2,9.96-22.73,10.81-4.26.43-8.58.17-12.72-.9-4.66-1.2-8.97-3.35-13.37-5.25s-8.86-3.56-13.64-3.9c-5.12-.37-10.19.87-15.07,2.3s-9.59,2.94-14.57,3.75-9.61,1-14.42.76c-10.93-.54-21.68-3.65-31.18-9.08-.6-.34-1.32-.22-1.82.23-13.82,12.66-34.46,16.62-52.26,11.26-5.01-1.51-9.73-3.78-14.04-6.74-1.59-1.1-3.1,1.5-1.51,2.59,16.3,11.21,38.34,12.3,56.17,4.15,5.04-2.3,9.69-5.39,13.77-9.13l-1.82.23c17.51,10.01,38.4,12.03,57.66,6.32,5.07-1.5,10.17-3.32,15.49-3.66s9.87,1.06,14.52,2.99,9.03,4.2,13.79,5.64c4.23,1.28,8.72,1.8,13.14,1.57,9.99-.53,19.69-4.69,26.73-11.83,1.36-1.38-.76-3.5-2.12-2.12h0Z"/><path d="m271.81,231.12c-9.71,8.29-24.62,9-35.65,2.96-3.18-1.74-5.97-4.03-8.3-6.81-.59-.71-1.96-.52-2.36.3-2.46,5.14-7.96,8.48-13.69,8.02s-10.41-4.66-11.97-9.91c-.37-1.25-2.06-1.46-2.74-.36-2.48,4.04-7.48,6.46-12.19,5.59s-8.57-4.78-9.55-9.5c-.22-1.06-1.79-1.5-2.51-.66-9.45,11.09-25.81,14.97-39.43,10.11-3.68-1.32-6.79-3.43-9.99-5.62-3.55-2.43-7.31-4.07-11.68-3.4-4.06.63-7.65,2.94-11.13,4.96s-6.88,3.69-10.86,4.14c-8.17.93-16.92-2.41-21.91-9.06-1.14-1.53-3.75-.03-2.59,1.51,4.74,6.32,12.12,10.1,19.97,10.64,3.83.26,7.76-.31,11.31-1.77,4.1-1.69,7.66-4.39,11.69-6.21,1.8-.82,3.77-1.42,5.76-1.4,2.28.02,4.32.91,6.23,2.07,3.52,2.15,6.65,4.67,10.49,6.28,7,2.94,14.81,3.58,22.26,2.22,8.43-1.54,16.41-5.81,21.99-12.36l-2.51-.66c1.2,5.78,6.11,10.7,11.99,11.65s12.08-1.89,15.23-7.03l-2.74-.36c1.92,6.48,7.77,11.39,14.51,12.08s13.7-3.36,16.63-9.47l-2.36.3c9,10.73,25,14.3,38.03,9.69,3.73-1.32,7.15-3.28,10.16-5.85,1.47-1.26-.66-3.37-2.12-2.12h0Z"/><path d="m66.25,221.17c-8.14,2.36-15.77,7.16-24.38,7.69-6.34.39-14.67-2.5-15.61-9.76-.42-3.23.83-6.73,3.73-8.4,1.67-.96.17-3.55-1.51-2.59-3.11,1.78-4.85,5.03-5.22,8.53-.39,3.68.99,7.25,3.51,9.92,6.36,6.71,16.38,6.03,24.44,3.37,5.35-1.77,10.42-4.3,15.84-5.87,1.85-.54,1.06-3.43-.8-2.89h0Z"/><path d="m30.48,208.85c-5.1-2.81-8.3-8.83-7.4-14.66s5.68-10.65,11.44-11.86c1.89-.39,1.09-3.29-.8-2.89-6.86,1.43-12.57,7.33-13.59,14.3s2.63,14.27,8.83,17.7c1.69.93,3.21-1.66,1.51-2.59h0Z"/><path d="m36.29,179.26c-2.56-2.3-4-5.81-3.48-9.26s2.76-6.31,5.82-7.83c1.73-.86.21-3.45-1.51-2.59-3.81,1.9-6.63,5.69-7.24,9.91s.99,8.93,4.29,11.9c1.43,1.29,3.56-.83,2.12-2.12h0Z"/></svg>