<?xml version="1.0" encoding="UTF-8"?><svg id="Layer_42" xmlns="http://www.w3.org/2000/svg" width="1010" height="804" viewBox="0 0 1010 804"><defs><style>.cls-1{fill:#c84649;}</style></defs><path class="cls-1" d="m376.71,111.29c.59-2.8-1.31-5.94-3.93-7.36-3-1.62-6.59-1.57-9.99-1.4-5.63.28-11.31.79-16.65,2.6-5.33,1.81-10.35,5.03-13.4,9.76-3.57,5.54-4.09,12.62-2.79,19.08,1.3,6.45,4.26,12.44,7.28,18.3,1.33,2.57,2.87,5.32,5.53,6.47,2.84,1.24,6.26.24,8.66-1.72,2.39-1.96,3.97-4.73,5.42-7.46,4.52-8.49,8.41-17.31,11.64-26.36,1.61-4.5,3.29-9.38,7.23-12.07l1,.16Zm-8.24,436.55c-7.52-20.84-10.15-43.34-8.08-65.4,2.07-22.12,8.85-43.8,20.16-62.93-33.21-37.61-66.44-75.24-99.66-112.85-31.01-35.11-62.02-70.22-93.04-105.33l.87-.77c-15.38-20.15-17.16-49.71-4.29-71.56,4.47-7.59,10.97-14.51,19.18-17.45.92-.33,1.85-.61,2.81-.83,9.23-2.16,20.27,2.22,23.56,10.98,5.39-5.25,12.8-8.44,20.33-7.91.04,0,.08.01.12.01,10.14.76,19.36,7.58,24.09,16.59,4.76,9.06,5.26,19.99,2.51,29.84l-.32.27c18.74,22.07,37.25,44.33,55.53,66.77h.01c.7-15.21,2.23-30.37,4.58-45.4l-1.65-.26c-10.21-4.38-17.61-13.87-21.54-24.26-3.92-10.4-4.74-21.71-4.75-32.82,0-9.52.79-19.73,6.75-27.16,7.66-9.55,21.21-11.47,33.42-12.42,7.69-.6,15.55-1.07,23.03.84,7.47,1.9,14.61,6.58,17.61,13.68,28.26-19.62,63.9-28.43,98.03-23.99.16-.41.34-.81.53-1.2,4.34,1.43,8.61,3.07,12.8,4.91,19.61,8.61,37.3,21.6,51.35,37.77,2.11,2.42,4.13,4.91,6.07,7.47,1.2,1.58,2.84,3.34,4.61,3.8,14.43,10.63,22.11,28.39,33.35,42.6,10.35,13.08,23.99,23.41,33.49,37.13,10.26,14.83,15.1,33.09,14.91,51.13-.19,18.03-5.24,35.84-13.33,51.96l-.41.16c-12.29,14.05-27.97,25.04-45.25,32.08l.11.27c15.24,11.53,29.5,24.34,42.59,38.26,7.18,7.64,14.36,15.87,24.05,19.88,6.06,2.51,13.29,3.1,19-.12,3.81-2.14,6.58-5.73,9.04-9.35,4.33-6.4,8.04-13.22,11.07-20.33,1.4-3.29,2.67-6.69,4.68-9.65s4.91-5.52,8.41-6.27c3.84-.82,7.92.68,10.87,3.28,5.9-6.8,16.16-8.85,24.78-6.26,8.64,2.61,15.66,9.27,20.22,17.07,4.57,7.79,6.93,16.67,8.62,25.54,2.05,10.81,3.17,21.98,1.15,32.8-1.69,9.06-5.61,17.71-11.32,24.96-3.59,4.57-7.93,8.62-12.98,11.51-5.15,2.96-10.91,4.65-16.62,6.31-24.68,7.2-49.96,14.49-75.62,13.09.37,4.61.51,9.23.41,13.86-.2,9.25-1.42,18.54-3.74,27.53-3.99,15.63-11.26,30.34-22.06,42.28l.27.31c-8.86,7.49-19.87,12.12-30.64,16.59-6.05,2.52-12.15,5.05-18.51,6.58l-.04-.16c-1.41.29-2.83.58-4.24.87-27.83,5.64-55.96,9.78-84.23,12.41l-.56-.54c-18.32,6.37-36.35,14.16-52,25.62-15.66,11.45-28.9,26.84-35.31,45.14-5.81,16.59-6.28,35.8-17.62,49.23-7.95,9.42-19.96,14.29-31.72,17.98-23.01,7.21-47.03,11.21-71.13,11.85-4.27.11-8.85,0-12.79-1.42l-.36,1.46c-7.47-1.76-15.31-1.33-22.92-2.45-7.29-1.07-14.94-4.09-18.93-10.1l-1.74.47c-13.27-11.51-14.82-33.08-5.85-48.18,8.97-15.09,26.4-23.84,43.88-25.53l1.9-.21c-6.38-28.56,4.6-59.36,24.66-80.67,15.85-16.83,36.74-28.16,59-34.76,5.92-1.76,11.94-3.19,17.98-4.3l.86-.3Z"/><path class="cls-1" d="m579.63,591.43c6.36-1.53,12.46-4.06,18.51-6.58,10.77-4.47,21.78-9.1,30.64-16.59l-.27-.31c10.8-11.94,18.07-26.65,22.06-42.28,16.06,3.76,32.23,7.71,47.01,15.03,15.39,7.62,29.37,19.35,36.37,35.04,10.91,24.48,1.98,55.06-17.95,72.99,9.79,3.69,18.65,9.8,24.62,18.32,7.93,11.33,9.91,27.21,3.02,39.2-1.34,2.33-2.97,4.46-4.82,6.38-4.94,5.13-11.46,8.78-18.32,10.85-6.52,1.96-13.36,2.6-20.19,2.48-3.04-.04-6.08-.24-9.09-.54-32.75-3.22-63.22-17.6-92.92-31.75-7.95-3.79-16.44-8.09-20.4-15.95-5.51-10.95-.11-24.06,5.87-34.75,5.97-10.7,12.83-22.51,9.98-34.42-2.04-8.55-9.68-15.64-18.4-16.41,1.41-.29,2.83-.58,4.24-.87l.04.16Z"/><path class="cls-1" d="m563.09,128.23c-1.77-.46-3.41-2.22-4.61-3.8-1.94-2.56-3.96-5.05-6.07-7.47l.59-.51c6.52-7.99,7.18-19.97,2.39-29.09-4.79-9.13-14.48-15.24-24.69-16.62-10.22-1.38-20.78,1.71-29.26,7.56l-.38.89c-4.19-1.84-8.46-3.48-12.8-4.91,3.09-6.46,8.61-11.67,15.04-14.86,6.99-3.48,14.99-4.68,22.78-4.17,16.25,1.06,32.03,9.92,40.58,23.79,8.55,13.86,9.25,32.47.95,46.48-.61,1.03-1.32,2.08-2.41,2.55-.71.31-1.42.33-2.11.16Z"/><path class="cls-1" d="m555.39,87.36c4.79,9.12,4.13,21.1-2.39,29.09l-.59.51c-14.05-16.17-31.74-29.16-51.35-37.77l.38-.89c8.48-5.85,19.04-8.94,29.26-7.56,10.21,1.38,19.9,7.49,24.69,16.62Z"/><path class="cls-1" d="m372.78,103.93c2.62,1.42,4.52,4.56,3.93,7.36l-1-.16c-3.94,2.69-5.62,7.57-7.23,12.07-3.23,9.05-7.12,17.87-11.64,26.36-1.45,2.73-3.03,5.5-5.42,7.46-2.4,1.96-5.82,2.96-8.66,1.72-2.66-1.15-4.2-3.9-5.53-6.47-3.02-5.86-5.98-11.85-7.28-18.3-1.3-6.46-.78-13.54,2.79-19.08,3.05-4.73,8.07-7.95,13.4-9.76,5.34-1.81,11.02-2.32,16.65-2.6,3.4-.17,6.99-.22,9.99,1.4Z"/><path class="cls-1" d="m368.47,547.84l-.86.3c-6.04,1.11-12.06,2.54-17.98,4.3l-.54-1.85c-9.03-1.55-16.8-8.02-21.08-16.13-4.27-8.11-5.3-17.66-4.13-26.75,1.08-8.34,4.17-16.78,10.45-22.38,6.27-5.61,16.18-7.61,23.3-3.14l2.76.25c-2.07,22.06.56,44.56,8.08,65.4Z"/><path class="cls-1" d="m250.51,112.92l-.08.88s-.08-.01-.12-.01c-7.53-.53-14.94,2.66-20.33,7.91-3.29-8.76-14.33-13.14-23.56-10.98-.96.22-1.89.5-2.81.83l-.14-.39c-5.17-8.86-8.68-18.68-10.29-28.81-.75-4.68-.73-10.3,3.06-13.14,3.16-2.37,7.61-1.74,11.36-.51,9.99,3.29,18.6,10.01,25.52,17.94,6.93,7.92,12.3,17.06,17.39,26.28Z"/></svg>